<?xml version="1.0" standalone="no"?>
<!DOCTYPE svg PUBLIC "-//W3C//DTD SVG 1.1//EN" "http://www.w3.org/Graphics/SVG/1.1/DTD/svg11.dtd" >
<svg xmlns="http://www.w3.org/2000/svg" xmlns:xlink="http://www.w3.org/1999/xlink" version="1.1">
<metadata>
Created by FontForge 20170731 at Tue Jan 31 13:40:40 2017
 By Aleksey,,,
Copyright 2012 The Encode Project Authors (impallari@gmail.com), with Reserved Font Name "Encode Sans".
</metadata>
<defs>
<font id="EncodeSans-Regular" horiz-adv-x="1157" >
  <font-face 
    font-family="Encode Sans"
    font-weight="400"
    font-stretch="normal"
    units-per-em="2000"
    panose-1="0 0 5 0 0 0 0 0 0 0"
    ascent="1600"
    descent="-400"
    x-height="1085"
    cap-height="1480"
    bbox="-911 -466 2596 2143"
    underline-thickness="50"
    underline-position="-150"
    unicode-range="U+000D-FB02"
  />
<missing-glyph horiz-adv-x="1028" 
d="M843 1616v-2056h-652v2056h652zM685 1478h-340v-68h134v-76h-136v-68h342v68h-136v76h136v68zM549 1213h-206v-214h342v70h-136v144zM479 1143v-74h-68v74h68zM685 944h-342v-68h136v-76h-136v-68h206v144h136v68zM685 820h-68v-135h-274v-70h342v205zM685 569h-206v-115
h70v48h68v-97h-206v164h-68v-232h342v232zM685 214h-342v-233h342v233zM617 146v-97h-206v97h206zM685 -66h-342v-68h144l-144 -96v-68h342v68h-210l144 96h66v68z" />
    <glyph glyph-name="fi" unicode="fi" horiz-adv-x="1180" 
d="M321.5 1538q98.5 98 285.5 98q79 0 145 -13v-135q-62 13 -129 13q-123 0 -182 -57t-59 -184v-175h341v-132h-341v-953h-159v953h-205v132h205v167q0 188 98.5 286zM1030 1496q29 -27 29 -75t-29 -74.5t-82 -26.5q-54 0 -83 26.5t-29 74.5t29.5 75t82.5 27t82 -27zM868 0
v1085h160v-1085h-160z" />
    <glyph glyph-name="fl" unicode="fl" horiz-adv-x="1179" 
d="M321.5 1538q98.5 98 285.5 98q79 0 145 -13v-135q-62 13 -129 13q-123 0 -182 -57t-59 -184v-175h341v-132h-341v-953h-159v953h-205v132h205v167q0 188 98.5 286zM868 1616h160v-1616h-160v1616z" />
    <glyph glyph-name="f_j" unicode="fj" horiz-adv-x="1180" 
d="M382 953v-953h-159v953h-205v132h205v167q0 188 98.5 286t285.5 98q79 0 145 -13v-135q-62 13 -129 13q-123 0 -182 -57t-59 -184v-175h341v-132h-341zM1029 1501q29 -27 29 -75t-29 -74.5t-82 -26.5q-54 0 -83 26.5t-29 74.5t29.5 75t82.5 27t82 -27zM868 1085h160v-906
q0 -193 -54 -341.5t-178 -301.5l-107 72q96 130 137.5 259.5t41.5 302.5v915z" />
    <glyph glyph-name=".notdef" horiz-adv-x="1028" 
d="M843 1616v-2056h-652v2056h652zM685 1478h-340v-68h134v-76h-136v-68h342v68h-136v76h136v68zM549 1213h-206v-214h342v70h-136v144zM479 1143v-74h-68v74h68zM685 944h-342v-68h136v-76h-136v-68h206v144h136v68zM685 820h-68v-135h-274v-70h342v205zM685 569h-206v-115
h70v48h68v-97h-206v164h-68v-232h342v232zM685 214h-342v-233h342v233zM617 146v-97h-206v97h206zM685 -66h-342v-68h144l-144 -96v-68h342v68h-210l144 96h66v68z" />
    <glyph glyph-name=".null" horiz-adv-x="0" 
 />
    <glyph glyph-name="nonmarkingreturn" unicode="&#xd;" horiz-adv-x="489" 
 />
    <glyph glyph-name="NULL" horiz-adv-x="0" 
 />
    <glyph glyph-name="NULL" horiz-adv-x="0" 
 />
    <glyph glyph-name="space" unicode=" " horiz-adv-x="489" 
 />
    <glyph glyph-name="exclam" unicode="!" horiz-adv-x="501" 
d="M200 372l-35 546v562h171v-562l-34 -546h-102zM167 16.5q-32 29.5 -32 78.5t31.5 79t83.5 30t84 -30t32 -79t-32 -78.5t-84 -29.5q-51 0 -83 29.5z" />
    <glyph glyph-name="quotedbl" unicode="&#x22;" horiz-adv-x="756" 
d="M161 915l-35 701h167l-35 -701h-97zM498 915l-35 701h167l-35 -701h-97z" />
    <glyph glyph-name="numbersign" unicode="#" 
d="M1057 892h-208l-32 -304h240v-131h-253l-48 -457h-131l48 457h-247l-48 -457h-132l48 457h-194v131h207l32 304h-239v131h252l48 457h132l-48 -457h247l48 457h131l-48 -457h195v-131zM686 588l32 304h-247l-32 -304h247z" />
    <glyph glyph-name="dollar" unicode="$" horiz-adv-x="1063" 
d="M890 127.5q-99 -105.5 -283 -135.5v-232h-150v221q-88 0 -182 15t-178 44v140q90 -30 184.5 -45t178.5 -15q365 0 365 271q0 75 -29.5 125.5t-93 85t-172.5 62.5l-80 21q-190 49 -283 146.5t-93 256.5q0 165 97 268.5t286 132.5v231h150v-221q82 0 165.5 -11.5
t151.5 -32.5v-140q-147 45 -314 45q-190 0 -281 -67.5t-91 -194.5q0 -73 26.5 -123t85.5 -84.5t161 -61.5l80 -20q206 -52 302 -150t96 -258q0 -168 -99 -273.5z" />
    <glyph glyph-name="percent" unicode="%" horiz-adv-x="1845" 
d="M195 687.5q-91 112.5 -91 349.5t90.5 349.5t249.5 112.5t249.5 -112.5t90.5 -349.5t-91 -349.5t-249 -112.5t-249 112.5zM526 0l652 1480h141l-652 -1480h-141zM596 768.5q54 80.5 54 266.5q0 188 -54 269t-152 81t-151.5 -80.5t-53.5 -266.5q0 -187 53.5 -268.5
t151.5 -81.5t152 80.5zM1151.5 94.5q-90.5 112.5 -90.5 349.5t90.5 349.5t249.5 112.5t249.5 -112.5t90.5 -349.5t-91 -349.5t-249 -112.5q-159 0 -249.5 112.5zM1552.5 175.5q53.5 80.5 53.5 266.5q0 188 -54 269t-151 81q-98 0 -152 -80.5t-54 -266.5q0 -187 54.5 -268.5
t151.5 -81.5q98 0 151.5 80.5z" />
    <glyph glyph-name="ampersand" unicode="&#x26;" horiz-adv-x="1497" 
d="M1416 -20l-259 196q-73 -96 -194.5 -145t-284.5 -49q-176 0 -297 52.5t-182 147t-61 221.5q0 133 65.5 235t184.5 161q-52 66 -74 132.5t-22 144.5q0 204 132.5 313.5t394.5 109.5q129 0 244 -28v-140q-107 29 -237 29q-192 0 -281 -72.5t-89 -213.5q0 -67 21 -121
t73 -112.5t150 -135.5l411 -312q14 62 14 135q0 64 -11 134.5t-32 135.5h139q39 -126 39 -269q0 -123 -34 -223l271 -206zM1052 256l-433 328q-97 75 -151 127q-167 -100 -167 -291q0 -145 98.5 -228.5t293.5 -83.5q255 0 359 148z" />
    <glyph glyph-name="quotesingle" unicode="'" horiz-adv-x="419" 
d="M161 915l-35 701h167l-35 -701h-97z" />
    <glyph glyph-name="parenleft" unicode="(" horiz-adv-x="659" 
d="M125 588q0 608 341 1028h172q-180 -226 -263.5 -481.5t-83.5 -546.5t83.5 -546.5t263.5 -481.5h-172q-341 420 -341 1028z" />
    <glyph glyph-name="parenright" unicode=")" horiz-adv-x="659" 
d="M284.5 41q83.5 255 83.5 547t-83.5 547t-263.5 481h172q341 -418 341 -1028t-341 -1028h-172q180 226 263.5 481z" />
    <glyph glyph-name="asterisk" unicode="*" horiz-adv-x="919" 
d="M519 1182l135 -147l102 -139l-96 -70l-102 139l-99 177l-98 -177l-102 -139l-96 70l102 139l134 147l-194 40l-175 56l37 112l173 -56l184 -84l-24 200v166h119v-166l-24 -200l183 84l174 56l37 -112l-175 -56z" />
    <glyph glyph-name="plus" unicode="+" horiz-adv-x="1075" 
d="M469 357v338h-320v130h320v338h137v-338h320v-130h-320v-338h-137z" />
    <glyph glyph-name="comma" unicode="," horiz-adv-x="461" 
d="M314.5 174q30.5 -36 30.5 -110q0 -99 -27 -197t-73 -183h-95q34 90 52 162t22 141q-49 2 -79 32.5t-30 79.5q0 51 30.5 81t81.5 30q57 0 87.5 -36z" />
    <glyph glyph-name="hyphen" unicode="-" horiz-adv-x="837" 
d="M149 495v135h540v-135h-540z" />
    <glyph glyph-name="period" unicode="." horiz-adv-x="461" 
d="M147 17q-32 30 -32 81t31.5 81.5t83.5 30.5t84 -31t32 -81t-32 -80.5t-84 -30.5q-51 0 -83 30z" />
    <glyph glyph-name="slash" unicode="/" horiz-adv-x="616" 
d="M0 -240l457 1856h159l-457 -1856h-159z" />
    <glyph glyph-name="zero" unicode="0" horiz-adv-x="1249" 
d="M247.5 162q-132.5 181 -132.5 578q0 398 131.5 578.5t378.5 180.5t378 -180.5t131 -578.5q0 -397 -132 -578t-377 -181t-377.5 181zM812 178q76 57 117.5 193t41.5 366q0 233 -41.5 370t-117.5 194.5t-187 57.5q-112 0 -188 -57t-117.5 -193t-41.5 -366q0 -233 41.5 -370
t117.5 -194.5t188 -57.5q111 0 187 57z" />
    <glyph glyph-name="one" unicode="1" horiz-adv-x="730" 
d="M448 1485h103v-1485h-162v1281l-365 -261v160z" />
    <glyph glyph-name="two" unicode="2" horiz-adv-x="987" 
d="M923 140v-140h-863v90l423 562q108 142 153 243t45 196q0 141 -78 205t-239 64q-173 0 -321 -58v140q65 26 154.5 41.5t179.5 15.5q466 0 466 -394q0 -81 -21.5 -157t-70 -162t-133.5 -197l-341 -449h646z" />
    <glyph glyph-name="three" unicode="3" horiz-adv-x="1012" 
d="M859 643.5q82 -94.5 82 -243.5q0 -200 -136 -309.5t-397 -109.5q-188 0 -357 57v132q86 -28 177.5 -42.5t175.5 -14.5q189 0 284.5 74.5t95.5 219.5q0 138 -91 212t-279 74h-177v133h97q197 0 298.5 73.5t101.5 212.5q0 125 -82 190t-241 65q-169 0 -324 -55v132
q69 26 158.5 40.5t178.5 14.5q227 0 347.5 -98t120.5 -278q0 -129 -71.5 -221.5t-200.5 -132.5q157 -31 239 -125.5z" />
    <glyph glyph-name="four" unicode="4" horiz-adv-x="1181" 
d="M1140 487v-132h-209v-355h-150v355h-733v90l575 1035h162l-550 -993h546l21 493h129v-493h209z" />
    <glyph glyph-name="five" unicode="5" horiz-adv-x="1022" 
d="M713.5 790q130.5 -51 192 -142.5t60.5 -228.5q0 -214 -135 -326t-396 -112q-93 0 -184.5 15t-172.5 43v133q83 -28 175 -43t179 -15q190 0 283.5 75t93.5 226q0 99 -46.5 162.5t-154 99t-290.5 46.5l-185 11l50 746h722v-133h-577l-33 -489l79 -5q209 -12 339.5 -63z" />
    <glyph glyph-name="six" unicode="6" horiz-adv-x="1151" 
d="M874 803.5q103 -47.5 160 -144t57 -239.5q0 -141 -57 -239.5t-158.5 -149t-234.5 -50.5q-515 0 -515 711q0 807 627 807q161 0 270 -44v-135q-57 23 -126 34t-139 11q-237 0 -354 -149.5t-118 -474.5q65 52 157.5 81t190.5 29q137 0 240 -47.5zM858 185.5
q81 75.5 81 228.5q0 156 -87.5 232.5t-243.5 76.5q-86 0 -172.5 -28t-148.5 -85q9 -272 100 -386t256 -114q134 0 215 75.5z" />
    <glyph glyph-name="seven" unicode="7" horiz-adv-x="939" 
d="M12 1480h869v-90l-543 -1390h-169l532 1340h-689v140z" />
    <glyph glyph-name="eight" unicode="8" horiz-adv-x="1249" 
d="M1079 603q70 -89 70 -222q0 -120 -60 -210.5t-176 -140t-280 -49.5q-174 0 -293.5 46.5t-180 134t-60.5 209.5q0 133 74 233t209 155q-124 61 -179.5 147t-55.5 207q0 117 56.5 204.5t165 134.5t259.5 47q147 0 253.5 -45t163 -129.5t56.5 -199.5q0 -124 -63.5 -218
t-189.5 -154q161 -61 231 -150zM339 980q34 -56 115.5 -98.5t227.5 -77.5l33 -9q126 58 183 133t57 185q0 127 -85.5 194t-243.5 67q-157 0 -239 -68t-82 -188q0 -82 34 -138zM900.5 175q92.5 69 92.5 197q0 82 -35 137t-116 95t-224 74q-64 16 -113 31
q-121 -44 -185.5 -128.5t-64.5 -194.5q0 -137 96 -208.5t283 -71.5q174 0 266.5 69z" />
    <glyph glyph-name="nine" unicode="9" horiz-adv-x="1151" 
d="M1025 788q0 -807 -627 -807q-161 0 -270 44v135q57 -23 126 -34t139 -11q237 0 354 149.5t118 474.5q-65 -52 -157.5 -81t-190.5 -29q-137 0 -240 47.5t-160 144t-57 239.5q0 141 57 239.5t158.5 149t234.5 50.5q515 0 515 -711zM299.5 833.5q87.5 -76.5 243.5 -76.5
q86 0 172.5 28t148.5 85q-9 272 -100 386t-256 114q-134 0 -215 -75.5t-81 -228.5q0 -156 87.5 -232.5z" />
    <glyph glyph-name="colon" unicode=":" horiz-adv-x="461" 
d="M147 17q-32 30 -32 81t31.5 81.5t83.5 30.5t84 -31t32 -81t-32 -80.5t-84 -30.5q-51 0 -83 30zM147 905q-32 30 -32 81t31.5 81.5t83.5 30.5t84 -31t32 -81t-32 -80.5t-84 -30.5q-51 0 -83 30z" />
    <glyph glyph-name="semicolon" unicode=";" horiz-adv-x="461" 
d="M314.5 174q30.5 -36 30.5 -110q0 -99 -27 -197t-73 -183h-95q34 90 52 162t22 141q-49 2 -79 32.5t-30 79.5q0 51 30.5 81t81.5 30q57 0 87.5 -36zM147 905q-32 30 -32 81t31.5 81.5t83.5 30.5t84 -31t32 -81t-32 -80.5t-84 -30.5q-51 0 -83 30z" />
    <glyph glyph-name="less" unicode="&#x3c;" horiz-adv-x="1075" 
d="M926 1161v-136l-637 -264l637 -266v-136l-777 329v144z" />
    <glyph glyph-name="equal" unicode="=" horiz-adv-x="1075" 
d="M149 892v130h777v-130h-777zM149 498v130h777v-130h-777z" />
    <glyph glyph-name="greater" unicode="&#x3e;" horiz-adv-x="1075" 
d="M149 1161l777 -329v-144l-777 -329v136l637 266l-637 264v136z" />
    <glyph glyph-name="question" unicode="?" horiz-adv-x="903" 
d="M327 767q136 42 214 90.5t111.5 109.5t33.5 145q0 124 -82 188.5t-242 64.5q-168 0 -323 -55v134q70 26 159.5 40.5t178.5 14.5q227 0 347 -98.5t120 -278.5q0 -107 -37.5 -186.5t-119 -141t-216.5 -111.5l-15 -322h-102zM322 16.5q-32 29.5 -32 78.5t31.5 79t84.5 30
q52 0 83.5 -30t31.5 -79q0 -48 -31.5 -78t-83.5 -30t-84 29.5z" />
    <glyph glyph-name="at" unicode="@" horiz-adv-x="1919" 
d="M1596.5 1267q216.5 -231 216.5 -697q0 -204 -46 -335t-126 -192t-186 -61q-92 0 -151.5 38t-84.5 108h-12q-49 -71 -133 -108.5t-183 -37.5q-101 0 -175 35.5t-114 102t-40 158.5q0 143 93.5 221.5t292.5 98.5l256 28v91q0 95 -30 149.5t-90 76.5t-155 22
q-66 0 -142 -12.5t-148 -38.5v132q67 24 150.5 37.5t160.5 13.5q139 0 229 -37t136 -121.5t46 -226.5v-455q0 -83 30 -120t92 -37q91 0 148.5 108.5t56.5 352.5q0 287 -81.5 468t-241 266t-399.5 85q-241 0 -401.5 -87.5t-242.5 -277t-82 -492.5q0 -310 84 -500t253 -277.5
t430 -87.5q101 0 196.5 14t199.5 43v-120q-194 -55 -396 -55q-446 1 -674 239.5t-228 740.5q0 498 221 738t640 240q414 0 630.5 -231zM1079 139.5q72 32.5 125 100.5v280l-245 -27q-122 -14 -178.5 -62t-56.5 -137q0 -92 53 -139.5t154 -47.5q76 0 148 32.5z" />
    <glyph glyph-name="A" unicode="A" horiz-adv-x="1348" 
d="M1154 0l-169 479h-625l-169 -479h-163l531 1480h229l531 -1480h-165zM408 616h528l-264 746z" />
    <glyph glyph-name="B" unicode="B" horiz-adv-x="1259" 
d="M1110.5 643q76.5 -94 76.5 -240q0 -139 -66 -230.5t-210 -138.5t-376 -47q-177 0 -366 24v1444q200 41 407 41q296 0 432 -96.5t136 -298.5q0 -126 -64.5 -215.5t-196.5 -121.5q151 -27 227.5 -121zM328 1345v-520h291q196 0 283 66t87 204q0 98 -40 157t-127 86.5
t-231 27.5q-150 0 -263 -21zM842.5 148.5q101.5 31.5 145.5 95t44 164.5q0 147 -93 216t-292 69h-319v-563q103 -13 240 -13q173 0 274.5 31.5z" />
    <glyph glyph-name="C" unicode="C" horiz-adv-x="1151" 
d="M279 159.5q-174 178.5 -174 577.5q0 391 177 576.5t509 185.5q162 0 320 -43v-142q-153 44 -314 44q-173 0 -287.5 -61t-174 -197t-59.5 -359q0 -229 60 -365.5t172 -195t279 -58.5q82 0 159.5 13t164.5 43v-142q-156 -55 -336 -55q-322 0 -496 178.5z" />
    <glyph glyph-name="D" unicode="D" horiz-adv-x="1400" 
d="M169 9v1447q92 18 193 28.5t194 10.5q368 0 553 -186.5t185 -568.5q0 -387 -192.5 -569.5t-581.5 -182.5q-166 0 -351 21zM873 190q127 63 190.5 198.5t63.5 351.5q0 320 -139 468t-427 148q-105 0 -230 -19v-1197q100 -13 221 -13q194 0 321 63z" />
    <glyph glyph-name="E" unicode="E" horiz-adv-x="1166" 
d="M330 138h764v-138h-925v1480h915v-138h-754v-514h657v-137h-657v-553z" />
    <glyph glyph-name="F" unicode="F" horiz-adv-x="1125" 
d="M1077 1341h-746v-524h648v-140h-648v-677h-162v1480h908v-139z" />
    <glyph glyph-name="G" unicode="G" horiz-adv-x="1347" 
d="M1196 720v-704q-93 -16 -171 -22.5t-161 -6.5q-380 0 -569 182t-190 569q0 390 190 575.5t535 185.5q165 0 332 -44v-142q-86 24 -164 34.5t-158 10.5q-277 0 -421 -145t-144 -476q0 -215 64.5 -350t192.5 -197.5t323 -62.5q101 0 187 12v581h154z" />
    <glyph glyph-name="H" unicode="H" horiz-adv-x="1444" 
d="M169 0v1480h162v-647h782v647h162v-1480h-162v686h-782v-686h-162z" />
    <glyph glyph-name="I" unicode="I" horiz-adv-x="500" 
d="M169 0v1480h162v-1480h-162z" />
    <glyph glyph-name="J" unicode="J" horiz-adv-x="500" 
d="M-9 -271q96 130 137 259.5t41 302.5v1189h162v-1210q-6 -180 -59 -322t-174 -292z" />
    <glyph glyph-name="K" unicode="K" horiz-adv-x="1237" 
d="M1077 0l-527 686h-219v-686h-162v1480h162v-648h222l487 648h178l-542 -718l584 -762h-183z" />
    <glyph glyph-name="L" unicode="L" horiz-adv-x="1071" 
d="M169 0v1480h162v-1338h728v-142h-890z" />
    <glyph glyph-name="M" unicode="M" horiz-adv-x="1760" 
d="M1394 1480h193v-1480h-153v1239l-481 -1034h-146l-481 1022v-1227h-153v1480h193l517 -1111z" />
    <glyph glyph-name="N" unicode="N" horiz-adv-x="1469" 
d="M1146 1480h154v-1480h-167l-810 1232v-1232h-154v1480h167l810 -1232v1232z" />
    <glyph glyph-name="O" unicode="O" horiz-adv-x="1439" 
d="M267.5 167q-162.5 186 -162.5 573q0 261 75.5 430t213 249t325.5 80q289 0 451.5 -186t162.5 -573q0 -260 -75.5 -429.5t-212.5 -249.5t-326 -80q-289 0 -451.5 186zM1049 265.5q116 144.5 116 469.5q0 332 -116 478t-330 146q-213 0 -329.5 -144.5t-116.5 -469.5
q0 -332 116 -478t330 -146t330 144.5z" />
    <glyph glyph-name="P" unicode="P" horiz-adv-x="1233" 
d="M169 1458q203 38 380 38q296 0 445 -123t149 -382q0 -250 -152 -378t-465 -128q-92 0 -195 9v-494h-162v1458zM874 707q108 90 108 281q0 195 -103.5 285t-318.5 90q-124 0 -229 -18v-716q96 -12 198 -12q237 0 345 90z" />
    <glyph glyph-name="Q" unicode="Q" horiz-adv-x="1439" 
d="M1198 205q-135 -190 -397 -209q214 -63 508 -91l-26 -135q-455 56 -710 169.5t-361.5 303.5t-106.5 495q0 388 163.5 574.5t450.5 186.5q289 0 451.5 -185t162.5 -574q0 -345 -135 -535zM388.5 266.5q115.5 -145.5 330.5 -145.5q214 0 330 144.5t116 469.5
q0 332 -116 478t-330 146q-213 0 -329.5 -144.5t-116.5 -469.5q0 -333 115.5 -478.5z" />
    <glyph glyph-name="R" unicode="R" horiz-adv-x="1307" 
d="M1074 0l-460 613q-50 -2 -79 -2q-100 0 -206 8v-619h-160v1456q205 40 395 40q294 0 436 -107t142 -332q1 -171 -91.5 -277t-273.5 -146l479 -634h-182zM433.5 743q43.5 -2 102.5 -2q236 0 344 76t108 238q0 111 -43 179t-134 99.5t-237 31.5q-72 0 -127.5 -5t-117.5 -16
v-593q61 -6 104.5 -8z" />
    <glyph glyph-name="S" unicode="S" horiz-adv-x="1063" 
d="M277 -3.5q-95 15.5 -180 44.5v140q90 -31 184.5 -46t182.5 -15q361 0 361 271q0 75 -29.5 125.5t-93 85t-172.5 62.5l-80 21q-190 49 -283 146.5t-93 256.5q0 128 59.5 220.5t177 141.5t290.5 49q86 0 170 -11.5t153 -33.5v-140q-150 46 -318 46q-187 0 -277.5 -67.5
t-90.5 -194.5q0 -73 26.5 -123t85.5 -84.5t161 -61.5l80 -20q206 -52 302 -150t96 -258q0 -133 -62 -227t-180 -143.5t-285 -49.5q-90 0 -185 15.5z" />
    <glyph glyph-name="T" unicode="T" horiz-adv-x="1175" 
d="M506 0v1338h-492v142h1148v-142h-493v-1338h-163z" />
    <glyph glyph-name="U" unicode="U" horiz-adv-x="1417" 
d="M400 43q-121 62 -179.5 189.5t-58.5 327.5v920h162v-938q0 -219 93 -320t293 -101t293 101t93 320v938h159v-920q0 -200 -58 -327.5t-178 -189.5t-309 -62t-310 62z" />
    <glyph glyph-name="V" unicode="V" horiz-adv-x="1313" 
d="M1141 1480h161l-528 -1480h-236l-527 1480h172l478 -1355z" />
    <glyph glyph-name="W" unicode="W" horiz-adv-x="2114" 
d="M1902 1480h156l-416 -1480h-213l-370 1303l-375 -1303h-212l-417 1480h166l366 -1331l378 1331h191l375 -1335z" />
    <glyph glyph-name="X" unicode="X" horiz-adv-x="1279" 
d="M735 756l531 -756h-186l-442 630l-444 -630h-183l532 754l-513 726h186l424 -600l424 600h181z" />
    <glyph glyph-name="Y" unicode="Y" horiz-adv-x="1175" 
d="M1197 1480l-528 -822v-658h-162v658l-538 822h179l443 -679l438 679h168z" />
    <glyph glyph-name="Z" unicode="Z" horiz-adv-x="1153" 
d="M275 140h817v-140h-1031v91l805 1249h-793v140h1007v-91z" />
    <glyph glyph-name="bracketleft" unicode="[" horiz-adv-x="659" 
d="M189 -440v2056h507v-133h-347v-1790h345v-133h-505z" />
    <glyph glyph-name="backslash" unicode="\" horiz-adv-x="619" 
d="M459 -240l-459 1856h160l459 -1856h-160z" />
    <glyph glyph-name="bracketright" unicode="]" horiz-adv-x="659" 
d="M-34 -440v133h344v1790h-346v133h506v-2056h-504z" />
    <glyph glyph-name="asciicircum" unicode="^" 
d="M1061 740h-164l-319 604l-319 -604h-163l397 740h169z" />
    <glyph glyph-name="underscore" unicode="_" horiz-adv-x="1122" 
d="M92 -133v133h938v-133h-938z" />
    <glyph glyph-name="grave" unicode="`" horiz-adv-x="1058" 
d="M455 1253l-241 363h173l216 -363h-148z" />
    <glyph glyph-name="a" unicode="a" horiz-adv-x="1029" 
d="M707 1065q91 -37 137 -123t46 -231v-711h-134l-12 121h-11q-52 -66 -134.5 -102.5t-178.5 -36.5q-101 0 -175 35.5t-113.5 102.5t-39.5 158q0 144 94 222.5t299 98.5l248 27v93q0 97 -30.5 152t-91 77.5t-158.5 22.5q-67 0 -143.5 -12t-149.5 -37v132q67 23 152 35.5
t162 12.5q142 0 233 -37zM608 138q71 32 125 100v280l-237 -26q-127 -13 -184.5 -62t-57.5 -137q0 -92 52 -139.5t154 -47.5q77 0 148 32z" />
    <glyph glyph-name="b" unicode="b" horiz-adv-x="1129" 
d="M313 -6.5q-87 12.5 -162 36.5v1586h160v-643h10q51 60 128 94.5t172 34.5q119 0 212 -54.5t147.5 -175t54.5 -309.5q0 -582 -549 -582q-86 0 -173 12.5zM779 216q93 104 93 333q0 227 -79 321t-220 94q-77 0 -146.5 -32t-115.5 -94v-701q82 -25 187 -25q188 0 281 104z
" />
    <glyph glyph-name="c" unicode="c" horiz-adv-x="875" 
d="M216 117q-122 136 -122 425t131.5 424.5t388.5 135.5q121 0 223 -28v-136q-107 27 -205 27q-128 0 -209.5 -41t-122 -133t-40.5 -245q0 -155 37.5 -249.5t111.5 -137t188 -42.5q105 0 240 45v-136q-127 -45 -263 -45q-236 0 -358 136z" />
    <glyph glyph-name="d" unicode="d" horiz-adv-x="1129" 
d="M301 36q-96 55 -151.5 175.5t-55.5 308.5q0 291 138.5 436.5t409.5 145.5q78 0 176 -15v529h160v-1616h-137l-11 118h-10q-51 -63 -128 -100t-171 -37q-124 0 -220 55zM703 152.5q69 33.5 115 100.5v699q-38 8 -86 13.5t-93 5.5q-193 0 -287.5 -103.5t-94.5 -332.5
q0 -227 78.5 -321.5t222.5 -94.5q76 0 145 33.5z" />
    <glyph glyph-name="e" unicode="e" horiz-adv-x="1030" 
d="M951 489h-695q4 -137 45.5 -220t121.5 -120t204 -37q118 0 270 44v-131q-148 -44 -289 -44q-259 0 -386.5 134t-127.5 428q0 279 115.5 419t323.5 140q203 0 310.5 -139.5t107.5 -423.5v-50zM330 895q-70 -90 -74 -296h541q-4 207 -70.5 296.5t-195.5 89.5
q-131 0 -201 -90z" />
    <glyph glyph-name="f" unicode="f" horiz-adv-x="717" 
d="M442.5 1443.5q-60.5 -57.5 -60.5 -188.5v-170h341v-132h-341v-953h-159v953h-205v132h205v162q0 192 100 290.5t295 98.5q75 0 147 -12v-135q-67 12 -132 12q-130 0 -190.5 -57.5z" />
    <glyph glyph-name="g" unicode="g" horiz-adv-x="1129" 
d="M319 -447.5q-85 12.5 -156 36.5v134q163 -51 311 -51q120 0 195 33t112 107t37 198v105h-10q-51 -60 -128 -94.5t-172 -34.5q-118 0 -211 54.5t-148 174t-55 306.5q0 290 138.5 435t411.5 146q84 0 172.5 -13t161.5 -36v-1018q0 -176 -55 -285t-164 -159.5t-277 -50.5
q-78 0 -163 12.5zM702 154.5q70 31.5 116 93.5v701q-90 22 -187 22q-187 0 -280.5 -104t-93.5 -331t78.5 -320t220.5 -93q76 0 146 31.5z" />
    <glyph glyph-name="h" unicode="h" horiz-adv-x="1137" 
d="M151 1616h160v-652h10q65 68 150 103t184 35q159 0 250.5 -91.5t91.5 -292.5v-718h-160v711q0 133 -58.5 189.5t-168.5 56.5q-83 0 -163.5 -35t-135.5 -108v-814h-160v1616z" />
    <glyph glyph-name="i" unicode="i" horiz-adv-x="463" 
d="M151 0v1085h160v-1085h-160zM148 1346.5q-29 26.5 -29 74.5t29.5 75t82.5 27t82 -27t29 -75t-29 -74.5t-82 -26.5q-54 0 -83 26.5z" />
    <glyph glyph-name="j" unicode="j" horiz-adv-x="463" 
d="M-28 -392q96 130 137.5 259.5t41.5 302.5v915h160v-906q0 -193 -54 -341.5t-178 -301.5zM147 1351.5q-29 26.5 -29 74.5t29.5 75t82.5 27t82 -27t29 -75t-29 -74.5t-82 -26.5q-54 0 -83 26.5z" />
    <glyph glyph-name="k" unicode="k" horiz-adv-x="1038" 
d="M878 0l-383 489h-184v-489h-160v1616h160v-993h183l354 462h178l-399 -527l432 -558h-181z" />
    <glyph glyph-name="l" unicode="l" horiz-adv-x="462" 
d="M151 0v1616h160v-1616h-160z" />
    <glyph glyph-name="m" unicode="m" horiz-adv-x="1694" 
d="M1467.5 1010.5q87.5 -91.5 87.5 -292.5v-718h-160v711q0 132 -54 190t-151 58q-70 0 -140.5 -33.5t-120.5 -105.5q6 -45 6 -98v-722h-158v711q0 133 -52 190.5t-148 57.5q-73 0 -145 -37t-121 -112v-810h-160v1085h135l11 -123h11q62 69 142 104.5t172 35.5
q197 0 271 -156q71 81 158 118.5t177 37.5q152 0 239.5 -91.5z" />
    <glyph glyph-name="n" unicode="n" horiz-adv-x="1137" 
d="M151 1085h135l11 -123h11q67 68 154.5 104t186.5 36q163 0 255.5 -91.5t92.5 -293.5v-717h-160v710q0 133 -58.5 191t-168.5 58q-81 0 -162 -35t-137 -109v-815h-160v1085z" />
    <glyph glyph-name="o" unicode="o" horiz-adv-x="1111" 
d="M215.5 118.5q-121.5 137.5 -121.5 422.5t121 423t340 138q220 0 341 -137t121 -423q0 -284 -122 -422.5t-340 -138.5t-339.5 137.5zM777 209.5q76 98.5 76 329.5q0 235 -76 333.5t-222 98.5q-145 0 -221.5 -98t-76.5 -329q0 -234 76 -333.5t222 -99.5t222 98.5z" />
    <glyph glyph-name="p" unicode="p" horiz-adv-x="1129" 
d="M151 1085h137l11 -120h10q51 63 128 100t171 37q123 0 219 -54t152 -174.5t56 -310.5q0 -292 -138 -437t-410 -145q-72 0 -176 14v-435h-160v1525zM777.5 215.5q94.5 103.5 94.5 332.5t-79 322.5t-222 93.5q-76 0 -145 -33.5t-115 -100.5v-699q38 -8 86 -13.5t93 -5.5
q193 0 287.5 103.5z" />
    <glyph glyph-name="q" unicode="q" horiz-adv-x="1129" 
d="M818 110h-10q-51 -60 -128 -94.5t-172 -34.5q-119 0 -212 54.5t-147.5 175t-54.5 309.5q0 582 549 582q85 0 173.5 -13t161.5 -36v-1493h-160v550zM702 150.5q70 31.5 116 93.5v705q-90 22 -188 22q-186 0 -279.5 -104.5t-93.5 -332.5q0 -227 79 -321t220 -94
q76 0 146 31.5z" />
    <glyph glyph-name="r" unicode="r" horiz-adv-x="724" 
d="M151 1085h134l13 -145h10q54 75 138.5 115.5t178.5 40.5q44 0 87 -8v-149q-43 7 -94 7q-85 0 -170.5 -39.5t-136.5 -113.5v-793h-160v1085z" />
    <glyph glyph-name="s" unicode="s" horiz-adv-x="900" 
d="M109 25v129q149 -45 301 -45q268 0 268 182q0 74 -38.5 113t-128.5 59l-147 30q-145 31 -210 103t-65 192q0 93 47 164t143.5 110.5t238.5 39.5q131 0 256 -32v-130q-66 18 -126 26t-126 8q-147 0 -213.5 -49.5t-66.5 -132.5q0 -67 37 -108t125 -60l147 -30
q148 -31 214.5 -102t66.5 -193q0 -150 -109 -234t-313 -84q-165 0 -301 44z" />
    <glyph glyph-name="t" unicode="t" horiz-adv-x="749" 
d="M733 136v-135q-85 -20 -167 -20q-351 0 -351 360v612h-205v132h205l26 395h134v-395h341v-132h-341v-587q0 -133 54.5 -189.5t170.5 -56.5q57 0 133 16z" />
    <glyph glyph-name="u" unicode="u" horiz-adv-x="1127" 
d="M231.5 73q-92.5 91 -92.5 291v721h160v-713q0 -132 58.5 -189.5t163.5 -57.5q80 0 160.5 36t134.5 108v816h160v-1085h-135l-12 119h-10q-67 -68 -152.5 -102.5t-181.5 -34.5q-161 0 -253.5 91z" />
    <glyph glyph-name="v" unicode="v" horiz-adv-x="1057" 
d="M880 1085h161l-410 -1085h-206l-409 1085h170l347 -942z" />
    <glyph glyph-name="w" unicode="w" horiz-adv-x="1691" 
d="M1480 1085h151l-316 -1085h-189l-279 927l-281 -927h-188l-318 1085h157l263 -919l275 919h188l274 -914z" />
    <glyph glyph-name="x" unicode="x" horiz-adv-x="1010" 
d="M600 549l397 -549h-183l-310 432l-309 -432h-180l394 547l-386 538h183l301 -419l302 419h177z" />
    <glyph glyph-name="y" unicode="y" horiz-adv-x="1057" 
d="M880 1085h161l-576 -1525h-160l167 440h-47l-409 1085h170l344 -951z" />
    <glyph glyph-name="z" unicode="z" horiz-adv-x="918" 
d="M264 133h600v-133h-802v99l589 854h-577v132h778v-99z" />
    <glyph glyph-name="braceleft" unicode="{" horiz-adv-x="699" 
d="M351.5 707q-37.5 -60 -118.5 -82q81 -23 118.5 -82.5t37.5 -160.5v-494q0 -111 55 -161.5t169 -50.5h123v-125q-68 -11 -140 -11q-182 0 -274.5 87.5t-92.5 262.5v502q0 85 -41 125.5t-123 40.5h-29v133h29q82 0 123 40.5t41 125.5v429q0 175 92.5 262.5t274.5 87.5
q72 0 140 -11v-125h-123q-114 0 -169 -50.5t-55 -161.5v-421q0 -100 -37.5 -160z" />
    <glyph glyph-name="bar" unicode="|" horiz-adv-x="486" 
d="M169 -440v2056h148v-2056h-148z" />
    <glyph glyph-name="braceright" unicode="}" horiz-adv-x="699" 
d="M664 691v-133h-29q-165 0 -165 -166v-502q0 -175 -92.5 -262.5t-274.5 -87.5q-73 0 -139 11v125h122q114 0 169 50.5t55 161.5v494q0 101 38 160.5t119 82.5q-81 22 -119 82t-38 160v421q0 111 -55 161.5t-169 50.5h-122v125q66 11 139 11q182 0 274.5 -87.5t92.5 -262.5
v-429q0 -166 165 -166h29z" />
    <glyph glyph-name="asciitilde" unicode="~" horiz-adv-x="1075" 
d="M626 648.5q-43 15.5 -109 47.5q-53 27 -88.5 40.5t-71.5 13.5q-61 0 -111.5 -26.5t-96.5 -82.5v144q37 46 90 69.5t118 23.5q49 0 95 -16t107 -47q55 -27 89.5 -40t69.5 -13q60 0 111 26.5t97 81.5v-144q-75 -93 -208 -93q-49 0 -92 15.5z" />
    <glyph glyph-name="uni00A0" unicode="&#xa0;" horiz-adv-x="489" 
 />
    <glyph glyph-name="exclamdown" unicode="&#xa1;" horiz-adv-x="501" 
d="M334 1067.5q32 -30.5 32 -80.5t-32 -81t-84 -31t-83.5 30.5t-31.5 81.5t32 81t83 30q52 0 84 -30.5zM200 706h102l34 -542v-544h-171v544z" />
    <glyph glyph-name="cent" unicode="&#xa2;" horiz-adv-x="880" 
d="M420.5 924q-80.5 -41 -120.5 -133t-40 -245q0 -155 37.5 -249.5t111.5 -137t188 -42.5q105 0 240 45v-136q-102 -36 -205 -43v-223h-140v225q-196 22 -297 158t-101 399q0 253 100.5 387.5t297.5 163.5v232h140v-223q106 -2 205 -28v-136q-108 27 -208 27
q-128 0 -208.5 -41z" />
    <glyph glyph-name="sterling" unicode="&#xa3;" horiz-adv-x="1267" 
d="M1194 136v-136h-1117v136h220v550h-220v128h220v229q0 228 135 342t401 114q84 0 167.5 -11.5t152.5 -32.5v-140q-147 45 -313 45q-198 0 -291 -73t-93 -240v-233h520v-128h-520v-550h738z" />
    <glyph glyph-name="currency" unicode="&#xa4;" 
d="M950 458l105 -101l-93 -93l-102 104l-75 94q-87 -65 -207 -65q-121 0 -206 65l-76 -94l-101 -104l-93 93l105 101l97 77q-57 85 -57 205q0 119 57 204l-97 78l-106 101l93 93l101 -104l77 -96q85 65 206 65t206 -65l78 96l101 104l93 -93l-106 -101l-98 -78
q58 -86 58 -204t-57 -205zM740 564.5q61 63.5 61 175.5q0 70 -26 124t-76 84.5t-119 30.5q-66 0 -117 -28.5t-79 -82.5t-28 -128t28 -128t78 -82.5t116 -28.5q101 0 162 63.5z" />
    <glyph glyph-name="yen" unicode="&#xa5;" horiz-adv-x="1213" 
d="M1219 1480l-472 -731h259v-110h-318v-230h318v-110h-318v-299h-162v299h-317v110h317v230h-317v110h258l-476 731h179l441 -679l440 679h168z" />
    <glyph glyph-name="brokenbar" unicode="&#xa6;" horiz-adv-x="486" 
d="M169 836v780h148v-780h-148zM169 -440v780h148v-780h-148z" />
    <glyph glyph-name="section" unicode="&#xa7;" horiz-adv-x="1014" 
d="M866 297q0 -149 -108.5 -232.5t-317.5 -83.5q-158 0 -294 41v125q79 -23 149.5 -33t144.5 -10q143 0 209 47t66 136q0 73 -38.5 112.5t-128.5 59.5l-161 34q-138 31 -203 102t-65 189q0 64 25.5 117.5t73.5 94.5q-73 70 -73 187q0 93 47 163.5t144.5 110.5t242.5 40
q132 0 249 -30v-124q-65 16 -121.5 23t-119.5 7q-153 0 -222 -49.5t-69 -132.5q0 -67 38 -108.5t125 -60.5l162 -33q144 -31 209 -101t65 -190q0 -131 -98 -215q69 -69 69 -186zM590 579q65 -15 104 -32q63 54 63 140q0 77 -41.5 119.5t-136.5 63.5l-160 33q-55 12 -99 30
q-63 -57 -63 -141q0 -70 40 -115t132 -65z" />
    <glyph glyph-name="dieresis" unicode="&#xa8;" horiz-adv-x="1058" 
d="M236.5 1348.5q-27.5 26.5 -27.5 72.5t27.5 73t75.5 27q47 0 74.5 -27t27.5 -73t-27.5 -72.5t-74.5 -26.5q-48 0 -75.5 26.5zM671.5 1348.5q-27.5 26.5 -27.5 72.5t27.5 73t74.5 27q48 0 75.5 -27t27.5 -73t-27.5 -72.5t-75.5 -26.5q-47 0 -74.5 26.5z" />
    <glyph glyph-name="copyright" unicode="&#xa9;" horiz-adv-x="1702" 
d="M460 73q-169 95 -262 267.5t-93 399.5t93 399.5t262 267.5t391 95q221 0 390 -95t262 -267.5t93 -399.5t-93 -399.5t-262 -267.5t-390 -95q-222 0 -391 95zM1187 165q144 81 222.5 229.5t78.5 345.5t-78.5 345.5t-222.5 229.5t-336 81t-336 -81t-222.5 -229.5
t-78.5 -345.5t78.5 -345.5t222.5 -229.5t336 -81t336 81zM683 371q-90 47 -139.5 138.5t-49.5 223.5q0 196 110.5 303.5t312.5 107.5q102 0 192 -26v-114q-99 24 -184 24q-299 0 -299 -292q0 -148 73 -222t207 -74q96 0 203 37v-114q-92 -39 -215 -39q-121 0 -211 47z" />
    <glyph glyph-name="ordfeminine" unicode="&#xaa;" horiz-adv-x="867" 
d="M597.5 1464q78.5 -31 118 -102t39.5 -191v-561h-125l-12 97h-9q-44 -53 -113.5 -82.5t-149.5 -29.5q-85 0 -147.5 29.5t-96 83.5t-33.5 127q0 117 79 180.5t252 78.5l207 20v72q0 72 -25 113t-75.5 58.5t-133.5 17.5q-56 0 -119.5 -10t-125.5 -30v120q59 19 130 29.5
t137 10.5q124 0 202.5 -31zM506 731q57 24 101 74v218l-191 -19q-104 -10 -151 -47t-47 -105q0 -71 43.5 -108t128.5 -37q59 0 116 24z" />
    <glyph glyph-name="guillemotleft" unicode="&#xab;" horiz-adv-x="1008" 
d="M367 137l-255 426l255 425h165l-254 -425l254 -426h-165zM771 137l-255 426l255 425h165l-254 -425l254 -426h-165z" />
    <glyph glyph-name="logicalnot" unicode="&#xac;" horiz-adv-x="1334" 
d="M1058 194v501h-909v130h1045v-631h-136z" />
    <glyph glyph-name="uni00AD" unicode="&#xad;" horiz-adv-x="837" 
d="M149 495v135h540v-135h-540z" />
    <glyph glyph-name="registered" unicode="&#xae;" horiz-adv-x="1502" 
d="M1068.5 1420q138.5 -78 215.5 -218t77 -320t-77 -319.5t-215.5 -217t-317.5 -77.5t-317.5 77.5t-215.5 217t-77 319.5t77 320t215.5 218t317.5 78t317.5 -78zM1023 422q117 65 180.5 183.5t63.5 276.5t-63.5 277t-180.5 184.5t-272 65.5q-154 0 -271 -65.5t-181 -184.5
t-64 -277q0 -157 64 -276t180.5 -184t271.5 -65t272 65zM955 893.5q-33 -43.5 -98 -62.5l157 -231h-104l-148 216h-23h-106l-1 -216h-92v592h199q122 0 185.5 -48.5t63.5 -140.5q0 -66 -33 -109.5zM754 896q73 0 108 26t35 81q0 109 -143 109h-121v-216h121z" />
    <glyph glyph-name="macron" unicode="&#xaf;" horiz-adv-x="1058" 
d="M219 1368v108h620v-108h-620z" />
    <glyph glyph-name="degree" unicode="&#xb0;" horiz-adv-x="980" 
d="M310.5 848q-79.5 45 -124.5 124t-45 178t45 178.5t124.5 124t179.5 44.5t179.5 -44.5t124.5 -124t45 -178.5t-45 -178t-124.5 -124t-179.5 -45t-179.5 45zM611 941q53 29 82.5 83t29.5 126t-30 126t-83 83t-120 29q-68 0 -121 -29t-83 -83t-30 -126t30 -126t83 -83
t121 -29t121 29z" />
    <glyph glyph-name="plusminus" unicode="&#xb1;" horiz-adv-x="1075" 
d="M469 337v331h-320v130h320v332h137v-332h320v-130h-320v-331h-137zM149 0v130h777v-130h-777z" />
    <glyph glyph-name="uni00B2" unicode="&#xb2;" horiz-adv-x="788" 
d="M702 -21v-115h-612v73l293 373q75 94 106.5 158.5t31.5 124.5q0 89 -53.5 130t-164.5 41q-121 0 -226 -39v114q48 18 111.5 28t130.5 10q336 0 336 -271q0 -80 -36.5 -158t-123.5 -187l-224 -282h431z" />
    <glyph glyph-name="uni00B3" unicode="&#xb3;" horiz-adv-x="788" 
d="M649 299.5q56 -63.5 56 -163.5q0 -137 -97 -211t-284 -74q-134 0 -253 38v108q60 -19 124.5 -29t124.5 -10q129 0 193 47t64 139q0 179 -246 179h-135v108h84q129 0 195.5 46t66.5 132q0 79 -55.5 120t-165.5 41q-123 0 -227 -39v109q47 18 111.5 27.5t128.5 9.5
q164 0 251 -67t87 -190q0 -87 -49 -148t-136 -87q106 -22 162 -85.5z" />
    <glyph glyph-name="acute" unicode="&#xb4;" horiz-adv-x="1058" 
d="M455 1253l216 363h173l-241 -363h-148z" />
    <glyph glyph-name="uni00B5" unicode="&#xb5;" horiz-adv-x="1127" 
d="M976 1085v-1085h-135l-12 119h-10q-61 -67 -141 -102t-167 -35q-139 0 -212 79v-501h-160v1525h160v-713q0 -132 58.5 -189.5t163.5 -57.5q80 0 160.5 36t134.5 108v816h160z" />
    <glyph glyph-name="paragraph" unicode="&#xb6;" horiz-adv-x="1233" 
d="M682 493q-61 -8 -136 -8q-232 0 -344.5 128t-112.5 378q0 259 111.5 382t335.5 123q128 0 272 -16v-1480h-126v493zM938 0v1480h126v-1480h-126z" />
    <glyph glyph-name="periodcentered" unicode="&#xb7;" horiz-adv-x="461" 
d="M146.5 478q-31.5 30 -31.5 81t31.5 81.5t83.5 30.5t84 -31t32 -81q0 -51 -32 -81t-84 -30t-83.5 30z" />
    <glyph glyph-name="cedilla" unicode="&#xb8;" horiz-adv-x="1058" 
d="M695.5 -153q39.5 -40 39.5 -106q0 -74 -53 -115.5t-152 -41.5q-45 0 -90.5 9.5t-78.5 25.5v81q75 -37 166 -37q57 0 84.5 20.5t27.5 62.5q0 86 -114 86h-37v188h92v-124q76 -9 115.5 -49z" />
    <glyph glyph-name="uni00B9" unicode="&#xb9;" horiz-adv-x="788" 
d="M503 -21h218v-115h-581v115h229v728l-231 -162v127l279 196h86v-889z" />
    <glyph glyph-name="ordmasculine" unicode="&#xba;" horiz-adv-x="942" 
d="M179.5 707.5q-104.5 112.5 -104.5 338.5q0 225 104.5 337t291.5 112t291.5 -112t104.5 -337q0 -224 -105 -337.5t-291 -113.5q-187 0 -291.5 112.5zM652 791.5q63 76.5 63 254.5t-63 253.5t-181 75.5t-181 -75.5t-63 -253.5t63 -254.5t181 -76.5t181 76.5z" />
    <glyph glyph-name="guillemotright" unicode="&#xbb;" horiz-adv-x="1008" 
d="M72 137l255 426l-255 425h166l254 -425l-254 -426h-166zM476 137l255 426l-255 425h166l254 -425l-254 -426h-166z" />
    <glyph glyph-name="onequarter" unicode="&#xbc;" horiz-adv-x="1852" 
d="M503 731h218v-115h-581v115h229v728l-231 -162v127l279 196h86v-889zM460 -136l793 1752h139l-793 -1752h-139zM1827 204v-108h-138v-232h-120v232h-475v75l361 693h129l-341 -660h326l24 322h96v-322h138z" />
    <glyph glyph-name="onehalf" unicode="&#xbd;" horiz-adv-x="1852" 
d="M503 731h218v-115h-581v115h229v728l-231 -162v127l279 196h86v-889zM460 -136l793 1752h139l-793 -1752h-139zM1766 -21v-115h-612v73l293 373q75 94 106.5 158.5t31.5 124.5q0 89 -53.5 130t-164.5 41q-121 0 -226 -39v114q48 18 111.5 28t130.5 10q336 0 336 -271
q0 -80 -36.5 -158t-123.5 -187l-224 -282h431z" />
    <glyph glyph-name="threequarters" unicode="&#xbe;" horiz-adv-x="1852" 
d="M649 1051.5q56 -63.5 56 -163.5q0 -137 -97 -211t-284 -74q-134 0 -253 38v108q60 -19 124.5 -29t124.5 -10q129 0 193 47t64 139q0 179 -246 179h-135v108h84q129 0 195.5 46t66.5 132q0 79 -55.5 120t-165.5 41q-123 0 -227 -39v109q47 18 111.5 27.5t128.5 9.5
q164 0 251 -67t87 -190q0 -87 -49 -148t-136 -87q106 -22 162 -85.5zM460 -136l793 1752h139l-793 -1752h-139zM1827 204v-108h-138v-232h-120v232h-475v75l361 693h129l-341 -660h326l24 322h96v-322h138z" />
    <glyph glyph-name="questiondown" unicode="&#xbf;" horiz-adv-x="903" 
d="M581 1068.5q32 -29.5 32 -78.5t-31.5 -78.5t-83.5 -29.5t-84 30t-32 78t32 78t84 30q51 0 83 -29.5zM576 318q-135 -42 -213.5 -90.5t-112 -108t-33.5 -140.5q0 -119 82 -182.5t242 -63.5q170 0 323 56v-135q-70 -25 -159.5 -39.5t-177.5 -14.5q-227 0 -347.5 96.5
t-120.5 272.5q0 104 37.5 182.5t119.5 139.5t216 112l15 322h102z" />
    <glyph glyph-name="Agrave" unicode="&#xc0;" horiz-adv-x="1348" 
d="M1154 0l-169 479h-625l-169 -479h-163l531 1480h229l531 -1480h-165zM408 616h528l-264 746zM601 1608l-205 284h173l178 -284h-146z" />
    <glyph glyph-name="Aacute" unicode="&#xc1;" horiz-adv-x="1348" 
d="M1154 0l-169 479h-625l-169 -479h-163l531 1480h229l531 -1480h-165zM408 616h528l-264 746zM600 1608l178 284h173l-204 -284h-147z" />
    <glyph glyph-name="Acircumflex" unicode="&#xc2;" horiz-adv-x="1348" 
d="M1154 0l-169 479h-625l-169 -479h-163l531 1480h229l531 -1480h-165zM408 616h528l-264 746zM993 1608h-140l-179 214l-179 -214h-140l245 284h148z" />
    <glyph glyph-name="Atilde" unicode="&#xc3;" horiz-adv-x="1348" 
d="M1154 0l-169 479h-625l-169 -479h-163l531 1480h229l531 -1480h-165zM408 616h528l-264 746zM750.5 1678q-35.5 10 -91.5 30q-45 18 -77 27t-65 9q-53 0 -93 -17t-78 -54v111q63 65 173 65q43 0 80 -10.5t90 -30.5q45 -18 77 -27t64 -9q53 0 93 17t79 54v-110
q-32 -33 -74 -49t-100 -16q-42 0 -77.5 10z" />
    <glyph glyph-name="Adieresis" unicode="&#xc4;" horiz-adv-x="1348" 
d="M1154 0l-169 479h-625l-169 -479h-163l531 1480h229l531 -1480h-165zM408 616h528l-264 746zM364 1683.5q-27 24.5 -27 67.5q0 44 27.5 69.5t75.5 25.5t75 -25.5t27 -69.5q0 -43 -27 -67.5t-75 -24.5q-49 0 -76 24.5zM833 1683.5q-27 24.5 -27 67.5q0 44 27 69.5t75 25.5
t75.5 -25.5t27.5 -69.5q0 -43 -27 -67.5t-76 -24.5q-48 0 -75 24.5z" />
    <glyph glyph-name="Aring" unicode="&#xc5;" horiz-adv-x="1348" 
d="M985 479h-625l-169 -479h-163l531 1480h44q-56 20 -89 68.5t-33 112.5q0 55 25.5 99t70 69t100.5 25t100.5 -25t69.5 -69t25 -99q0 -64 -33 -112.5t-88 -68.5h37l531 -1480h-165zM592.5 1574q32.5 -32 84.5 -32t84 32t32 87q0 54 -32 86.5t-84 32.5t-84.5 -32.5
t-32.5 -86.5q0 -55 32.5 -87zM408 616h528l-264 746z" />
    <glyph glyph-name="AE" unicode="&#xc6;" horiz-adv-x="1846" 
d="M1091 138h683v-138h-834l-33 479h-542l-173 -479h-164l540 1480h1196v-138h-758l36 -514h625v-137h-615zM415 616h483l-50 726h-171z" />
    <glyph glyph-name="Ccedilla" unicode="&#xc7;" horiz-adv-x="1151" 
d="M509.5 1297q-114.5 -61 -174 -197t-59.5 -359q0 -229 60 -365.5t172 -195t279 -58.5q82 0 159.5 13t164.5 43v-142q-156 -55 -336 -55h-22v-83q85 -7 131.5 -46.5t46.5 -108.5q0 -77 -57.5 -118t-163.5 -41q-50 0 -100.5 9.5t-92.5 27.5v81q94 -39 187 -39q130 0 130 84
q0 85 -132 85h-41v155q-268 28 -412 208t-144 542q0 391 177 576.5t509 185.5q162 0 320 -43v-142q-153 44 -314 44q-173 0 -287.5 -61z" />
    <glyph glyph-name="Egrave" unicode="&#xc8;" horiz-adv-x="1166" 
d="M330 138h764v-138h-925v1480h915v-138h-754v-514h657v-137h-657v-553zM576 1608l-205 284h173l178 -284h-146z" />
    <glyph glyph-name="Eacute" unicode="&#xc9;" horiz-adv-x="1166" 
d="M330 138h764v-138h-925v1480h915v-138h-754v-514h657v-137h-657v-553zM575 1608l178 284h173l-204 -284h-147z" />
    <glyph glyph-name="Ecircumflex" unicode="&#xca;" horiz-adv-x="1166" 
d="M330 138h764v-138h-925v1480h915v-138h-754v-514h657v-137h-657v-553zM968 1608h-140l-179 214l-179 -214h-140l245 284h148z" />
    <glyph glyph-name="Edieresis" unicode="&#xcb;" horiz-adv-x="1166" 
d="M330 138h764v-138h-925v1480h915v-138h-754v-514h657v-137h-657v-553zM339 1683.5q-27 24.5 -27 67.5q0 44 27.5 69.5t75.5 25.5t75 -25.5t27 -69.5q0 -43 -27 -67.5t-75 -24.5q-49 0 -76 24.5zM808 1683.5q-27 24.5 -27 67.5q0 44 27 69.5t75 25.5t75.5 -25.5
t27.5 -69.5q0 -43 -27 -67.5t-76 -24.5q-48 0 -75 24.5z" />
    <glyph glyph-name="Igrave" unicode="&#xcc;" horiz-adv-x="500" 
d="M169 0v1480h162v-1480h-162zM177 1608l-205 284h173l178 -284h-146z" />
    <glyph glyph-name="Iacute" unicode="&#xcd;" horiz-adv-x="500" 
d="M169 0v1480h162v-1480h-162zM176 1608l178 284h173l-204 -284h-147z" />
    <glyph glyph-name="Icircumflex" unicode="&#xce;" horiz-adv-x="500" 
d="M169 0v1480h162v-1480h-162zM569 1608h-140l-179 214l-179 -214h-140l245 284h148z" />
    <glyph glyph-name="Idieresis" unicode="&#xcf;" horiz-adv-x="500" 
d="M169 0v1480h162v-1480h-162zM-60 1683.5q-27 24.5 -27 67.5q0 44 27.5 69.5t75.5 25.5t75 -25.5t27 -69.5q0 -43 -27 -67.5t-75 -24.5q-49 0 -76 24.5zM409 1683.5q-27 24.5 -27 67.5q0 44 27 69.5t75 25.5t75.5 -25.5t27.5 -69.5q0 -43 -27 -67.5t-76 -24.5
q-48 0 -75 24.5z" />
    <glyph glyph-name="Eth" unicode="&#xd0;" horiz-adv-x="1400" 
d="M1109 1308.5q185 -186.5 185 -568.5q0 -387 -192.5 -569.5t-581.5 -182.5q-166 0 -351 21v696h-166v114h166v637q92 18 193 28.5t194 10.5q368 0 553 -186.5zM873 190q127 63 190.5 198.5t63.5 351.5q0 320 -139 468t-427 148q-105 0 -230 -19v-518h331v-114h-331v-565
q100 -13 221 -13q194 0 321 63z" />
    <glyph glyph-name="Ntilde" unicode="&#xd1;" horiz-adv-x="1469" 
d="M1146 1480h154v-1480h-167l-810 1232v-1232h-154v1480h167l810 -1232v1232zM811.5 1678q-35.5 10 -91.5 30q-45 18 -77 27t-65 9q-53 0 -93 -17t-78 -54v111q63 65 173 65q43 0 80 -10.5t90 -30.5q45 -18 77 -27t64 -9q53 0 93 17t79 54v-110q-32 -33 -74 -49t-100 -16
q-42 0 -77.5 10z" />
    <glyph glyph-name="Ograve" unicode="&#xd2;" horiz-adv-x="1439" 
d="M267.5 167q-162.5 186 -162.5 573q0 261 75.5 430t213 249t325.5 80q289 0 451.5 -186t162.5 -573q0 -260 -75.5 -429.5t-212.5 -249.5t-326 -80q-289 0 -451.5 186zM1049 265.5q116 144.5 116 469.5q0 332 -116 478t-330 146q-213 0 -329.5 -144.5t-116.5 -469.5
q0 -332 116 -478t330 -146t330 144.5zM646 1608l-205 284h173l178 -284h-146z" />
    <glyph glyph-name="Oacute" unicode="&#xd3;" horiz-adv-x="1439" 
d="M267.5 167q-162.5 186 -162.5 573q0 261 75.5 430t213 249t325.5 80q289 0 451.5 -186t162.5 -573q0 -260 -75.5 -429.5t-212.5 -249.5t-326 -80q-289 0 -451.5 186zM1049 265.5q116 144.5 116 469.5q0 332 -116 478t-330 146q-213 0 -329.5 -144.5t-116.5 -469.5
q0 -332 116 -478t330 -146t330 144.5zM645 1608l178 284h173l-204 -284h-147z" />
    <glyph glyph-name="Ocircumflex" unicode="&#xd4;" horiz-adv-x="1439" 
d="M267.5 167q-162.5 186 -162.5 573q0 261 75.5 430t213 249t325.5 80q289 0 451.5 -186t162.5 -573q0 -260 -75.5 -429.5t-212.5 -249.5t-326 -80q-289 0 -451.5 186zM1049 265.5q116 144.5 116 469.5q0 332 -116 478t-330 146q-213 0 -329.5 -144.5t-116.5 -469.5
q0 -332 116 -478t330 -146t330 144.5zM1038 1608h-140l-179 214l-179 -214h-140l245 284h148z" />
    <glyph glyph-name="Otilde" unicode="&#xd5;" horiz-adv-x="1439" 
d="M267.5 167q-162.5 186 -162.5 573q0 261 75.5 430t213 249t325.5 80q289 0 451.5 -186t162.5 -573q0 -260 -75.5 -429.5t-212.5 -249.5t-326 -80q-289 0 -451.5 186zM1049 265.5q116 144.5 116 469.5q0 332 -116 478t-330 146q-213 0 -329.5 -144.5t-116.5 -469.5
q0 -332 116 -478t330 -146t330 144.5zM795.5 1678q-35.5 10 -91.5 30q-45 18 -77 27t-65 9q-53 0 -93 -17t-78 -54v111q63 65 173 65q43 0 80 -10.5t90 -30.5q45 -18 77 -27t64 -9q53 0 93 17t79 54v-110q-32 -33 -74 -49t-100 -16q-42 0 -77.5 10z" />
    <glyph glyph-name="Odieresis" unicode="&#xd6;" horiz-adv-x="1439" 
d="M267.5 167q-162.5 186 -162.5 573q0 261 75.5 430t213 249t325.5 80q289 0 451.5 -186t162.5 -573q0 -260 -75.5 -429.5t-212.5 -249.5t-326 -80q-289 0 -451.5 186zM1049 265.5q116 144.5 116 469.5q0 332 -116 478t-330 146q-213 0 -329.5 -144.5t-116.5 -469.5
q0 -332 116 -478t330 -146t330 144.5zM409 1683.5q-27 24.5 -27 67.5q0 44 27.5 69.5t75.5 25.5t75 -25.5t27 -69.5q0 -43 -27 -67.5t-75 -24.5q-49 0 -76 24.5zM878 1683.5q-27 24.5 -27 67.5q0 44 27 69.5t75 25.5t75.5 -25.5t27.5 -69.5q0 -43 -27 -67.5t-76 -24.5
q-48 0 -75 24.5z" />
    <glyph glyph-name="multiply" unicode="&#xd7;" horiz-adv-x="999" 
d="M209 378l-91 91l290 291l-290 291l91 91l291 -291l290 291l91 -91l-290 -291l290 -291l-91 -91l-290 291z" />
    <glyph glyph-name="Oslash" unicode="&#xd8;" horiz-adv-x="1439" 
d="M1333 740q0 -260 -75.5 -429.5t-212.5 -249.5t-326 -80q-250 0 -401 134l-106 -143l-82 61l118 159q-143 193 -143 548q0 261 75.5 430t213 249t325.5 80q250 0 400 -134l106 143l82 -61l-118 -158q144 -193 144 -549zM350 330l676 910q-109 119 -307 119
q-213 0 -329.5 -144.5t-116.5 -469.5q0 -266 77 -415zM1049 265.5q116 144.5 116 469.5q0 265 -78 416l-676 -911q109 -119 308 -119q214 0 330 144.5z" />
    <glyph glyph-name="Ugrave" unicode="&#xd9;" horiz-adv-x="1417" 
d="M400 43q-121 62 -179.5 189.5t-58.5 327.5v920h162v-938q0 -219 93 -320t293 -101t293 101t93 320v938h159v-920q0 -200 -58 -327.5t-178 -189.5t-309 -62t-310 62zM637 1608l-205 284h173l178 -284h-146z" />
    <glyph glyph-name="Uacute" unicode="&#xda;" horiz-adv-x="1417" 
d="M400 43q-121 62 -179.5 189.5t-58.5 327.5v920h162v-938q0 -219 93 -320t293 -101t293 101t93 320v938h159v-920q0 -200 -58 -327.5t-178 -189.5t-309 -62t-310 62zM636 1608l178 284h173l-204 -284h-147z" />
    <glyph glyph-name="Ucircumflex" unicode="&#xdb;" horiz-adv-x="1417" 
d="M400 43q-121 62 -179.5 189.5t-58.5 327.5v920h162v-938q0 -219 93 -320t293 -101t293 101t93 320v938h159v-920q0 -200 -58 -327.5t-178 -189.5t-309 -62t-310 62zM1029 1608h-140l-179 214l-179 -214h-140l245 284h148z" />
    <glyph glyph-name="Udieresis" unicode="&#xdc;" horiz-adv-x="1417" 
d="M400 43q-121 62 -179.5 189.5t-58.5 327.5v920h162v-938q0 -219 93 -320t293 -101t293 101t93 320v938h159v-920q0 -200 -58 -327.5t-178 -189.5t-309 -62t-310 62zM400 1683.5q-27 24.5 -27 67.5q0 44 27.5 69.5t75.5 25.5t75 -25.5t27 -69.5q0 -43 -27 -67.5t-75 -24.5
q-49 0 -76 24.5zM869 1683.5q-27 24.5 -27 67.5q0 44 27 69.5t75 25.5t75.5 -25.5t27.5 -69.5q0 -43 -27 -67.5t-76 -24.5q-48 0 -75 24.5z" />
    <glyph glyph-name="Yacute" unicode="&#xdd;" horiz-adv-x="1175" 
d="M1197 1480l-528 -822v-658h-162v658l-538 822h179l443 -679l438 679h168zM514 1608l178 284h173l-204 -284h-147z" />
    <glyph glyph-name="Thorn" unicode="&#xde;" horiz-adv-x="1243" 
d="M169 1481h162v-233q110 17 220 17q296 0 444 -123t148 -381q0 -251 -151.5 -378.5t-464.5 -127.5q-92 0 -196 9v-264h-162v1481zM874 477q108 90 108 281q0 195 -103.5 285t-318.5 90q-124 0 -229 -18v-716q85 -12 198 -12q237 0 345 90z" />
    <glyph glyph-name="germandbls" unicode="&#xdf;" horiz-adv-x="1389" 
d="M1255 492q66 -70 66 -193q0 -150 -110 -234t-318 -84q-162 0 -295 40v130q146 -42 295 -42q142 0 208 46.5t66 135.5q0 74 -38 113t-129 59l-147 30q-145 30 -210 102.5t-65 190.5q0 94 47 163.5t141.5 108.5t234.5 39q17 0 61 -2q6 45 6 88q0 174 -88 252t-240 78
q-177 0 -267 -97t-90 -308v-1108h-160v950h-205v135h205v26q0 258 133 391.5t376 133.5q137 0 240.5 -48.5t162 -152t58.5 -262.5q0 -51 -8 -108.5t-20 -103.5q-74 13 -148 13q-151 0 -218.5 -49.5t-67.5 -132.5q0 -67 37.5 -108t124.5 -60l147 -30q149 -32 215 -102z" />
    <glyph glyph-name="agrave" unicode="&#xe0;" horiz-adv-x="1029" 
d="M707 1065q91 -37 137 -123t46 -231v-711h-134l-12 121h-11q-52 -66 -134.5 -102.5t-178.5 -36.5q-101 0 -175 35.5t-113.5 102.5t-39.5 158q0 144 94 222.5t299 98.5l248 27v93q0 97 -30.5 152t-91 77.5t-158.5 22.5q-67 0 -143.5 -12t-149.5 -37v132q67 23 152 35.5
t162 12.5q142 0 233 -37zM608 138q71 32 125 100v280l-237 -26q-127 -13 -184.5 -62t-57.5 -137q0 -92 52 -139.5t154 -47.5q77 0 148 32zM437 1253l-241 363h173l216 -363h-148z" />
    <glyph glyph-name="aacute" unicode="&#xe1;" horiz-adv-x="1029" 
d="M707 1065q91 -37 137 -123t46 -231v-711h-134l-12 121h-11q-52 -66 -134.5 -102.5t-178.5 -36.5q-101 0 -175 35.5t-113.5 102.5t-39.5 158q0 144 94 222.5t299 98.5l248 27v93q0 97 -30.5 152t-91 77.5t-158.5 22.5q-67 0 -143.5 -12t-149.5 -37v132q67 23 152 35.5
t162 12.5q142 0 233 -37zM608 138q71 32 125 100v280l-237 -26q-127 -13 -184.5 -62t-57.5 -137q0 -92 52 -139.5t154 -47.5q77 0 148 32zM437 1253l216 363h173l-241 -363h-148z" />
    <glyph glyph-name="acircumflex" unicode="&#xe2;" horiz-adv-x="1029" 
d="M707 1065q91 -37 137 -123t46 -231v-711h-134l-12 121h-11q-52 -66 -134.5 -102.5t-178.5 -36.5q-101 0 -175 35.5t-113.5 102.5t-39.5 158q0 144 94 222.5t299 98.5l248 27v93q0 97 -30.5 152t-91 77.5t-158.5 22.5q-67 0 -143.5 -12t-149.5 -37v132q67 23 152 35.5
t162 12.5q142 0 233 -37zM608 138q71 32 125 100v280l-237 -26q-127 -13 -184.5 -62t-57.5 -137q0 -92 52 -139.5t154 -47.5q77 0 148 32zM806 1253h-128l-167 280l-167 -280h-129l224 363h144z" />
    <glyph glyph-name="atilde" unicode="&#xe3;" horiz-adv-x="1029" 
d="M707 1065q91 -37 137 -123t46 -231v-711h-134l-12 121h-11q-52 -66 -134.5 -102.5t-178.5 -36.5q-101 0 -175 35.5t-113.5 102.5t-39.5 158q0 144 94 222.5t299 98.5l248 27v93q0 97 -30.5 152t-91 77.5t-158.5 22.5q-67 0 -143.5 -12t-149.5 -37v132q67 23 152 35.5
t162 12.5q142 0 233 -37zM608 138q71 32 125 100v280l-237 -26q-127 -13 -184.5 -62t-57.5 -137q0 -92 52 -139.5t154 -47.5q77 0 148 32zM582.5 1355.5q-33.5 10.5 -87.5 33.5q-41 19 -70.5 28.5t-58.5 9.5q-49 0 -88 -18t-77 -58v116q62 67 167 67q38 0 71.5 -10.5
t87.5 -33.5q41 -19 70.5 -28.5t58.5 -9.5q48 0 87.5 18.5t77.5 57.5v-116q-64 -67 -167 -67q-38 0 -71.5 10.5z" />
    <glyph glyph-name="adieresis" unicode="&#xe4;" horiz-adv-x="1029" 
d="M707 1065q91 -37 137 -123t46 -231v-711h-134l-12 121h-11q-52 -66 -134.5 -102.5t-178.5 -36.5q-101 0 -175 35.5t-113.5 102.5t-39.5 158q0 144 94 222.5t299 98.5l248 27v93q0 97 -30.5 152t-91 77.5t-158.5 22.5q-67 0 -143.5 -12t-149.5 -37v132q67 23 152 35.5
t162 12.5q142 0 233 -37zM608 138q71 32 125 100v280l-237 -26q-127 -13 -184.5 -62t-57.5 -137q0 -92 52 -139.5t154 -47.5q77 0 148 32zM218.5 1348.5q-27.5 26.5 -27.5 72.5t27.5 73t75.5 27q47 0 74.5 -27t27.5 -73t-27.5 -72.5t-74.5 -26.5q-48 0 -75.5 26.5z
M653.5 1348.5q-27.5 26.5 -27.5 72.5t27.5 73t74.5 27q48 0 75.5 -27t27.5 -73t-27.5 -72.5t-75.5 -26.5q-47 0 -74.5 26.5z" />
    <glyph glyph-name="aring" unicode="&#xe5;" horiz-adv-x="1029" 
d="M707 1065q91 -37 137 -123t46 -231v-711h-134l-12 121h-11q-52 -66 -134.5 -102.5t-178.5 -36.5q-101 0 -175 35.5t-113.5 102.5t-39.5 158q0 144 94 222.5t299 98.5l248 27v93q0 97 -30.5 152t-91 77.5t-158.5 22.5q-67 0 -143.5 -12t-149.5 -37v132q67 23 152 35.5
t162 12.5q142 0 233 -37zM608 138q71 32 125 100v280l-237 -26q-127 -13 -184.5 -62t-57.5 -137q0 -92 52 -139.5t154 -47.5q77 0 148 32zM410.5 1273q-44.5 25 -70 69t-25.5 99t25.5 99.5t70 69.5t100.5 25t100.5 -25t69.5 -69.5t25 -99.5t-25 -99t-69.5 -69t-100.5 -25
t-100.5 25zM595 1354.5q32 32.5 32 86.5q0 55 -32 87t-84 32t-84.5 -32t-32.5 -87q0 -54 32.5 -86.5t84.5 -32.5t84 32.5z" />
    <glyph glyph-name="ae" unicode="&#xe6;" horiz-adv-x="1655" 
d="M1577 489h-687q4 -137 45 -219.5t119.5 -120t200.5 -37.5q119 0 268 44v-131q-146 -44 -286 -44q-151 0 -256 47t-165 145q-84 -103 -179.5 -147t-204.5 -44q-105 0 -182 35t-117.5 102t-40.5 159q0 149 101 235t317 86h224v121q0 97 -31 151.5t-92 77t-158 22.5
q-67 0 -143 -12t-149 -37v132q69 23 150 35.5t158 12.5q144 0 234 -43t131 -138q52 91 136 136t196 45q197 0 304 -139t107 -422v-52zM962.5 895.5q-68.5 -90.5 -72.5 -296.5h533q-4 208 -70.5 297.5t-192.5 89.5q-129 0 -197.5 -90.5zM628.5 146.5q78.5 40.5 139.5 132.5
q-29 98 -33 213h-217q-264 0 -264 -200q0 -91 53 -138.5t156 -47.5q87 0 165.5 40.5z" />
    <glyph glyph-name="ccedilla" unicode="&#xe7;" horiz-adv-x="875" 
d="M422.5 924q-81.5 -41 -122 -133t-40.5 -245q0 -155 37.5 -249.5t111.5 -137t188 -42.5q105 0 240 45v-136q-127 -45 -263 -45h-6v-85q76 -9 115.5 -49t39.5 -106q0 -74 -53 -115.5t-152 -41.5q-45 0 -90.5 9.5t-78.5 25.5v81q75 -37 166 -37q57 0 84.5 20.5t27.5 62.5
q0 86 -114 86h-37v155q-188 26 -285 162t-97 393q0 289 131.5 424.5t388.5 135.5q121 0 223 -28v-136q-107 27 -205 27q-128 0 -209.5 -41z" />
    <glyph glyph-name="egrave" unicode="&#xe8;" horiz-adv-x="1030" 
d="M951 489h-695q4 -137 45.5 -220t121.5 -120t204 -37q118 0 270 44v-131q-148 -44 -289 -44q-259 0 -386.5 134t-127.5 428q0 279 115.5 419t323.5 140q203 0 310.5 -139.5t107.5 -423.5v-50zM330 895q-70 -90 -74 -296h541q-4 207 -70.5 296.5t-195.5 89.5
q-131 0 -201 -90zM457 1253l-241 363h173l216 -363h-148z" />
    <glyph glyph-name="eacute" unicode="&#xe9;" horiz-adv-x="1030" 
d="M951 489h-695q4 -137 45.5 -220t121.5 -120t204 -37q118 0 270 44v-131q-148 -44 -289 -44q-259 0 -386.5 134t-127.5 428q0 279 115.5 419t323.5 140q203 0 310.5 -139.5t107.5 -423.5v-50zM330 895q-70 -90 -74 -296h541q-4 207 -70.5 296.5t-195.5 89.5
q-131 0 -201 -90zM457 1253l216 363h173l-241 -363h-148z" />
    <glyph glyph-name="ecircumflex" unicode="&#xea;" horiz-adv-x="1030" 
d="M951 489h-695q4 -137 45.5 -220t121.5 -120t204 -37q118 0 270 44v-131q-148 -44 -289 -44q-259 0 -386.5 134t-127.5 428q0 279 115.5 419t323.5 140q203 0 310.5 -139.5t107.5 -423.5v-50zM330 895q-70 -90 -74 -296h541q-4 207 -70.5 296.5t-195.5 89.5
q-131 0 -201 -90zM826 1253h-128l-167 280l-167 -280h-129l224 363h144z" />
    <glyph glyph-name="edieresis" unicode="&#xeb;" horiz-adv-x="1030" 
d="M951 489h-695q4 -137 45.5 -220t121.5 -120t204 -37q118 0 270 44v-131q-148 -44 -289 -44q-259 0 -386.5 134t-127.5 428q0 279 115.5 419t323.5 140q203 0 310.5 -139.5t107.5 -423.5v-50zM330 895q-70 -90 -74 -296h541q-4 207 -70.5 296.5t-195.5 89.5
q-131 0 -201 -90zM238.5 1348.5q-27.5 26.5 -27.5 72.5t27.5 73t75.5 27q47 0 74.5 -27t27.5 -73t-27.5 -72.5t-74.5 -26.5q-48 0 -75.5 26.5zM673.5 1348.5q-27.5 26.5 -27.5 72.5t27.5 73t74.5 27q48 0 75.5 -27t27.5 -73t-27.5 -72.5t-75.5 -26.5q-47 0 -74.5 26.5z" />
    <glyph glyph-name="igrave" unicode="&#xec;" horiz-adv-x="463" 
d="M151 0v1085h160v-1085h-160zM157 1253l-241 363h173l216 -363h-148z" />
    <glyph glyph-name="iacute" unicode="&#xed;" horiz-adv-x="463" 
d="M151 0v1085h160v-1085h-160zM157 1253l216 363h173l-241 -363h-148z" />
    <glyph glyph-name="icircumflex" unicode="&#xee;" horiz-adv-x="463" 
d="M151 0v1085h160v-1085h-160zM526 1253h-128l-167 280l-167 -280h-129l224 363h144z" />
    <glyph glyph-name="idieresis" unicode="&#xef;" horiz-adv-x="463" 
d="M151 0v1085h160v-1085h-160zM-61.5 1348.5q-27.5 26.5 -27.5 72.5t27.5 73t75.5 27q47 0 74.5 -27t27.5 -73t-27.5 -72.5t-74.5 -26.5q-48 0 -75.5 26.5zM373.5 1348.5q-27.5 26.5 -27.5 72.5t27.5 73t74.5 27q48 0 75.5 -27t27.5 -73t-27.5 -72.5t-75.5 -26.5
q-47 0 -74.5 26.5z" />
    <glyph glyph-name="eth" unicode="&#xf0;" horiz-adv-x="1111" 
d="M953.5 964q63.5 -193 62.5 -381q0 -306 -120.5 -454.5t-338.5 -148.5q-220 0 -341.5 137.5t-121.5 423.5q0 284 119.5 421t331.5 137q135 0 227 -70q-55 140 -146 267l-422 -72l-18 100l368 63q-107 124 -247 229h198q113 -84 207 -202l261 44l19 -100l-213 -36
q111 -165 174.5 -358zM776 212.5q77 101.5 77 325.5q0 235 -76 334t-222 99t-222 -98.5t-76 -329.5q0 -234 76.5 -333t223.5 -99q142 0 219 101.5z" />
    <glyph glyph-name="ntilde" unicode="&#xf1;" horiz-adv-x="1137" 
d="M151 1085h135l11 -123h11q67 68 154.5 104t186.5 36q163 0 255.5 -91.5t92.5 -293.5v-717h-160v710q0 133 -58.5 191t-168.5 58q-81 0 -162 -35t-137 -109v-815h-160v1085zM646.5 1355.5q-33.5 10.5 -87.5 33.5q-41 19 -70.5 28.5t-58.5 9.5q-49 0 -88 -18t-77 -58v116
q62 67 167 67q38 0 71.5 -10.5t87.5 -33.5q41 -19 70.5 -28.5t58.5 -9.5q48 0 87.5 18.5t77.5 57.5v-116q-64 -67 -167 -67q-38 0 -71.5 10.5z" />
    <glyph glyph-name="ograve" unicode="&#xf2;" horiz-adv-x="1111" 
d="M215.5 118.5q-121.5 137.5 -121.5 422.5t121 423t340 138q220 0 341 -137t121 -423q0 -284 -122 -422.5t-340 -138.5t-339.5 137.5zM777 209.5q76 98.5 76 329.5q0 235 -76 333.5t-222 98.5q-145 0 -221.5 -98t-76.5 -329q0 -234 76 -333.5t222 -99.5t222 98.5zM481 1253
l-241 363h173l216 -363h-148z" />
    <glyph glyph-name="oacute" unicode="&#xf3;" horiz-adv-x="1111" 
d="M215.5 118.5q-121.5 137.5 -121.5 422.5t121 423t340 138q220 0 341 -137t121 -423q0 -284 -122 -422.5t-340 -138.5t-339.5 137.5zM777 209.5q76 98.5 76 329.5q0 235 -76 333.5t-222 98.5q-145 0 -221.5 -98t-76.5 -329q0 -234 76 -333.5t222 -99.5t222 98.5zM481 1253
l216 363h173l-241 -363h-148z" />
    <glyph glyph-name="ocircumflex" unicode="&#xf4;" horiz-adv-x="1111" 
d="M215.5 118.5q-121.5 137.5 -121.5 422.5t121 423t340 138q220 0 341 -137t121 -423q0 -284 -122 -422.5t-340 -138.5t-339.5 137.5zM777 209.5q76 98.5 76 329.5q0 235 -76 333.5t-222 98.5q-145 0 -221.5 -98t-76.5 -329q0 -234 76 -333.5t222 -99.5t222 98.5zM850 1253
h-128l-167 280l-167 -280h-129l224 363h144z" />
    <glyph glyph-name="otilde" unicode="&#xf5;" horiz-adv-x="1111" 
d="M215.5 118.5q-121.5 137.5 -121.5 422.5t121 423t340 138q220 0 341 -137t121 -423q0 -284 -122 -422.5t-340 -138.5t-339.5 137.5zM777 209.5q76 98.5 76 329.5q0 235 -76 333.5t-222 98.5q-145 0 -221.5 -98t-76.5 -329q0 -234 76 -333.5t222 -99.5t222 98.5z
M626.5 1355.5q-33.5 10.5 -87.5 33.5q-41 19 -70.5 28.5t-58.5 9.5q-49 0 -88 -18t-77 -58v116q62 67 167 67q38 0 71.5 -10.5t87.5 -33.5q41 -19 70.5 -28.5t58.5 -9.5q48 0 87.5 18.5t77.5 57.5v-116q-64 -67 -167 -67q-38 0 -71.5 10.5z" />
    <glyph glyph-name="odieresis" unicode="&#xf6;" horiz-adv-x="1111" 
d="M215.5 118.5q-121.5 137.5 -121.5 422.5t121 423t340 138q220 0 341 -137t121 -423q0 -284 -122 -422.5t-340 -138.5t-339.5 137.5zM777 209.5q76 98.5 76 329.5q0 235 -76 333.5t-222 98.5q-145 0 -221.5 -98t-76.5 -329q0 -234 76 -333.5t222 -99.5t222 98.5z
M262.5 1348.5q-27.5 26.5 -27.5 72.5t27.5 73t75.5 27q47 0 74.5 -27t27.5 -73t-27.5 -72.5t-74.5 -26.5q-48 0 -75.5 26.5zM697.5 1348.5q-27.5 26.5 -27.5 72.5t27.5 73t74.5 27q48 0 75.5 -27t27.5 -73t-27.5 -72.5t-75.5 -26.5q-47 0 -74.5 26.5z" />
    <glyph glyph-name="divide" unicode="&#xf7;" horiz-adv-x="1075" 
d="M459 1039q-30 28 -30 76t30 77t79 29t78.5 -29.5t29.5 -76.5t-30 -75.5t-78 -28.5q-49 0 -79 28zM149 695v130h777v-130h-777zM459 327q-30 28 -30 76t30 77t79 29t78.5 -29.5t29.5 -76.5t-30 -75.5t-78 -28.5q-49 0 -79 28z" />
    <glyph glyph-name="oslash" unicode="&#xf8;" horiz-adv-x="1111" 
d="M1017 542q0 -284 -122 -422.5t-340 -138.5q-172 0 -281 83l-68 -95l-80 58l77 108q-109 142 -109 406q0 285 121 423t340 138q170 0 280 -80l68 94l80 -58l-76 -107q110 -141 110 -409zM331 874.5q-77 -98.5 -77 -330.5q0 -180 46 -281l456 639q-71 71 -201 71
q-147 0 -224 -98.5zM780 208.5q77 98.5 77 330.5q0 180 -48 284l-456 -640q72 -73 202 -73q148 0 225 98.5z" />
    <glyph glyph-name="ugrave" unicode="&#xf9;" horiz-adv-x="1127" 
d="M231.5 73q-92.5 91 -92.5 291v721h160v-713q0 -132 58.5 -189.5t163.5 -57.5q80 0 160.5 36t134.5 108v816h160v-1085h-135l-12 119h-10q-67 -68 -152.5 -102.5t-181.5 -34.5q-161 0 -253.5 91zM484 1253l-241 363h173l216 -363h-148z" />
    <glyph glyph-name="uacute" unicode="&#xfa;" horiz-adv-x="1127" 
d="M231.5 73q-92.5 91 -92.5 291v721h160v-713q0 -132 58.5 -189.5t163.5 -57.5q80 0 160.5 36t134.5 108v816h160v-1085h-135l-12 119h-10q-67 -68 -152.5 -102.5t-181.5 -34.5q-161 0 -253.5 91zM484 1253l216 363h173l-241 -363h-148z" />
    <glyph glyph-name="ucircumflex" unicode="&#xfb;" horiz-adv-x="1127" 
d="M231.5 73q-92.5 91 -92.5 291v721h160v-713q0 -132 58.5 -189.5t163.5 -57.5q80 0 160.5 36t134.5 108v816h160v-1085h-135l-12 119h-10q-67 -68 -152.5 -102.5t-181.5 -34.5q-161 0 -253.5 91zM853 1253h-128l-167 280l-167 -280h-129l224 363h144z" />
    <glyph glyph-name="udieresis" unicode="&#xfc;" horiz-adv-x="1127" 
d="M231.5 73q-92.5 91 -92.5 291v721h160v-713q0 -132 58.5 -189.5t163.5 -57.5q80 0 160.5 36t134.5 108v816h160v-1085h-135l-12 119h-10q-67 -68 -152.5 -102.5t-181.5 -34.5q-161 0 -253.5 91zM265.5 1348.5q-27.5 26.5 -27.5 72.5t27.5 73t75.5 27q47 0 74.5 -27
t27.5 -73t-27.5 -72.5t-74.5 -26.5q-48 0 -75.5 26.5zM700.5 1348.5q-27.5 26.5 -27.5 72.5t27.5 73t74.5 27q48 0 75.5 -27t27.5 -73t-27.5 -72.5t-75.5 -26.5q-47 0 -74.5 26.5z" />
    <glyph glyph-name="yacute" unicode="&#xfd;" horiz-adv-x="1057" 
d="M880 1085h161l-576 -1525h-160l167 440h-47l-409 1085h170l344 -951zM456 1253l216 363h173l-241 -363h-148z" />
    <glyph glyph-name="thorn" unicode="&#xfe;" horiz-adv-x="1129" 
d="M151 1616h160v-645h10q52 61 128 96t172 35q119 0 212 -54.5t147.5 -175t54.5 -309.5q0 -292 -138 -437t-410 -145q-72 0 -176 14v-435h-160v2056zM777.5 215.5q94.5 103.5 94.5 332.5q0 228 -79 322t-220 94q-77 0 -146.5 -33t-115.5 -98v-702q38 -8 86 -13.5t93 -5.5
q193 0 287.5 103.5z" />
    <glyph glyph-name="ydieresis" unicode="&#xff;" horiz-adv-x="1057" 
d="M880 1085h161l-576 -1525h-160l167 440h-47l-409 1085h170l344 -951zM237.5 1348.5q-27.5 26.5 -27.5 72.5t27.5 73t75.5 27q47 0 74.5 -27t27.5 -73t-27.5 -72.5t-74.5 -26.5q-48 0 -75.5 26.5zM672.5 1348.5q-27.5 26.5 -27.5 72.5t27.5 73t74.5 27q48 0 75.5 -27
t27.5 -73t-27.5 -72.5t-75.5 -26.5q-47 0 -74.5 26.5z" />
    <glyph glyph-name="Amacron" unicode="&#x100;" horiz-adv-x="1348" 
d="M1154 0l-169 479h-625l-169 -479h-163l531 1480h229l531 -1480h-165zM408 616h528l-264 746zM368 1696v109h612v-109h-612z" />
    <glyph glyph-name="amacron" unicode="&#x101;" horiz-adv-x="1029" 
d="M707 1065q91 -37 137 -123t46 -231v-711h-134l-12 121h-11q-52 -66 -134.5 -102.5t-178.5 -36.5q-101 0 -175 35.5t-113.5 102.5t-39.5 158q0 144 94 222.5t299 98.5l248 27v93q0 97 -30.5 152t-91 77.5t-158.5 22.5q-67 0 -143.5 -12t-149.5 -37v132q67 23 152 35.5
t162 12.5q142 0 233 -37zM608 138q71 32 125 100v280l-237 -26q-127 -13 -184.5 -62t-57.5 -137q0 -92 52 -139.5t154 -47.5q77 0 148 32zM201 1368v108h620v-108h-620z" />
    <glyph glyph-name="Abreve" unicode="&#x102;" horiz-adv-x="1348" 
d="M1154 0l-169 479h-625l-169 -479h-163l531 1480h229l531 -1480h-165zM408 616h528l-264 746zM448 1684.5q-81 67.5 -93 186.5h108q12 -81 61.5 -120t150.5 -39t150 39t59 120h109q-12 -120 -91.5 -187t-226.5 -67q-146 0 -227 67.5z" />
    <glyph glyph-name="abreve" unicode="&#x103;" horiz-adv-x="1029" 
d="M707 1065q91 -37 137 -123t46 -231v-711h-134l-12 121h-11q-52 -66 -134.5 -102.5t-178.5 -36.5q-101 0 -175 35.5t-113.5 102.5t-39.5 158q0 144 94 222.5t299 98.5l248 27v93q0 97 -30.5 152t-91 77.5t-158.5 22.5q-67 0 -143.5 -12t-149.5 -37v132q67 23 152 35.5
t162 12.5q142 0 233 -37zM608 138q71 32 125 100v280l-237 -26q-127 -13 -184.5 -62t-57.5 -137q0 -92 52 -139.5t154 -47.5q77 0 148 32zM296.5 1349q-78.5 85 -85.5 241h108q8 -115 55 -173t138 -58t137.5 58t53.5 173h107q-6 -157 -83.5 -241.5t-214.5 -84.5t-215.5 85z
" />
    <glyph glyph-name="Aogonek" unicode="&#x104;" horiz-adv-x="1348" 
d="M1330.5 -327.5q37.5 8.5 86.5 28.5v-80q-85 -37 -174 -37q-114 0 -174.5 48t-60.5 136q0 68 36 124.5t119 107.5h-9l-169 479h-625l-169 -479h-163l531 1480h229l531 -1480q-117 -55 -163 -107.5t-46 -115.5q0 -55 37 -84t110 -29q36 0 73.5 8.5zM408 616h528l-264 746z
" />
    <glyph glyph-name="aogonek" unicode="&#x105;" horiz-adv-x="1029" 
d="M972 -296v-81q-34 -18 -75 -28.5t-83 -10.5q-102 0 -158.5 49t-56.5 135q0 70 37 129t119 111l-11 113h-11q-52 -66 -134.5 -102.5t-178.5 -36.5q-101 0 -175 35.5t-113.5 102.5t-39.5 158q0 144 94 222.5t299 98.5l248 27v93q0 97 -30.5 152t-91 77.5t-158.5 22.5
q-67 0 -143.5 -12t-149.5 -37v132q67 23 152 35.5t162 12.5q142 0 233 -37t137 -123t46 -231v-711q-102 -54 -145.5 -107t-43.5 -116q0 -53 33.5 -83t93.5 -30q71 0 144 40zM608 138q71 32 125 100v280l-237 -26q-127 -13 -184.5 -62t-57.5 -137q0 -92 52 -139.5t154 -47.5
q77 0 148 32z" />
    <glyph glyph-name="Cacute" unicode="&#x106;" horiz-adv-x="1151" 
d="M279 159.5q-174 178.5 -174 577.5q0 391 177 576.5t509 185.5q162 0 320 -43v-142q-153 44 -314 44q-173 0 -287.5 -61t-174 -197t-59.5 -359q0 -229 60 -365.5t172 -195t279 -58.5q82 0 159.5 13t164.5 43v-142q-156 -55 -336 -55q-322 0 -496 178.5zM628 1608l178 284
h173l-204 -284h-147z" />
    <glyph glyph-name="cacute" unicode="&#x107;" horiz-adv-x="875" 
d="M216 117q-122 136 -122 425t131.5 424.5t388.5 135.5q121 0 223 -28v-136q-107 27 -205 27q-128 0 -209.5 -41t-122 -133t-40.5 -245q0 -155 37.5 -249.5t111.5 -137t188 -42.5q105 0 240 45v-136q-127 -45 -263 -45q-236 0 -358 136zM439 1253l216 363h173l-241 -363
h-148z" />
    <glyph glyph-name="Ccircumflex" unicode="&#x108;" horiz-adv-x="1151" 
d="M279 159.5q-174 178.5 -174 577.5q0 391 177 576.5t509 185.5q162 0 320 -43v-142q-153 44 -314 44q-173 0 -287.5 -61t-174 -197t-59.5 -359q0 -229 60 -365.5t172 -195t279 -58.5q82 0 159.5 13t164.5 43v-142q-156 -55 -336 -55q-322 0 -496 178.5zM1021 1608h-140
l-179 214l-179 -214h-140l245 284h148z" />
    <glyph glyph-name="ccircumflex" unicode="&#x109;" horiz-adv-x="875" 
d="M216 117q-122 136 -122 425t131.5 424.5t388.5 135.5q121 0 223 -28v-136q-107 27 -205 27q-128 0 -209.5 -41t-122 -133t-40.5 -245q0 -155 37.5 -249.5t111.5 -137t188 -42.5q105 0 240 45v-136q-127 -45 -263 -45q-236 0 -358 136zM808 1253h-128l-167 280l-167 -280
h-129l224 363h144z" />
    <glyph glyph-name="Cdotaccent" unicode="&#x10a;" horiz-adv-x="1151" 
d="M279 159.5q-174 178.5 -174 577.5q0 391 177 576.5t509 185.5q162 0 320 -43v-142q-153 44 -314 44q-173 0 -287.5 -61t-174 -197t-59.5 -359q0 -229 60 -365.5t172 -195t279 -58.5q82 0 159.5 13t164.5 43v-142q-156 -55 -336 -55q-322 0 -496 178.5zM620.5 1683
q-29.5 24 -29.5 68t29.5 69.5t81.5 25.5t81.5 -25.5t29.5 -69.5t-29.5 -68t-81.5 -24t-81.5 24z" />
    <glyph glyph-name="cdotaccent" unicode="&#x10b;" horiz-adv-x="875" 
d="M216 117q-122 136 -122 425t131.5 424.5t388.5 135.5q121 0 223 -28v-136q-107 27 -205 27q-128 0 -209.5 -41t-122 -133t-40.5 -245q0 -155 37.5 -249.5t111.5 -137t188 -42.5q105 0 240 45v-136q-127 -45 -263 -45q-236 0 -358 136zM430 1346.5q-29 26.5 -29 74.5
t29.5 75t82.5 27t82 -27t29 -75t-29 -74.5t-82 -26.5q-54 0 -83 26.5z" />
    <glyph glyph-name="Ccaron" unicode="&#x10c;" horiz-adv-x="1151" 
d="M279 159.5q-174 178.5 -174 577.5q0 391 177 576.5t509 185.5q162 0 320 -43v-142q-153 44 -314 44q-173 0 -287.5 -61t-174 -197t-59.5 -359q0 -229 60 -365.5t172 -195t279 -58.5q82 0 159.5 13t164.5 43v-142q-156 -55 -336 -55q-322 0 -496 178.5zM881 1892h140
l-245 -284h-148l-245 284h140l179 -214z" />
    <glyph glyph-name="ccaron" unicode="&#x10d;" horiz-adv-x="875" 
d="M216 117q-122 136 -122 425t131.5 424.5t388.5 135.5q121 0 223 -28v-136q-107 27 -205 27q-128 0 -209.5 -41t-122 -133t-40.5 -245q0 -155 37.5 -249.5t111.5 -137t188 -42.5q105 0 240 45v-136q-127 -45 -263 -45q-236 0 -358 136zM683 1616h129l-227 -363h-144
l-227 363h129l170 -281z" />
    <glyph glyph-name="Dcaron" unicode="&#x10e;" horiz-adv-x="1400" 
d="M169 9v1447q92 18 193 28.5t194 10.5q368 0 553 -186.5t185 -568.5q0 -387 -192.5 -569.5t-581.5 -182.5q-166 0 -351 21zM873 190q127 63 190.5 198.5t63.5 351.5q0 320 -139 468t-427 148q-105 0 -230 -19v-1197q100 -13 221 -13q194 0 321 63zM813 1892h140l-245 -284
h-148l-245 284h140l179 -214z" />
    <glyph glyph-name="dcaron" unicode="&#x10f;" horiz-adv-x="1129" 
d="M301 36q-96 55 -151.5 175.5t-55.5 308.5q0 291 138.5 436.5t409.5 145.5q78 0 176 -15v529h160v-1616h-137l-11 118h-10q-51 -63 -128 -100t-171 -37q-124 0 -220 55zM703 152.5q69 33.5 115 100.5v699q-38 8 -86 13.5t-93 5.5q-193 0 -287.5 -103.5t-94.5 -332.5
q0 -227 78.5 -321.5t222.5 -94.5q76 0 145 33.5zM1090 1616h119q0 -110 -12.5 -224.5t-36.5 -211.5h-92q22 176 22 436z" />
    <glyph glyph-name="Dcroat" unicode="&#x110;" horiz-adv-x="1400" 
d="M1109 1308.5q185 -186.5 185 -568.5q0 -387 -192.5 -569.5t-581.5 -182.5q-166 0 -351 21v696h-166v114h166v637q92 18 193 28.5t194 10.5q368 0 553 -186.5zM873 190q127 63 190.5 198.5t63.5 351.5q0 320 -139 468t-427 148q-105 0 -230 -19v-518h331v-114h-331v-565
q100 -13 221 -13q194 0 321 63z" />
    <glyph glyph-name="dcroat" unicode="&#x111;" horiz-adv-x="1129" 
d="M1120 1299h-142v-1299h-137l-11 118h-10q-51 -63 -128 -100t-171 -37q-124 0 -220 55t-151.5 175.5t-55.5 308.5q0 291 138.5 436.5t409.5 145.5q78 0 176 -15v212h-353v112h353v205h160v-205h142v-112zM818 952q-38 8 -86 13.5t-93 5.5q-193 0 -287.5 -103.5
t-94.5 -332.5q0 -227 78.5 -321.5t222.5 -94.5q76 0 145 33.5t115 100.5v699z" />
    <glyph glyph-name="Emacron" unicode="&#x112;" horiz-adv-x="1166" 
d="M330 138h764v-138h-925v1480h915v-138h-754v-514h657v-137h-657v-553zM343 1696v109h612v-109h-612z" />
    <glyph glyph-name="emacron" unicode="&#x113;" horiz-adv-x="1030" 
d="M951 489h-695q4 -137 45.5 -220t121.5 -120t204 -37q118 0 270 44v-131q-148 -44 -289 -44q-259 0 -386.5 134t-127.5 428q0 279 115.5 419t323.5 140q203 0 310.5 -139.5t107.5 -423.5v-50zM330 895q-70 -90 -74 -296h541q-4 207 -70.5 296.5t-195.5 89.5
q-131 0 -201 -90zM221 1368v108h620v-108h-620z" />
    <glyph glyph-name="Ebreve" unicode="&#x114;" horiz-adv-x="1166" 
d="M330 138h764v-138h-925v1480h915v-138h-754v-514h657v-137h-657v-553zM423 1684.5q-81 67.5 -93 186.5h108q12 -81 61.5 -120t150.5 -39t150 39t59 120h109q-12 -120 -91.5 -187t-226.5 -67q-146 0 -227 67.5z" />
    <glyph glyph-name="ebreve" unicode="&#x115;" horiz-adv-x="1030" 
d="M951 489h-695q4 -137 45.5 -220t121.5 -120t204 -37q118 0 270 44v-131q-148 -44 -289 -44q-259 0 -386.5 134t-127.5 428q0 279 115.5 419t323.5 140q203 0 310.5 -139.5t107.5 -423.5v-50zM330 895q-70 -90 -74 -296h541q-4 207 -70.5 296.5t-195.5 89.5
q-131 0 -201 -90zM316.5 1349q-78.5 85 -85.5 241h108q8 -115 55 -173t138 -58t137.5 58t53.5 173h107q-6 -157 -83.5 -241.5t-214.5 -84.5t-215.5 85z" />
    <glyph glyph-name="Edotaccent" unicode="&#x116;" horiz-adv-x="1166" 
d="M330 138h764v-138h-925v1480h915v-138h-754v-514h657v-137h-657v-553zM567.5 1683q-29.5 24 -29.5 68t29.5 69.5t81.5 25.5t81.5 -25.5t29.5 -69.5t-29.5 -68t-81.5 -24t-81.5 24z" />
    <glyph glyph-name="edotaccent" unicode="&#x117;" horiz-adv-x="1030" 
d="M951 489h-695q4 -137 45.5 -220t121.5 -120t204 -37q118 0 270 44v-131q-148 -44 -289 -44q-259 0 -386.5 134t-127.5 428q0 279 115.5 419t323.5 140q203 0 310.5 -139.5t107.5 -423.5v-50zM330 895q-70 -90 -74 -296h541q-4 207 -70.5 296.5t-195.5 89.5
q-131 0 -201 -90zM448 1346.5q-29 26.5 -29 74.5t29.5 75t82.5 27t82 -27t29 -75t-29 -74.5t-82 -26.5q-54 0 -83 26.5z" />
    <glyph glyph-name="Eogonek" unicode="&#x118;" horiz-adv-x="1166" 
d="M1023.5 -327.5q37.5 8.5 86.5 28.5v-80q-85 -37 -174 -37q-114 0 -174.5 48t-60.5 136q0 68 36 124.5t119 107.5h-687v1480h915v-138h-754v-514h657v-137h-657v-553h764v-138h-82q-117 -55 -163 -107.5t-46 -115.5q0 -55 37 -84t110 -29q36 0 73.5 8.5z" />
    <glyph glyph-name="eogonek" unicode="&#x119;" horiz-adv-x="1030" 
d="M951 489h-695q4 -137 45.5 -220t121.5 -120t204 -37q118 0 270 44v-131q-151 -50 -211 -113t-60 -134q0 -54 33.5 -84t93.5 -30q71 0 144 40v-81q-34 -18 -75 -28.5t-83 -10.5q-102 0 -158.5 49t-56.5 135q0 131 126 214q-15 -1 -42 -1q-259 0 -386.5 134t-127.5 428
q0 279 115.5 419t323.5 140q203 0 310.5 -139.5t107.5 -423.5v-50zM330.5 893q-70.5 -90 -74.5 -296h541q-4 207 -70.5 296.5t-195.5 89.5q-130 0 -200.5 -90z" />
    <glyph glyph-name="Ecaron" unicode="&#x11a;" horiz-adv-x="1166" 
d="M330 138h764v-138h-925v1480h915v-138h-754v-514h657v-137h-657v-553zM828 1892h140l-245 -284h-148l-245 284h140l179 -214z" />
    <glyph glyph-name="ecaron" unicode="&#x11b;" horiz-adv-x="1030" 
d="M951 489h-695q4 -137 45.5 -220t121.5 -120t204 -37q118 0 270 44v-131q-148 -44 -289 -44q-259 0 -386.5 134t-127.5 428q0 279 115.5 419t323.5 140q203 0 310.5 -139.5t107.5 -423.5v-50zM330 895q-70 -90 -74 -296h541q-4 207 -70.5 296.5t-195.5 89.5
q-131 0 -201 -90zM701 1616h129l-227 -363h-144l-227 363h129l170 -281z" />
    <glyph glyph-name="Gcircumflex" unicode="&#x11c;" horiz-adv-x="1347" 
d="M1196 720v-704q-93 -16 -171 -22.5t-161 -6.5q-380 0 -569 182t-190 569q0 390 190 575.5t535 185.5q165 0 332 -44v-142q-86 24 -164 34.5t-158 10.5q-277 0 -421 -145t-144 -476q0 -215 64.5 -350t192.5 -197.5t323 -62.5q101 0 187 12v581h154zM1063 1608h-140
l-179 214l-179 -214h-140l245 284h148z" />
    <glyph glyph-name="gcircumflex" unicode="&#x11d;" horiz-adv-x="1129" 
d="M319 -447.5q-85 12.5 -156 36.5v134q163 -51 311 -51q120 0 195 33t112 107t37 198v105h-10q-51 -60 -128 -94.5t-172 -34.5q-118 0 -211 54.5t-148 174t-55 306.5q0 290 138.5 435t411.5 146q84 0 172.5 -13t161.5 -36v-1018q0 -176 -55 -285t-164 -159.5t-277 -50.5
q-78 0 -163 12.5zM702 154.5q70 31.5 116 93.5v701q-90 22 -187 22q-187 0 -280.5 -104t-93.5 -331t78.5 -320t220.5 -93q76 0 146 31.5zM879 1253h-128l-167 280l-167 -280h-129l224 363h144z" />
    <glyph glyph-name="Gbreve" unicode="&#x11e;" horiz-adv-x="1347" 
d="M1196 720v-704q-93 -16 -171 -22.5t-161 -6.5q-380 0 -569 182t-190 569q0 390 190 575.5t535 185.5q165 0 332 -44v-142q-86 24 -164 34.5t-158 10.5q-277 0 -421 -145t-144 -476q0 -215 64.5 -350t192.5 -197.5t323 -62.5q101 0 187 12v581h154zM518 1684.5
q-81 67.5 -93 186.5h108q12 -81 61.5 -120t150.5 -39t150 39t59 120h109q-12 -120 -91.5 -187t-226.5 -67q-146 0 -227 67.5z" />
    <glyph glyph-name="gbreve" unicode="&#x11f;" horiz-adv-x="1129" 
d="M319 -447.5q-85 12.5 -156 36.5v134q163 -51 311 -51q120 0 195 33t112 107t37 198v105h-10q-51 -60 -128 -94.5t-172 -34.5q-118 0 -211 54.5t-148 174t-55 306.5q0 290 138.5 435t411.5 146q84 0 172.5 -13t161.5 -36v-1018q0 -176 -55 -285t-164 -159.5t-277 -50.5
q-78 0 -163 12.5zM702 154.5q70 31.5 116 93.5v701q-90 22 -187 22q-187 0 -280.5 -104t-93.5 -331t78.5 -320t220.5 -93q76 0 146 31.5zM369.5 1349q-78.5 85 -85.5 241h108q8 -115 55 -173t138 -58t137.5 58t53.5 173h107q-6 -157 -83.5 -241.5t-214.5 -84.5t-215.5 85z
" />
    <glyph glyph-name="Gdotaccent" unicode="&#x120;" horiz-adv-x="1347" 
d="M1196 720v-704q-93 -16 -171 -22.5t-161 -6.5q-380 0 -569 182t-190 569q0 390 190 575.5t535 185.5q165 0 332 -44v-142q-86 24 -164 34.5t-158 10.5q-277 0 -421 -145t-144 -476q0 -215 64.5 -350t192.5 -197.5t323 -62.5q101 0 187 12v581h154zM662.5 1683
q-29.5 24 -29.5 68t29.5 69.5t81.5 25.5t81.5 -25.5t29.5 -69.5t-29.5 -68t-81.5 -24t-81.5 24z" />
    <glyph glyph-name="gdotaccent" unicode="&#x121;" horiz-adv-x="1129" 
d="M319 -447.5q-85 12.5 -156 36.5v134q163 -51 311 -51q120 0 195 33t112 107t37 198v105h-10q-51 -60 -128 -94.5t-172 -34.5q-118 0 -211 54.5t-148 174t-55 306.5q0 290 138.5 435t411.5 146q84 0 172.5 -13t161.5 -36v-1018q0 -176 -55 -285t-164 -159.5t-277 -50.5
q-78 0 -163 12.5zM702 154.5q70 31.5 116 93.5v701q-90 22 -187 22q-187 0 -280.5 -104t-93.5 -331t78.5 -320t220.5 -93q76 0 146 31.5zM501 1346.5q-29 26.5 -29 74.5t29.5 75t82.5 27t82 -27t29 -75t-29 -74.5t-82 -26.5q-54 0 -83 26.5z" />
    <glyph glyph-name="Gcommaaccent" unicode="&#x122;" horiz-adv-x="1347" 
d="M1196 720v-704q-93 -16 -171 -22.5t-161 -6.5q-380 0 -569 182t-190 569q0 390 190 575.5t535 185.5q165 0 332 -44v-142q-86 24 -164 34.5t-158 10.5q-277 0 -421 -145t-144 -476q0 -215 64.5 -350t192.5 -197.5t323 -62.5q101 0 187 12v581h154zM821.5 -191
q27.5 -28 27.5 -82q0 -43 -15.5 -95.5t-41.5 -97.5h-100q34 78 42 140q-46 2 -70.5 24t-24.5 58q0 38 26.5 59.5t75.5 21.5q53 0 80.5 -28z" />
    <glyph glyph-name="gcommaaccent" unicode="&#x123;" horiz-adv-x="1129" 
d="M319 -447.5q-85 12.5 -156 36.5v134q163 -51 311 -51q120 0 195 33t112 107t37 198v105h-10q-51 -60 -128 -94.5t-172 -34.5q-118 0 -211 54.5t-148 174t-55 306.5q0 290 138.5 435t411.5 146q84 0 172.5 -13t161.5 -36v-1018q0 -176 -55 -285t-164 -159.5t-277 -50.5
q-78 0 -163 12.5zM702 154.5q70 31.5 116 93.5v701q-90 22 -187 22q-187 0 -280.5 -104t-93.5 -331t78.5 -320t220.5 -93q76 0 146 31.5zM664.5 1460q24.5 -22 24.5 -58q0 -37 -26.5 -59t-75.5 -22q-53 0 -80.5 28t-27.5 82q0 43 15.5 95.5t41.5 97.5h100q-34 -74 -42 -140
q46 -2 70.5 -24z" />
    <glyph glyph-name="Hcircumflex" unicode="&#x124;" horiz-adv-x="1444" 
d="M169 0v1480h162v-647h782v647h162v-1480h-162v686h-782v-686h-162zM1041 1608h-140l-179 214l-179 -214h-140l245 284h148z" />
    <glyph glyph-name="hcircumflex" unicode="&#x125;" horiz-adv-x="1137" 
d="M151 1616h160v-652h10q65 68 150 103t184 35q159 0 250.5 -91.5t91.5 -292.5v-718h-160v711q0 133 -58.5 189.5t-168.5 56.5q-83 0 -163.5 -35t-135.5 -108v-814h-160v1616zM894 1704h-140l-179 214l-179 -214h-140l245 284h148z" />
    <glyph glyph-name="Hbar" unicode="&#x126;" horiz-adv-x="1444" 
d="M1441 1214v-112h-166v-1102h-162v686h-782v-686h-162v1102h-167v112h167v266h162v-266h782v266h162v-266h166zM1113 833v269h-782v-269h782z" />
    <glyph glyph-name="hbar" unicode="&#x127;" horiz-adv-x="1137" 
d="M905.5 1010.5q91.5 -91.5 91.5 -292.5v-718h-160v711q0 133 -58.5 189.5t-168.5 56.5q-83 0 -163.5 -35t-135.5 -108v-814h-160v1298h-143v112h143v206h160v-206h353v-112h-353v-334h10q65 68 150 103t184 35q159 0 250.5 -91.5z" />
    <glyph glyph-name="Itilde" unicode="&#x128;" horiz-adv-x="500" 
d="M169 0v1480h162v-1480h-162zM326.5 1678q-35.5 10 -91.5 30q-45 18 -77 27t-65 9q-53 0 -93 -17t-78 -54v111q63 65 173 65q43 0 80 -10.5t90 -30.5q45 -18 77 -27t64 -9q53 0 93 17t79 54v-110q-32 -33 -74 -49t-100 -16q-42 0 -77.5 10z" />
    <glyph glyph-name="itilde" unicode="&#x129;" horiz-adv-x="463" 
d="M151 0v1085h160v-1085h-160zM302.5 1355.5q-33.5 10.5 -87.5 33.5q-41 19 -70.5 28.5t-58.5 9.5q-49 0 -88 -18t-77 -58v116q62 67 167 67q38 0 71.5 -10.5t87.5 -33.5q41 -19 70.5 -28.5t58.5 -9.5q48 0 87.5 18.5t77.5 57.5v-116q-64 -67 -167 -67q-38 0 -71.5 10.5z
" />
    <glyph glyph-name="Imacron" unicode="&#x12a;" horiz-adv-x="500" 
d="M169 0v1480h162v-1480h-162zM-56 1696v109h612v-109h-612z" />
    <glyph glyph-name="imacron" unicode="&#x12b;" horiz-adv-x="463" 
d="M151 0v1085h160v-1085h-160zM-79 1368v108h620v-108h-620z" />
    <glyph glyph-name="Ibreve" unicode="&#x12c;" horiz-adv-x="500" 
d="M169 0v1480h162v-1480h-162zM24 1684.5q-81 67.5 -93 186.5h108q12 -81 61.5 -120t150.5 -39t150 39t59 120h109q-12 -120 -91.5 -187t-226.5 -67q-146 0 -227 67.5z" />
    <glyph glyph-name="ibreve" unicode="&#x12d;" horiz-adv-x="463" 
d="M151 0v1085h160v-1085h-160zM16.5 1349q-78.5 85 -85.5 241h108q8 -115 55 -173t138 -58t137.5 58t53.5 173h107q-6 -157 -83.5 -241.5t-214.5 -84.5t-215.5 85z" />
    <glyph glyph-name="Iogonek" unicode="&#x12e;" horiz-adv-x="500" 
d="M342.5 -327.5q37.5 8.5 86.5 28.5v-80q-85 -37 -174 -37q-114 0 -174.5 48t-60.5 136q0 68 36 124.5t119 107.5h-6v1480h162v-1480q-117 -55 -163 -107.5t-46 -115.5q0 -55 37 -84t110 -29q36 0 73.5 8.5z" />
    <glyph glyph-name="iogonek" unicode="&#x12f;" horiz-adv-x="463" 
d="M148 1346.5q-29 26.5 -29 74.5t29.5 75t82.5 27t82 -27t29 -75t-29 -74.5t-82 -26.5q-54 0 -83 26.5zM393 -296v-81q-34 -18 -75 -28.5t-83 -10.5q-102 0 -158.5 49t-56.5 135q0 68 34.5 124.5t109.5 107.5h-13v1085h160v-1085q-102 -54 -145.5 -107t-43.5 -116
q0 -53 33.5 -83t93.5 -30q71 0 144 40z" />
    <glyph glyph-name="Idotaccent" unicode="&#x130;" horiz-adv-x="500" 
d="M169 0v1480h162v-1480h-162zM168.5 1683q-29.5 24 -29.5 68t29.5 69.5t81.5 25.5t81.5 -25.5t29.5 -69.5t-29.5 -68t-81.5 -24t-81.5 24z" />
    <glyph glyph-name="dotlessi" unicode="&#x131;" horiz-adv-x="463" 
d="M151 0v1085h160v-1085h-160z" />
    <glyph glyph-name="Jcircumflex" unicode="&#x134;" horiz-adv-x="500" 
d="M-9 -271q96 130 137 259.5t41 302.5v1189h162v-1210q-6 -180 -59 -322t-174 -292zM569 1608h-140l-179 214l-179 -214h-140l245 284h148z" />
    <glyph glyph-name="jcircumflex" unicode="&#x135;" horiz-adv-x="463" 
d="M-28 -392q96 130 137.5 259.5t41.5 302.5v915h160v-906q0 -193 -54 -341.5t-178 -301.5zM525 1258h-128l-167 280l-167 -280h-129l224 363h144z" />
    <glyph glyph-name="Kcommaaccent" unicode="&#x136;" horiz-adv-x="1237" 
d="M1077 0l-527 686h-219v-686h-162v1480h162v-648h222l487 648h178l-542 -718l584 -762h-183zM722.5 -191q27.5 -28 27.5 -82q0 -43 -15.5 -95.5t-41.5 -97.5h-100q34 78 42 140q-46 2 -70.5 24t-24.5 58q0 38 26.5 59.5t75.5 21.5q53 0 80.5 -28z" />
    <glyph glyph-name="kcommaaccent" unicode="&#x137;" horiz-adv-x="1038" 
d="M878 0l-383 489h-184v-489h-160v1616h160v-993h183l354 462h178l-399 -527l432 -558h-181zM634.5 -191q27.5 -28 27.5 -82q0 -43 -15.5 -95.5t-41.5 -97.5h-100q34 78 42 140q-46 2 -70.5 24t-24.5 58q0 38 26.5 59.5t75.5 21.5q53 0 80.5 -28z" />
    <glyph glyph-name="kgreenlandic" unicode="&#x138;" horiz-adv-x="1038" 
d="M878 0l-383 489h-184v-489h-160v1085h160v-462h183l354 462h178l-399 -527l432 -558h-181z" />
    <glyph glyph-name="Lacute" unicode="&#x139;" horiz-adv-x="1071" 
d="M169 0v1480h162v-1338h728v-142h-890zM177 1608l178 284h173l-204 -284h-147z" />
    <glyph glyph-name="lacute" unicode="&#x13a;" horiz-adv-x="462" 
d="M151 0v1616h160v-1616h-160zM157 1704l178 284h173l-204 -284h-147z" />
    <glyph glyph-name="Lcommaaccent" unicode="&#x13b;" horiz-adv-x="1071" 
d="M169 0v1480h162v-1338h728v-142h-890zM692.5 -191q27.5 -28 27.5 -82q0 -43 -15.5 -95.5t-41.5 -97.5h-100q34 78 42 140q-46 2 -70.5 24t-24.5 58q0 38 26.5 59.5t75.5 21.5q53 0 80.5 -28z" />
    <glyph glyph-name="lcommaaccent" unicode="&#x13c;" horiz-adv-x="462" 
d="M151 0v1616h160v-1616h-160zM308.5 -191q27.5 -28 27.5 -82q0 -43 -15.5 -95.5t-41.5 -97.5h-100q34 78 42 140q-46 2 -70.5 24t-24.5 58q0 38 26.5 59.5t75.5 21.5q53 0 80.5 -28z" />
    <glyph glyph-name="Lcaron" unicode="&#x13d;" horiz-adv-x="1071" 
d="M169 0v1480h162v-1338h728v-142h-890zM694.5 1355.5q4.5 114.5 4.5 260.5h119q0 -281 -48 -476h-93q13 101 17.5 215.5z" />
    <glyph glyph-name="lcaron" unicode="&#x13e;" horiz-adv-x="462" 
d="M151 0v1616h160v-1616h-160zM424 1616h119q0 -110 -12.5 -224.5t-36.5 -211.5h-92q22 176 22 436z" />
    <glyph glyph-name="Ldot" unicode="&#x13f;" horiz-adv-x="1071" 
d="M169 0v1480h162v-1338h728v-142h-890zM694 733.5q-29 26.5 -29 73.5q0 48 29 75t82 27q54 0 83 -27t29 -75q0 -47 -29 -73.5t-83 -26.5q-53 0 -82 26.5z" />
    <glyph glyph-name="ldot" unicode="&#x140;" horiz-adv-x="576" 
d="M151 0v1616h160v-1616h-160zM428 718.5q-29 26.5 -29 74.5q0 47 29 74.5t83 27.5q53 0 82 -27.5t29 -74.5q0 -48 -29 -74.5t-82 -26.5q-54 0 -83 26.5z" />
    <glyph glyph-name="Lslash" unicode="&#x141;" horiz-adv-x="1071" 
d="M331 142h728v-142h-890v661l-127 -92l-60 97l187 136v678h162v-560l273 199l60 -97l-333 -243v-637z" />
    <glyph glyph-name="lslash" unicode="&#x142;" horiz-adv-x="462" 
d="M478 822l-167 -119v-703h-160v589l-107 -76l-58 93l165 117v893h160v-779l109 78z" />
    <glyph glyph-name="Nacute" unicode="&#x143;" horiz-adv-x="1469" 
d="M1146 1480h154v-1480h-167l-810 1232v-1232h-154v1480h167l810 -1232v1232zM661 1608l178 284h173l-204 -284h-147z" />
    <glyph glyph-name="nacute" unicode="&#x144;" horiz-adv-x="1137" 
d="M151 1085h135l11 -123h11q67 68 154.5 104t186.5 36q163 0 255.5 -91.5t92.5 -293.5v-717h-160v710q0 133 -58.5 191t-168.5 58q-81 0 -162 -35t-137 -109v-815h-160v1085zM501 1253l216 363h173l-241 -363h-148z" />
    <glyph glyph-name="Ncommaaccent" unicode="&#x145;" horiz-adv-x="1469" 
d="M1146 1480h154v-1480h-167l-810 1232v-1232h-154v1480h167l810 -1232v1232zM812.5 -191q27.5 -28 27.5 -82q0 -43 -15.5 -95.5t-41.5 -97.5h-100q34 78 42 140q-46 2 -70.5 24t-24.5 58q0 38 26.5 59.5t75.5 21.5q53 0 80.5 -28z" />
    <glyph glyph-name="ncommaaccent" unicode="&#x146;" horiz-adv-x="1137" 
d="M151 1085h135l11 -123h11q67 68 154.5 104t186.5 36q163 0 255.5 -91.5t92.5 -293.5v-717h-160v710q0 133 -58.5 191t-168.5 58q-81 0 -162 -35t-137 -109v-815h-160v1085zM652.5 -191q27.5 -28 27.5 -82q0 -43 -15.5 -95.5t-41.5 -97.5h-100q34 78 42 140
q-46 2 -70.5 24t-24.5 58q0 38 26.5 59.5t75.5 21.5q53 0 80.5 -28z" />
    <glyph glyph-name="Ncaron" unicode="&#x147;" horiz-adv-x="1469" 
d="M1146 1480h154v-1480h-167l-810 1232v-1232h-154v1480h167l810 -1232v1232zM914 1892h140l-245 -284h-148l-245 284h140l179 -214z" />
    <glyph glyph-name="ncaron" unicode="&#x148;" horiz-adv-x="1137" 
d="M151 1085h135l11 -123h11q67 68 154.5 104t186.5 36q163 0 255.5 -91.5t92.5 -293.5v-717h-160v710q0 133 -58.5 191t-168.5 58q-81 0 -162 -35t-137 -109v-815h-160v1085zM745 1616h129l-227 -363h-144l-227 363h129l170 -281z" />
    <glyph glyph-name="napostrophe" unicode="&#x149;" horiz-adv-x="1137" 
d="M151 1085h135l11 -123h11q67 68 154.5 104t186.5 36q163 0 255.5 -91.5t92.5 -293.5v-717h-160v710q0 133 -58.5 191t-168.5 58q-81 0 -162 -35t-137 -109v-815h-160v1085zM222 1515q0 -44 -15 -96t-41 -98h-100q33 75 41 140q-46 3 -70 25t-24 58q0 37 26.5 58.5
t75.5 21.5q107 0 107 -109z" />
    <glyph glyph-name="Eng" unicode="&#x14a;" horiz-adv-x="1469" 
d="M1300 1480v-1291q0 -199 -54 -349t-178 -304l-107 72q72 96 113.5 189.5t58.5 199.5l-810 1234v-1231h-154v1480h167l810 -1230v1230h154z" />
    <glyph glyph-name="eng" unicode="&#x14b;" horiz-adv-x="1137" 
d="M659 -392q96 130 137 259.5t41 302.5v542q0 133 -59 190.5t-168 57.5q-83 0 -163.5 -35.5t-135.5 -108.5v-816h-160v1085h135l11 -123h11q67 70 154.5 105t187.5 35q162 0 254.5 -91.5t92.5 -292.5v-569q-6 -181 -58.5 -322.5t-173.5 -290.5z" />
    <glyph glyph-name="Omacron" unicode="&#x14c;" horiz-adv-x="1439" 
d="M267.5 167q-162.5 186 -162.5 573q0 261 75.5 430t213 249t325.5 80q289 0 451.5 -186t162.5 -573q0 -260 -75.5 -429.5t-212.5 -249.5t-326 -80q-289 0 -451.5 186zM1049 265.5q116 144.5 116 469.5q0 332 -116 478t-330 146q-213 0 -329.5 -144.5t-116.5 -469.5
q0 -332 116 -478t330 -146t330 144.5zM413 1696v109h612v-109h-612z" />
    <glyph glyph-name="omacron" unicode="&#x14d;" horiz-adv-x="1111" 
d="M215.5 118.5q-121.5 137.5 -121.5 422.5t121 423t340 138q220 0 341 -137t121 -423q0 -284 -122 -422.5t-340 -138.5t-339.5 137.5zM777 209.5q76 98.5 76 329.5q0 235 -76 333.5t-222 98.5q-145 0 -221.5 -98t-76.5 -329q0 -234 76 -333.5t222 -99.5t222 98.5zM245 1368
v108h620v-108h-620z" />
    <glyph glyph-name="Obreve" unicode="&#x14e;" horiz-adv-x="1439" 
d="M267.5 167q-162.5 186 -162.5 573q0 261 75.5 430t213 249t325.5 80q289 0 451.5 -186t162.5 -573q0 -260 -75.5 -429.5t-212.5 -249.5t-326 -80q-289 0 -451.5 186zM1049 265.5q116 144.5 116 469.5q0 332 -116 478t-330 146q-213 0 -329.5 -144.5t-116.5 -469.5
q0 -332 116 -478t330 -146t330 144.5zM493 1684.5q-81 67.5 -93 186.5h108q12 -81 61.5 -120t150.5 -39t150 39t59 120h109q-12 -120 -91.5 -187t-226.5 -67q-146 0 -227 67.5z" />
    <glyph glyph-name="obreve" unicode="&#x14f;" horiz-adv-x="1111" 
d="M215.5 118.5q-121.5 137.5 -121.5 422.5t121 423t340 138q220 0 341 -137t121 -423q0 -284 -122 -422.5t-340 -138.5t-339.5 137.5zM777 209.5q76 98.5 76 329.5q0 235 -76 333.5t-222 98.5q-145 0 -221.5 -98t-76.5 -329q0 -234 76 -333.5t222 -99.5t222 98.5z
M340.5 1349q-78.5 85 -85.5 241h108q8 -115 55 -173t138 -58t137.5 58t53.5 173h107q-6 -157 -83.5 -241.5t-214.5 -84.5t-215.5 85z" />
    <glyph glyph-name="Ohungarumlaut" unicode="&#x150;" horiz-adv-x="1439" 
d="M267.5 167q-162.5 186 -162.5 573q0 261 75.5 430t213 249t325.5 80q289 0 451.5 -186t162.5 -573q0 -260 -75.5 -429.5t-212.5 -249.5t-326 -80q-289 0 -451.5 186zM1049 265.5q116 144.5 116 469.5q0 332 -116 478t-330 146q-213 0 -329.5 -144.5t-116.5 -469.5
q0 -332 116 -478t330 -146t330 144.5zM488 1608l128 284h136l-138 -284h-126zM824 1608l129 284h136l-139 -284h-126z" />
    <glyph glyph-name="ohungarumlaut" unicode="&#x151;" horiz-adv-x="1111" 
d="M215.5 118.5q-121.5 137.5 -121.5 422.5t121 423t340 138q220 0 341 -137t121 -423q0 -284 -122 -422.5t-340 -138.5t-339.5 137.5zM777 209.5q76 98.5 76 329.5q0 235 -76 333.5t-222 98.5q-145 0 -221.5 -98t-76.5 -329q0 -234 76 -333.5t222 -99.5t222 98.5zM326 1253
l140 363h134l-150 -363h-124zM660 1253l140 363h135l-151 -363h-124z" />
    <glyph glyph-name="OE" unicode="&#x152;" horiz-adv-x="2007" 
d="M1935 138v-138h-771q-55 0 -138 -5q-138 -5 -169 -5q-376 0 -564 183t-188 567q0 380 188 566.5t552 186.5q47 0 100.5 -3t67.5 -4q100 -6 141 -6h771v-138h-722v-514h625v-137h-625v-553h732zM1042 1342q-97 12 -217 12q-279 0 -415.5 -148t-136.5 -466q0 -320 139 -466
t421 -146q124 0 209 9v1205z" />
    <glyph glyph-name="oe" unicode="&#x153;" horiz-adv-x="1776" 
d="M1698 489h-687q4 -137 45 -219.5t119.5 -120t200.5 -37.5q118 0 268 44v-131q-146 -44 -286 -44q-163 0 -270.5 55t-163.5 171q-53 -113 -148.5 -169.5t-228.5 -56.5q-212 0 -332.5 138t-120.5 422q0 285 119.5 423t333.5 138q137 0 233.5 -58.5t148.5 -176.5
q48 117 139.5 176t218.5 59q197 0 304 -139t107 -422v-52zM1083.5 895.5q-68.5 -90.5 -72.5 -296.5h533q-4 208 -70.5 297.5t-192.5 89.5q-129 0 -197.5 -90.5zM772 209.5q76 98.5 76 329.5q0 234 -76 333t-220 99q-143 0 -219 -98t-76 -329q0 -234 75.5 -333.5t219.5 -99.5
t220 98.5z" />
    <glyph glyph-name="Racute" unicode="&#x154;" horiz-adv-x="1307" 
d="M1074 0l-460 613q-50 -2 -79 -2q-100 0 -206 8v-619h-160v1456q205 40 395 40q294 0 436 -107t142 -332q1 -171 -91.5 -277t-273.5 -146l479 -634h-182zM433.5 743q43.5 -2 102.5 -2q236 0 344 76t108 238q0 111 -43 179t-134 99.5t-237 31.5q-72 0 -127.5 -5t-117.5 -16
v-593q61 -6 104.5 -8zM556 1608l178 284h173l-204 -284h-147z" />
    <glyph glyph-name="racute" unicode="&#x155;" horiz-adv-x="724" 
d="M151 1085h134l13 -145h10q54 75 138.5 115.5t178.5 40.5q44 0 87 -8v-149q-43 7 -94 7q-85 0 -170.5 -39.5t-136.5 -113.5v-793h-160v1085zM349 1253l216 363h173l-241 -363h-148z" />
    <glyph glyph-name="Rcommaaccent" unicode="&#x156;" horiz-adv-x="1307" 
d="M1074 0l-460 613q-50 -2 -79 -2q-100 0 -206 8v-619h-160v1456q205 40 395 40q294 0 436 -107t142 -332q1 -171 -91.5 -277t-273.5 -146l479 -634h-182zM433.5 743q43.5 -2 102.5 -2q236 0 344 76t108 238q0 111 -43 179t-134 99.5t-237 31.5q-72 0 -127.5 -5t-117.5 -16
v-593q61 -6 104.5 -8zM760.5 -191q27.5 -28 27.5 -82q0 -43 -15.5 -95.5t-41.5 -97.5h-100q34 78 42 140q-46 2 -70.5 24t-24.5 58q0 38 26.5 59.5t75.5 21.5q53 0 80.5 -28z" />
    <glyph glyph-name="rcommaaccent" unicode="&#x157;" horiz-adv-x="724" 
d="M151 1085h134l13 -145h10q54 75 138.5 115.5t178.5 40.5q44 0 87 -8v-149q-43 7 -94 7q-85 0 -170.5 -39.5t-136.5 -113.5v-793h-160v1085zM308.5 -191q27.5 -28 27.5 -82q0 -43 -15.5 -95.5t-41.5 -97.5h-100q34 78 42 140q-46 2 -70.5 24t-24.5 58q0 38 26.5 59.5
t75.5 21.5q53 0 80.5 -28z" />
    <glyph glyph-name="Rcaron" unicode="&#x158;" horiz-adv-x="1307" 
d="M1074 0l-460 613q-50 -2 -79 -2q-100 0 -206 8v-619h-160v1456q205 40 395 40q294 0 436 -107t142 -332q1 -171 -91.5 -277t-273.5 -146l479 -634h-182zM433.5 743q43.5 -2 102.5 -2q236 0 344 76t108 238q0 111 -43 179t-134 99.5t-237 31.5q-72 0 -127.5 -5t-117.5 -16
v-593q61 -6 104.5 -8zM809 1892h140l-245 -284h-148l-245 284h140l179 -214z" />
    <glyph glyph-name="rcaron" unicode="&#x159;" horiz-adv-x="724" 
d="M151 1085h134l13 -145h10q54 75 138.5 115.5t178.5 40.5q44 0 87 -8v-149q-43 7 -94 7q-85 0 -170.5 -39.5t-136.5 -113.5v-793h-160v1085zM593 1616h129l-227 -363h-144l-227 363h129l170 -281z" />
    <glyph glyph-name="Sacute" unicode="&#x15a;" horiz-adv-x="1063" 
d="M277 -3.5q-95 15.5 -180 44.5v140q90 -31 184.5 -46t182.5 -15q361 0 361 271q0 75 -29.5 125.5t-93 85t-172.5 62.5l-80 21q-190 49 -283 146.5t-93 256.5q0 128 59.5 220.5t177 141.5t290.5 49q86 0 170 -11.5t153 -33.5v-140q-150 46 -318 46q-187 0 -277.5 -67.5
t-90.5 -194.5q0 -73 26.5 -123t85.5 -84.5t161 -61.5l80 -20q206 -52 302 -150t96 -258q0 -133 -62 -227t-180 -143.5t-285 -49.5q-90 0 -185 15.5zM466 1608l178 284h173l-204 -284h-147z" />
    <glyph glyph-name="sacute" unicode="&#x15b;" horiz-adv-x="900" 
d="M109 25v129q149 -45 301 -45q268 0 268 182q0 74 -38.5 113t-128.5 59l-147 30q-145 31 -210 103t-65 192q0 93 47 164t143.5 110.5t238.5 39.5q131 0 256 -32v-130q-66 18 -126 26t-126 8q-147 0 -213.5 -49.5t-66.5 -132.5q0 -67 37 -108t125 -60l147 -30
q148 -31 214.5 -102t66.5 -193q0 -150 -109 -234t-313 -84q-165 0 -301 44zM381 1253l216 363h173l-241 -363h-148z" />
    <glyph glyph-name="Scircumflex" unicode="&#x15c;" horiz-adv-x="1063" 
d="M277 -3.5q-95 15.5 -180 44.5v140q90 -31 184.5 -46t182.5 -15q361 0 361 271q0 75 -29.5 125.5t-93 85t-172.5 62.5l-80 21q-190 49 -283 146.5t-93 256.5q0 128 59.5 220.5t177 141.5t290.5 49q86 0 170 -11.5t153 -33.5v-140q-150 46 -318 46q-187 0 -277.5 -67.5
t-90.5 -194.5q0 -73 26.5 -123t85.5 -84.5t161 -61.5l80 -20q206 -52 302 -150t96 -258q0 -133 -62 -227t-180 -143.5t-285 -49.5q-90 0 -185 15.5zM859 1608h-140l-179 214l-179 -214h-140l245 284h148z" />
    <glyph glyph-name="scircumflex" unicode="&#x15d;" horiz-adv-x="900" 
d="M109 25v129q149 -45 301 -45q268 0 268 182q0 74 -38.5 113t-128.5 59l-147 30q-145 31 -210 103t-65 192q0 93 47 164t143.5 110.5t238.5 39.5q131 0 256 -32v-130q-66 18 -126 26t-126 8q-147 0 -213.5 -49.5t-66.5 -132.5q0 -67 37 -108t125 -60l147 -30
q148 -31 214.5 -102t66.5 -193q0 -150 -109 -234t-313 -84q-165 0 -301 44zM750 1253h-128l-167 280l-167 -280h-129l224 363h144z" />
    <glyph glyph-name="Scedilla" unicode="&#x15e;" horiz-adv-x="1063" 
d="M882.5 119q-106.5 -107 -303.5 -131v-90q85 -7 131.5 -46.5t46.5 -108.5q0 -77 -57.5 -118t-163.5 -41q-50 0 -100.5 9.5t-92.5 27.5v81q94 -39 187 -39q130 0 130 84q0 85 -132 85h-41v149h-25q-90 0 -185 15.5t-180 44.5v140q90 -31 184.5 -46t182.5 -15q361 0 361 271
q0 75 -29.5 125.5t-93 85t-172.5 62.5l-80 21q-190 49 -283 146.5t-93 256.5q0 128 59.5 220.5t177 141.5t290.5 49q86 0 170 -11.5t153 -33.5v-140q-150 46 -318 46q-187 0 -277.5 -67.5t-90.5 -194.5q0 -73 26.5 -123t85.5 -84.5t161 -61.5l80 -20q206 -52 302 -150
t96 -258q0 -175 -106.5 -282z" />
    <glyph glyph-name="scedilla" unicode="&#x15f;" horiz-adv-x="900" 
d="M748.5 86.5q-83.5 -81.5 -242.5 -100.5v-90q76 -9 115.5 -49t39.5 -106q0 -74 -53 -115.5t-152 -41.5q-45 0 -90.5 9.5t-78.5 25.5v81q75 -37 166 -37q57 0 84.5 20.5t27.5 62.5q0 86 -114 86h-37v149h-4q-165 0 -301 44v129q149 -45 301 -45q268 0 268 182
q0 74 -38.5 113t-128.5 59l-147 30q-145 31 -210 103t-65 192q0 93 47 164t143.5 110.5t238.5 39.5q131 0 256 -32v-130q-66 18 -126 26t-126 8q-147 0 -213.5 -49.5t-66.5 -132.5q0 -67 37 -108t125 -60l147 -30q148 -31 214.5 -102t66.5 -193q0 -131 -83.5 -212.5z" />
    <glyph glyph-name="Scaron" unicode="&#x160;" horiz-adv-x="1063" 
d="M277 -3.5q-95 15.5 -180 44.5v140q90 -31 184.5 -46t182.5 -15q361 0 361 271q0 75 -29.5 125.5t-93 85t-172.5 62.5l-80 21q-190 49 -283 146.5t-93 256.5q0 128 59.5 220.5t177 141.5t290.5 49q86 0 170 -11.5t153 -33.5v-140q-150 46 -318 46q-187 0 -277.5 -67.5
t-90.5 -194.5q0 -73 26.5 -123t85.5 -84.5t161 -61.5l80 -20q206 -52 302 -150t96 -258q0 -133 -62 -227t-180 -143.5t-285 -49.5q-90 0 -185 15.5zM719 1892h140l-245 -284h-148l-245 284h140l179 -214z" />
    <glyph glyph-name="scaron" unicode="&#x161;" horiz-adv-x="900" 
d="M109 25v129q149 -45 301 -45q268 0 268 182q0 74 -38.5 113t-128.5 59l-147 30q-145 31 -210 103t-65 192q0 93 47 164t143.5 110.5t238.5 39.5q131 0 256 -32v-130q-66 18 -126 26t-126 8q-147 0 -213.5 -49.5t-66.5 -132.5q0 -67 37 -108t125 -60l147 -30
q148 -31 214.5 -102t66.5 -193q0 -150 -109 -234t-313 -84q-165 0 -301 44zM625 1616h129l-227 -363h-144l-227 363h129l170 -281z" />
    <glyph glyph-name="uni0162" unicode="&#x162;" horiz-adv-x="1175" 
d="M627 0v-102q85 -7 131.5 -46.5t46.5 -108.5q0 -77 -57.5 -118t-163.5 -41q-50 0 -100.5 9.5t-92.5 27.5v81q94 -39 187 -39q130 0 130 84q0 85 -132 85h-41v168h-29v1338h-492v142h1148v-142h-493v-1338h-42z" />
    <glyph glyph-name="uni0163" unicode="&#x163;" horiz-adv-x="749" 
d="M525 -18v-86q76 -9 115.5 -49t39.5 -106q0 -74 -53 -115.5t-152 -41.5q-45 0 -90.5 9.5t-78.5 25.5v81q75 -37 166 -37q57 0 84.5 20.5t27.5 62.5q0 86 -114 86h-37v165q-218 59 -218 344v612h-205v132h205l26 395h134v-395h341v-132h-341v-587q0 -133 54.5 -189.5
t170.5 -56.5q57 0 133 16v-135q-85 -20 -167 -20q-28 0 -41 1z" />
    <glyph glyph-name="Tcaron" unicode="&#x164;" horiz-adv-x="1175" 
d="M506 0v1338h-492v142h1148v-142h-493v-1338h-163zM767 1892h140l-245 -284h-148l-245 284h140l179 -214z" />
    <glyph glyph-name="tcaron" unicode="&#x165;" horiz-adv-x="749" 
d="M733 136v-135q-85 -20 -167 -20q-351 0 -351 360v612h-205v132h205l26 395h134v-395h341v-132h-341v-587q0 -133 54.5 -189.5t170.5 -56.5q57 0 133 16zM550 1616h119q0 -110 -12.5 -224.5t-36.5 -211.5h-92q22 176 22 436z" />
    <glyph glyph-name="Tbar" unicode="&#x166;" horiz-adv-x="1175" 
d="M1162 1338h-493v-507h324v-114h-324v-717h-163v717h-323v114h323v507h-492v142h1148v-142z" />
    <glyph glyph-name="tbar" unicode="&#x167;" horiz-adv-x="749" 
d="M733 136v-135q-85 -20 -167 -20q-351 0 -351 360v237h-145v110h145v265h-205v132h205l26 395h134v-395h341v-132h-341v-265h293v-110h-293v-212q0 -133 54.5 -189.5t170.5 -56.5q57 0 133 16z" />
    <glyph glyph-name="Utilde" unicode="&#x168;" horiz-adv-x="1417" 
d="M400 43q-121 62 -179.5 189.5t-58.5 327.5v920h162v-938q0 -219 93 -320t293 -101t293 101t93 320v938h159v-920q0 -200 -58 -327.5t-178 -189.5t-309 -62t-310 62zM786.5 1678q-35.5 10 -91.5 30q-45 18 -77 27t-65 9q-53 0 -93 -17t-78 -54v111q63 65 173 65
q43 0 80 -10.5t90 -30.5q45 -18 77 -27t64 -9q53 0 93 17t79 54v-110q-32 -33 -74 -49t-100 -16q-42 0 -77.5 10z" />
    <glyph glyph-name="utilde" unicode="&#x169;" horiz-adv-x="1127" 
d="M231.5 73q-92.5 91 -92.5 291v721h160v-713q0 -132 58.5 -189.5t163.5 -57.5q80 0 160.5 36t134.5 108v816h160v-1085h-135l-12 119h-10q-67 -68 -152.5 -102.5t-181.5 -34.5q-161 0 -253.5 91zM629.5 1355.5q-33.5 10.5 -87.5 33.5q-41 19 -70.5 28.5t-58.5 9.5
q-49 0 -88 -18t-77 -58v116q62 67 167 67q38 0 71.5 -10.5t87.5 -33.5q41 -19 70.5 -28.5t58.5 -9.5q48 0 87.5 18.5t77.5 57.5v-116q-64 -67 -167 -67q-38 0 -71.5 10.5z" />
    <glyph glyph-name="Umacron" unicode="&#x16a;" horiz-adv-x="1417" 
d="M400 43q-121 62 -179.5 189.5t-58.5 327.5v920h162v-938q0 -219 93 -320t293 -101t293 101t93 320v938h159v-920q0 -200 -58 -327.5t-178 -189.5t-309 -62t-310 62zM404 1696v109h612v-109h-612z" />
    <glyph glyph-name="umacron" unicode="&#x16b;" horiz-adv-x="1127" 
d="M231.5 73q-92.5 91 -92.5 291v721h160v-713q0 -132 58.5 -189.5t163.5 -57.5q80 0 160.5 36t134.5 108v816h160v-1085h-135l-12 119h-10q-67 -68 -152.5 -102.5t-181.5 -34.5q-161 0 -253.5 91zM248 1368v108h620v-108h-620z" />
    <glyph glyph-name="Ubreve" unicode="&#x16c;" horiz-adv-x="1417" 
d="M400 43q-121 62 -179.5 189.5t-58.5 327.5v920h162v-938q0 -219 93 -320t293 -101t293 101t93 320v938h159v-920q0 -200 -58 -327.5t-178 -189.5t-309 -62t-310 62zM484 1684.5q-81 67.5 -93 186.5h108q12 -81 61.5 -120t150.5 -39t150 39t59 120h109
q-12 -120 -91.5 -187t-226.5 -67q-146 0 -227 67.5z" />
    <glyph glyph-name="ubreve" unicode="&#x16d;" horiz-adv-x="1127" 
d="M231.5 73q-92.5 91 -92.5 291v721h160v-713q0 -132 58.5 -189.5t163.5 -57.5q80 0 160.5 36t134.5 108v816h160v-1085h-135l-12 119h-10q-67 -68 -152.5 -102.5t-181.5 -34.5q-161 0 -253.5 91zM343.5 1349q-78.5 85 -85.5 241h108q8 -115 55 -173t138 -58t137.5 58
t53.5 173h107q-6 -157 -83.5 -241.5t-214.5 -84.5t-215.5 85z" />
    <glyph glyph-name="Uring" unicode="&#x16e;" horiz-adv-x="1417" 
d="M400 43q-121 62 -179.5 189.5t-58.5 327.5v920h162v-938q0 -219 93 -320t293 -101t293 101t93 320v938h159v-920q0 -200 -58 -327.5t-178 -189.5t-309 -62t-310 62zM609.5 1625q-44.5 25 -70 69.5t-25.5 99.5t25.5 99t70 69t100.5 25t100.5 -25t69.5 -69t25 -99
t-25 -99.5t-69.5 -69.5t-100.5 -25t-100.5 25zM794 1707q32 32 32 87q0 54 -32 86.5t-84 32.5t-84.5 -32.5t-32.5 -86.5q0 -55 32.5 -87t84.5 -32t84 32z" />
    <glyph glyph-name="uring" unicode="&#x16f;" horiz-adv-x="1127" 
d="M231.5 73q-92.5 91 -92.5 291v721h160v-713q0 -132 58.5 -189.5t163.5 -57.5q80 0 160.5 36t134.5 108v816h160v-1085h-135l-12 119h-10q-67 -68 -152.5 -102.5t-181.5 -34.5q-161 0 -253.5 91zM457.5 1273q-44.5 25 -70 69t-25.5 99t25.5 99.5t70 69.5t100.5 25
t100.5 -25t69.5 -69.5t25 -99.5t-25 -99t-69.5 -69t-100.5 -25t-100.5 25zM642 1354.5q32 32.5 32 86.5q0 55 -32 87t-84 32t-84.5 -32t-32.5 -87q0 -54 32.5 -86.5t84.5 -32.5t84 32.5z" />
    <glyph glyph-name="Uhungarumlaut" unicode="&#x170;" horiz-adv-x="1417" 
d="M400 43q-121 62 -179.5 189.5t-58.5 327.5v920h162v-938q0 -219 93 -320t293 -101t293 101t93 320v938h159v-920q0 -200 -58 -327.5t-178 -189.5t-309 -62t-310 62zM479 1608l128 284h136l-138 -284h-126zM815 1608l129 284h136l-139 -284h-126z" />
    <glyph glyph-name="uhungarumlaut" unicode="&#x171;" horiz-adv-x="1127" 
d="M231.5 73q-92.5 91 -92.5 291v721h160v-713q0 -132 58.5 -189.5t163.5 -57.5q80 0 160.5 36t134.5 108v816h160v-1085h-135l-12 119h-10q-67 -68 -152.5 -102.5t-181.5 -34.5q-161 0 -253.5 91zM329 1253l140 363h134l-150 -363h-124zM663 1253l140 363h135l-151 -363
h-124z" />
    <glyph glyph-name="Uogonek" unicode="&#x172;" horiz-adv-x="1417" 
d="M1255 1480v-920q0 -228 -77.5 -364.5t-245.5 -186.5q-144 -44 -204 -101.5t-60 -126.5q0 -57 37 -86t110 -29q36 0 73.5 8.5t86.5 28.5v-80q-85 -37 -174 -37q-116 0 -175.5 48t-59.5 138q0 129 132 209q-185 2 -303.5 64.5t-175.5 189.5t-57 325v920h162v-938
q0 -219 93 -320t293 -101t293 101t93 320v938h159z" />
    <glyph glyph-name="uogonek" unicode="&#x173;" horiz-adv-x="1127" 
d="M1058 -296v-81q-34 -18 -75 -28.5t-83 -10.5q-102 0 -158.5 49t-56.5 135q0 70 37 128.5t118 110.5l-11 112h-10q-67 -68 -152.5 -102.5t-181.5 -34.5q-161 0 -253.5 91t-92.5 291v721h160v-713q0 -132 58.5 -189.5t163.5 -57.5q80 0 160.5 36t134.5 108v816h160v-1085
q-102 -54 -145.5 -107t-43.5 -116q0 -53 33.5 -83t93.5 -30q71 0 144 40z" />
    <glyph glyph-name="Wcircumflex" unicode="&#x174;" horiz-adv-x="2114" 
d="M1902 1480h156l-416 -1480h-213l-370 1303l-375 -1303h-212l-417 1480h166l366 -1331l378 1331h191l375 -1335zM1377 1608h-140l-179 214l-179 -214h-140l245 284h148z" />
    <glyph glyph-name="wcircumflex" unicode="&#x175;" horiz-adv-x="1691" 
d="M1480 1085h151l-316 -1085h-189l-279 927l-281 -927h-188l-318 1085h157l263 -919l275 919h188l274 -914zM1142 1253h-128l-167 280l-167 -280h-129l224 363h144z" />
    <glyph glyph-name="Ycircumflex" unicode="&#x176;" horiz-adv-x="1175" 
d="M1197 1480l-528 -822v-658h-162v658l-538 822h179l443 -679l438 679h168zM907 1608h-140l-179 214l-179 -214h-140l245 284h148z" />
    <glyph glyph-name="ycircumflex" unicode="&#x177;" horiz-adv-x="1057" 
d="M880 1085h161l-576 -1525h-160l167 440h-47l-409 1085h170l344 -951zM825 1253h-128l-167 280l-167 -280h-129l224 363h144z" />
    <glyph glyph-name="Ydieresis" unicode="&#x178;" horiz-adv-x="1175" 
d="M1197 1480l-528 -822v-658h-162v658l-538 822h179l443 -679l438 679h168zM278 1683.5q-27 24.5 -27 67.5q0 44 27.5 69.5t75.5 25.5t75 -25.5t27 -69.5q0 -43 -27 -67.5t-75 -24.5q-49 0 -76 24.5zM747 1683.5q-27 24.5 -27 67.5q0 44 27 69.5t75 25.5t75.5 -25.5
t27.5 -69.5q0 -43 -27 -67.5t-76 -24.5q-48 0 -75 24.5z" />
    <glyph glyph-name="Zacute" unicode="&#x179;" horiz-adv-x="1153" 
d="M275 140h817v-140h-1031v91l805 1249h-793v140h1007v-91zM503 1608l178 284h173l-204 -284h-147z" />
    <glyph glyph-name="zacute" unicode="&#x17a;" horiz-adv-x="918" 
d="M264 133h600v-133h-802v99l589 854h-577v132h778v-99zM389 1253l216 363h173l-241 -363h-148z" />
    <glyph glyph-name="Zdotaccent" unicode="&#x17b;" horiz-adv-x="1153" 
d="M275 140h817v-140h-1031v91l805 1249h-793v140h1007v-91zM495.5 1683q-29.5 24 -29.5 68t29.5 69.5t81.5 25.5t81.5 -25.5t29.5 -69.5t-29.5 -68t-81.5 -24t-81.5 24z" />
    <glyph glyph-name="zdotaccent" unicode="&#x17c;" horiz-adv-x="918" 
d="M264 133h600v-133h-802v99l589 854h-577v132h778v-99zM380 1346.5q-29 26.5 -29 74.5t29.5 75t82.5 27t82 -27t29 -75t-29 -74.5t-82 -26.5q-54 0 -83 26.5z" />
    <glyph glyph-name="Zcaron" unicode="&#x17d;" horiz-adv-x="1153" 
d="M275 140h817v-140h-1031v91l805 1249h-793v140h1007v-91zM756 1892h140l-245 -284h-148l-245 284h140l179 -214z" />
    <glyph glyph-name="zcaron" unicode="&#x17e;" horiz-adv-x="918" 
d="M264 133h600v-133h-802v99l589 854h-577v132h778v-99zM633 1616h129l-227 -363h-144l-227 363h129l170 -281z" />
    <glyph glyph-name="uni018F" unicode="&#x18f;" horiz-adv-x="1432" 
d="M1136.5 1315.5q190.5 -183.5 190.5 -581.5q0 -384 -162 -568.5t-448 -184.5q-294 0 -458 183t-164 565v73h1067q-10 205 -80 328t-198 177t-319 54q-94 0 -196 -12t-192 -36v140q188 46 399 46q370 0 560.5 -183.5zM1039 246q114 129 124 427h-899q7 -202 61.5 -324.5
t152.5 -177t240 -54.5q207 0 321 129z" />
    <glyph glyph-name="florin" unicode="&#x192;" horiz-adv-x="717" 
d="M443 1446.5q-61 -54.5 -61 -175.5v-186h341v-134h-341v-1035q0 -185 -100.5 -280.5t-293.5 -95.5q-81 0 -149 12v135q80 -12 134 -12q128 0 189 54.5t61 175.5v1046h-205v134h205v175q0 185 100 280.5t293 95.5q81 0 149 -12v-135q-79 12 -134 12q-127 0 -188 -54.5z" />
    <glyph glyph-name="Ohorn" unicode="&#x1a0;" horiz-adv-x="1439" 
d="M1274 1132q59 -159 59 -392q0 -389 -162 -574t-452 -185q-289 0 -451.5 186t-162.5 573q0 261 75.5 430t213 249t325.5 80q58 0 154 -12q9 -1 55 -6t94 -5q194 0 194 159q0 36 -5.5 69t-16.5 72h121q12 -37 17.5 -71t5.5 -77q0 -109 -62 -172.5t-173 -75.5
q112 -89 171 -248zM1049 265.5q116 144.5 116 469.5q0 332 -116 478t-330 146q-213 0 -329.5 -144.5t-116.5 -469.5q0 -332 116 -478t330 -146t330 144.5z" />
    <glyph glyph-name="ohorn" unicode="&#x1a1;" horiz-adv-x="1111" 
d="M1017 542q0 -284 -122 -422.5t-340 -138.5t-339.5 137.5t-121.5 422.5t121.5 423t342.5 138q45 0 111 -6q50 -4 68 -4q192 0 192 163q0 36 -5.5 69t-16.5 72h116q12 -37 17.5 -71t5.5 -76q0 -100 -50 -162.5t-140 -82.5q161 -137 161 -462zM777 209.5q76 98.5 76 329.5
q0 235 -76 333.5t-222 98.5q-145 0 -221.5 -98t-76.5 -329q0 -234 76 -333.5t222 -99.5t222 98.5z" />
    <glyph glyph-name="Uhorn" unicode="&#x1af;" horiz-adv-x="1418" 
d="M400 43q-121 62 -179.5 189.5t-58.5 327.5v920h162v-938q0 -219 93 -320t293 -101t293 101t93 320v938h60q95 0 144.5 37t49.5 118q0 36 -5.5 69t-16.5 72h121q13 -36 18 -70t5 -78q0 -103 -57.5 -163.5t-159.5 -72.5v-832q0 -200 -58 -327.5t-178 -189.5t-309 -62
t-310 62z" />
    <glyph glyph-name="uhorn" unicode="&#x1b0;" horiz-adv-x="1152" 
d="M1134.5 1072q-56.5 -64 -158.5 -80v-992h-135l-12 119h-10q-67 -68 -152.5 -102.5t-181.5 -34.5q-161 0 -253.5 91t-92.5 291v721h160v-713q0 -132 58.5 -189.5t163.5 -57.5q80 0 160.5 36t134.5 108v816h66q92 0 142 39.5t50 123.5q0 36 -5.5 68t-17.5 73h116
q13 -37 18.5 -71t5.5 -76q0 -106 -56.5 -170z" />
    <glyph glyph-name="uni01C4" unicode="&#x1c4;" horiz-adv-x="2504" 
d="M169 9v1447q92 18 193 28.5t194 10.5q368 0 553 -186.5t185 -568.5q0 -387 -192.5 -569.5t-581.5 -182.5q-166 0 -351 21zM873 190q127 63 190.5 198.5t63.5 351.5q0 320 -139 468t-427 148q-105 0 -230 -19v-1197q100 -13 221 -13q194 0 321 63zM1626 140h817v-140
h-1031v91l805 1249h-793v140h1007v-91zM2107 1892h140l-245 -284h-148l-245 284h140l179 -214z" />
    <glyph glyph-name="uni01C5" unicode="&#x1c5;" horiz-adv-x="2318" 
d="M169 9v1447q92 18 193 28.5t194 10.5q368 0 553 -186.5t185 -568.5q0 -387 -192.5 -569.5t-581.5 -182.5q-166 0 -351 21zM873 190q127 63 190.5 198.5t63.5 351.5q0 320 -139 468t-427 148q-105 0 -230 -19v-1197q100 -13 221 -13q194 0 321 63zM1664 133h600v-133h-802
v99l589 854h-577v132h778v-99zM2042 1572h140l-245 -284h-148l-245 284h140l179 -214z" />
    <glyph glyph-name="uni01C6" unicode="&#x1c6;" horiz-adv-x="2047" 
d="M301 36q-96 55 -151.5 175.5t-55.5 308.5q0 291 138.5 436.5t409.5 145.5q78 0 176 -15v529h160v-1616h-137l-11 118h-10q-51 -63 -128 -100t-171 -37q-124 0 -220 55zM703 152.5q69 33.5 115 100.5v699q-38 8 -86 13.5t-93 5.5q-193 0 -287.5 -103.5t-94.5 -332.5
q0 -227 78.5 -321.5t222.5 -94.5q76 0 145 33.5zM1393 133h600v-133h-802v99l589 854h-577v132h778v-99zM1762 1616h129l-227 -363h-144l-227 363h129l170 -281z" />
    <glyph glyph-name="uni01C7" unicode="&#x1c7;" horiz-adv-x="1571" 
d="M169 0v1480h162v-1338h728v-142h-890zM1062 -271q96 130 137 259.5t41 302.5v1189h162v-1210q-6 -180 -59 -322t-174 -292z" />
    <glyph glyph-name="uni01C8" unicode="&#x1c8;" horiz-adv-x="1534" 
d="M169 0v1480h162v-1338h728v-142h-890zM1043 -392q96 130 137.5 259.5t41.5 302.5v915h160v-906q0 -193 -54 -341.5t-178 -301.5zM1218 1351.5q-29 26.5 -29 74.5t29.5 75t82.5 27t82 -27t29 -75t-29 -74.5t-82 -26.5q-54 0 -83 26.5z" />
    <glyph glyph-name="uni01C9" unicode="&#x1c9;" horiz-adv-x="925" 
d="M151 0v1616h160v-1616h-160zM434 -392q96 130 137.5 259.5t41.5 302.5v915h160v-906q0 -193 -54 -341.5t-178 -301.5zM609 1351.5q-29 26.5 -29 74.5t29.5 75t82.5 27t82 -27t29 -75t-29 -74.5t-82 -26.5q-54 0 -83 26.5z" />
    <glyph glyph-name="uni01CA" unicode="&#x1ca;" horiz-adv-x="1969" 
d="M1146 1480h154v-1480h-167l-810 1232v-1232h-154v1480h167l810 -1232v1232zM1460 -271q96 130 137 259.5t41 302.5v1189h162v-1210q-6 -180 -59 -322t-174 -292z" />
    <glyph glyph-name="uni01CB" unicode="&#x1cb;" horiz-adv-x="1932" 
d="M1146 1480h154v-1480h-167l-810 1232v-1232h-154v1480h167l810 -1232v1232zM1441 -392q96 130 137.5 259.5t41.5 302.5v915h160v-906q0 -193 -54 -341.5t-178 -301.5zM1616 1351.5q-29 26.5 -29 74.5t29.5 75t82.5 27t82 -27t29 -75t-29 -74.5t-82 -26.5q-54 0 -83 26.5z
" />
    <glyph glyph-name="uni01CC" unicode="&#x1cc;" horiz-adv-x="1600" 
d="M151 1085h135l11 -123h11q67 68 154.5 104t186.5 36q163 0 255.5 -91.5t92.5 -293.5v-717h-160v710q0 133 -58.5 191t-168.5 58q-81 0 -162 -35t-137 -109v-815h-160v1085zM1109 -392q96 130 137.5 259.5t41.5 302.5v915h160v-906q0 -193 -54 -341.5t-178 -301.5z
M1284 1351.5q-29 26.5 -29 74.5t29.5 75t82.5 27t82 -27t29 -75t-29 -74.5t-82 -26.5q-54 0 -83 26.5z" />
    <glyph glyph-name="Gcaron" unicode="&#x1e6;" horiz-adv-x="1347" 
d="M1196 720v-704q-93 -16 -171 -22.5t-161 -6.5q-380 0 -569 182t-190 569q0 390 190 575.5t535 185.5q165 0 332 -44v-142q-86 24 -164 34.5t-158 10.5q-277 0 -421 -145t-144 -476q0 -215 64.5 -350t192.5 -197.5t323 -62.5q101 0 187 12v581h154zM923 1892h140
l-245 -284h-148l-245 284h140l179 -214z" />
    <glyph glyph-name="gcaron" unicode="&#x1e7;" horiz-adv-x="1129" 
d="M319 -447.5q-85 12.5 -156 36.5v134q163 -51 311 -51q120 0 195 33t112 107t37 198v105h-10q-51 -60 -128 -94.5t-172 -34.5q-118 0 -211 54.5t-148 174t-55 306.5q0 290 138.5 435t411.5 146q84 0 172.5 -13t161.5 -36v-1018q0 -176 -55 -285t-164 -159.5t-277 -50.5
q-78 0 -163 12.5zM702 154.5q70 31.5 116 93.5v701q-90 22 -187 22q-187 0 -280.5 -104t-93.5 -331t78.5 -320t220.5 -93q76 0 146 31.5zM754 1616h129l-227 -363h-144l-227 363h129l170 -281z" />
    <glyph glyph-name="uni01EA" unicode="&#x1ea;" horiz-adv-x="1439" 
d="M746.5 -93.5q-58.5 -59.5 -58.5 -129.5q0 -55 37 -84t110 -29q36 0 73.5 8.5t87.5 28.5v-80q-86 -37 -174 -37q-115 0 -176 48t-61 136q0 63 31 116t101 97q-289 2 -450.5 187.5t-161.5 571.5q0 261 75.5 430t213 249t325.5 80q289 0 451.5 -185t162.5 -574
q0 -310 -104 -486t-284 -239q-140 -49 -198.5 -108.5zM389 267q116 -146 330 -146t330 144.5t116 469.5q0 332 -116 478t-330 146q-213 0 -329.5 -144.5t-116.5 -469.5q0 -332 116 -478z" />
    <glyph glyph-name="uni01EB" unicode="&#x1eb;" horiz-adv-x="1111" 
d="M543 -95q-52 -59 -52 -126q0 -55 34 -85t93 -30q66 0 131 32l14 -75q-72 -37 -158 -37q-101 0 -158.5 48.5t-57.5 135.5q0 133 125 214q-200 13 -310 150.5t-110 408.5q0 285 121 423t340 138q220 0 341 -137t121 -423q0 -440 -298 -538q-124 -40 -176 -99zM333 210.5
q76 -99.5 222 -99.5t222 98.5t76 329.5q0 235 -76 333.5t-222 98.5q-145 0 -221.5 -98t-76.5 -329q0 -234 76 -333.5z" />
    <glyph glyph-name="uni01F1" unicode="&#x1f1;" horiz-adv-x="2504" 
d="M169 9v1447q92 18 193 28.5t194 10.5q368 0 553 -186.5t185 -568.5q0 -387 -192.5 -569.5t-581.5 -182.5q-166 0 -351 21zM873 190q127 63 190.5 198.5t63.5 351.5q0 320 -139 468t-427 148q-105 0 -230 -19v-1197q100 -13 221 -13q194 0 321 63zM1626 140h817v-140
h-1031v91l805 1249h-793v140h1007v-91z" />
    <glyph glyph-name="uni01F2" unicode="&#x1f2;" horiz-adv-x="2318" 
d="M169 9v1447q92 18 193 28.5t194 10.5q368 0 553 -186.5t185 -568.5q0 -387 -192.5 -569.5t-581.5 -182.5q-166 0 -351 21zM873 190q127 63 190.5 198.5t63.5 351.5q0 320 -139 468t-427 148q-105 0 -230 -19v-1197q100 -13 221 -13q194 0 321 63zM1664 133h600v-133h-802
v99l589 854h-577v132h778v-99z" />
    <glyph glyph-name="uni01F3" unicode="&#x1f3;" horiz-adv-x="2047" 
d="M301 36q-96 55 -151.5 175.5t-55.5 308.5q0 291 138.5 436.5t409.5 145.5q78 0 176 -15v529h160v-1616h-137l-11 118h-10q-51 -63 -128 -100t-171 -37q-124 0 -220 55zM703 152.5q69 33.5 115 100.5v699q-38 8 -86 13.5t-93 5.5q-193 0 -287.5 -103.5t-94.5 -332.5
q0 -227 78.5 -321.5t222.5 -94.5q76 0 145 33.5zM1393 133h600v-133h-802v99l589 854h-577v132h778v-99z" />
    <glyph glyph-name="uni01F4" unicode="&#x1f4;" horiz-adv-x="1347" 
d="M1196 720v-704q-93 -16 -171 -22.5t-161 -6.5q-380 0 -569 182t-190 569q0 390 190 575.5t535 185.5q165 0 332 -44v-142q-86 24 -164 34.5t-158 10.5q-277 0 -421 -145t-144 -476q0 -215 64.5 -350t192.5 -197.5t323 -62.5q101 0 187 12v581h154zM670 1608l178 284h173
l-204 -284h-147z" />
    <glyph glyph-name="uni01F5" unicode="&#x1f5;" horiz-adv-x="1129" 
d="M319 -447.5q-85 12.5 -156 36.5v134q163 -51 311 -51q120 0 195 33t112 107t37 198v105h-10q-51 -60 -128 -94.5t-172 -34.5q-118 0 -211 54.5t-148 174t-55 306.5q0 290 138.5 435t411.5 146q84 0 172.5 -13t161.5 -36v-1018q0 -176 -55 -285t-164 -159.5t-277 -50.5
q-78 0 -163 12.5zM702 154.5q70 31.5 116 93.5v701q-90 22 -187 22q-187 0 -280.5 -104t-93.5 -331t78.5 -320t220.5 -93q76 0 146 31.5zM510 1253l216 363h173l-241 -363h-148z" />
    <glyph glyph-name="Aringacute" unicode="&#x1fa;" horiz-adv-x="1348" 
d="M985 479h-625l-169 -479h-163l531 1480h46q-56 21 -90 69t-34 112q0 55 25.5 99.5t70 69.5t100.5 25q48 0 86 -18l124 131h136l-186 -192q35 -51 35 -115t-33.5 -112.5t-90.5 -68.5h40l531 -1480h-165zM592.5 1574.5q32.5 -32.5 84.5 -32.5t84 32.5t32 86.5q0 55 -32 87
t-84 32t-84.5 -32t-32.5 -87q0 -54 32.5 -86.5zM408 616h528l-264 746z" />
    <glyph glyph-name="aringacute" unicode="&#x1fb;" horiz-adv-x="1029" 
d="M707 1065q91 -37 137 -123t46 -231v-711h-134l-12 121h-11q-52 -66 -134.5 -102.5t-178.5 -36.5q-101 0 -175 35.5t-113.5 102.5t-39.5 158q0 144 94 222.5t299 98.5l248 27v93q0 97 -30.5 152t-91 77.5t-158.5 22.5q-67 0 -143.5 -12t-149.5 -37v132q67 23 152 35.5
t162 12.5q142 0 233 -37zM608 138q71 32 125 100v280l-237 -26q-127 -13 -184.5 -62t-57.5 -137q0 -92 52 -139.5t154 -47.5q77 0 148 32zM667 1562q39 -50 39 -121q0 -55 -25 -99t-69.5 -69t-100.5 -25t-100.5 25t-70 69t-25.5 99t25.5 99.5t70 69.5t100.5 25q45 0 81 -16
l131 161h135zM595 1354.5q32 32.5 32 86.5q0 55 -32 87t-84 32t-84.5 -32t-32.5 -87q0 -54 32.5 -86.5t84.5 -32.5t84 32.5z" />
    <glyph glyph-name="AEacute" unicode="&#x1fc;" horiz-adv-x="1846" 
d="M1091 138h683v-138h-834l-33 479h-542l-173 -479h-164l540 1480h1196v-138h-758l36 -514h625v-137h-615zM415 616h483l-50 726h-171zM845 1608l178 284h173l-204 -284h-147z" />
    <glyph glyph-name="aeacute" unicode="&#x1fd;" horiz-adv-x="1655" 
d="M1577 489h-687q4 -137 45 -219.5t119.5 -120t200.5 -37.5q119 0 268 44v-131q-146 -44 -286 -44q-151 0 -256 47t-165 145q-84 -103 -179.5 -147t-204.5 -44q-105 0 -182 35t-117.5 102t-40.5 159q0 149 101 235t317 86h224v121q0 97 -31 151.5t-92 77t-158 22.5
q-67 0 -143 -12t-149 -37v132q69 23 150 35.5t158 12.5q144 0 234 -43t131 -138q52 91 136 136t196 45q197 0 304 -139t107 -422v-52zM962.5 895.5q-68.5 -90.5 -72.5 -296.5h533q-4 208 -70.5 297.5t-192.5 89.5q-129 0 -197.5 -90.5zM628.5 146.5q78.5 40.5 139.5 132.5
q-29 98 -33 213h-217q-264 0 -264 -200q0 -91 53 -138.5t156 -47.5q87 0 165.5 40.5zM740 1253l216 363h173l-241 -363h-148z" />
    <glyph glyph-name="Oslashacute" unicode="&#x1fe;" horiz-adv-x="1439" 
d="M1333 740q0 -260 -75.5 -429.5t-212.5 -249.5t-326 -80q-250 0 -401 134l-106 -143l-82 61l118 159q-143 193 -143 548q0 261 75.5 430t213 249t325.5 80q250 0 400 -134l106 143l82 -61l-118 -158q144 -193 144 -549zM350 330l676 910q-109 119 -307 119
q-213 0 -329.5 -144.5t-116.5 -469.5q0 -266 77 -415zM1049 265.5q116 144.5 116 469.5q0 265 -78 416l-676 -911q109 -119 308 -119q214 0 330 144.5zM642 1608l178 284h173l-204 -284h-147z" />
    <glyph glyph-name="oslashacute" unicode="&#x1ff;" horiz-adv-x="1111" 
d="M1017 542q0 -284 -122 -422.5t-340 -138.5q-172 0 -281 83l-68 -95l-80 58l77 108q-109 142 -109 406q0 285 121 423t340 138q170 0 280 -80l68 94l80 -58l-76 -107q110 -141 110 -409zM331 874.5q-77 -98.5 -77 -330.5q0 -180 46 -281l456 639q-71 71 -201 71
q-147 0 -224 -98.5zM780 208.5q77 98.5 77 330.5q0 180 -48 284l-456 -640q72 -73 202 -73q148 0 225 98.5zM476 1253l216 363h173l-241 -363h-148z" />
    <glyph glyph-name="uni0200" unicode="&#x200;" horiz-adv-x="1348" 
d="M1154 0l-169 479h-625l-169 -479h-163l531 1480h229l531 -1480h-165zM408 616h528l-264 746zM443 1608l-139 284h136l129 -284h-126zM779 1608l-138 284h136l128 -284h-126z" />
    <glyph glyph-name="uni0201" unicode="&#x201;" horiz-adv-x="1029" 
d="M707 1065q91 -37 137 -123t46 -231v-711h-134l-12 121h-11q-52 -66 -134.5 -102.5t-178.5 -36.5q-101 0 -175 35.5t-113.5 102.5t-39.5 158q0 144 94 222.5t299 98.5l248 27v93q0 97 -30.5 152t-91 77.5t-158.5 22.5q-67 0 -143.5 -12t-149.5 -37v132q67 23 152 35.5
t162 12.5q142 0 233 -37zM608 138q71 32 125 100v280l-237 -26q-127 -13 -184.5 -62t-57.5 -137q0 -92 52 -139.5t154 -47.5q77 0 148 32zM280 1253l-151 363h138l139 -363h-126zM616 1253l-150 363h137l139 -363h-126z" />
    <glyph glyph-name="uni0202" unicode="&#x202;" horiz-adv-x="1348" 
d="M1154 0l-169 479h-625l-169 -479h-163l531 1480h229l531 -1480h-165zM408 616h528l-264 746zM446.5 1816q79.5 67 225.5 67q147 0 228 -67.5t93 -186.5h-109q-12 81 -61.5 120t-150.5 39t-149.5 -39t-59.5 -120h-108q12 120 91.5 187z" />
    <glyph glyph-name="uni0203" unicode="&#x203;" horiz-adv-x="1029" 
d="M707 1065q91 -37 137 -123t46 -231v-711h-134l-12 121h-11q-52 -66 -134.5 -102.5t-178.5 -36.5q-101 0 -175 35.5t-113.5 102.5t-39.5 158q0 144 94 222.5t299 98.5l248 27v93q0 97 -30.5 152t-91 77.5t-158.5 22.5q-67 0 -143.5 -12t-149.5 -37v132q67 23 152 35.5
t162 12.5q142 0 233 -37zM608 138q71 32 125 100v280l-237 -26q-127 -13 -184.5 -62t-57.5 -137q0 -92 52 -139.5t154 -47.5q77 0 148 32zM294.5 1523q76.5 84 214.5 84t216.5 -85t84.5 -241h-107q-8 115 -55.5 172.5t-138.5 57.5t-137 -57t-53 -173h-108q7 158 83.5 242z
" />
    <glyph glyph-name="uni0204" unicode="&#x204;" horiz-adv-x="1166" 
d="M330 138h764v-138h-925v1480h915v-138h-754v-514h657v-137h-657v-553zM418 1608l-139 284h136l129 -284h-126zM754 1608l-138 284h136l128 -284h-126z" />
    <glyph glyph-name="uni0205" unicode="&#x205;" horiz-adv-x="1030" 
d="M951 489h-695q4 -137 45.5 -220t121.5 -120t204 -37q118 0 270 44v-131q-148 -44 -289 -44q-259 0 -386.5 134t-127.5 428q0 279 115.5 419t323.5 140q203 0 310.5 -139.5t107.5 -423.5v-50zM330 895q-70 -90 -74 -296h541q-4 207 -70.5 296.5t-195.5 89.5
q-131 0 -201 -90zM300 1253l-151 363h138l139 -363h-126zM636 1253l-150 363h137l139 -363h-126z" />
    <glyph glyph-name="uni0206" unicode="&#x206;" horiz-adv-x="1166" 
d="M330 138h764v-138h-925v1480h915v-138h-754v-514h657v-137h-657v-553zM421.5 1816q79.5 67 225.5 67q147 0 228 -67.5t93 -186.5h-109q-12 81 -61.5 120t-150.5 39t-149.5 -39t-59.5 -120h-108q12 120 91.5 187z" />
    <glyph glyph-name="uni0207" unicode="&#x207;" horiz-adv-x="1030" 
d="M951 489h-695q4 -137 45.5 -220t121.5 -120t204 -37q118 0 270 44v-131q-148 -44 -289 -44q-259 0 -386.5 134t-127.5 428q0 279 115.5 419t323.5 140q203 0 310.5 -139.5t107.5 -423.5v-50zM330 895q-70 -90 -74 -296h541q-4 207 -70.5 296.5t-195.5 89.5
q-131 0 -201 -90zM314.5 1523q76.5 84 214.5 84t216.5 -85t84.5 -241h-107q-8 115 -55.5 172.5t-138.5 57.5t-137 -57t-53 -173h-108q7 158 83.5 242z" />
    <glyph glyph-name="uni0208" unicode="&#x208;" horiz-adv-x="500" 
d="M169 0v1480h162v-1480h-162zM19 1608l-139 284h136l129 -284h-126zM355 1608l-138 284h136l128 -284h-126z" />
    <glyph glyph-name="uni0209" unicode="&#x209;" horiz-adv-x="463" 
d="M151 0v1085h160v-1085h-160zM0 1253l-151 363h138l139 -363h-126zM336 1253l-150 363h137l139 -363h-126z" />
    <glyph glyph-name="uni020A" unicode="&#x20a;" horiz-adv-x="500" 
d="M169 0v1480h162v-1480h-162zM22.5 1816q79.5 67 225.5 67q147 0 228 -67.5t93 -186.5h-109q-12 81 -61.5 120t-150.5 39t-149.5 -39t-59.5 -120h-108q12 120 91.5 187z" />
    <glyph glyph-name="uni020B" unicode="&#x20b;" horiz-adv-x="463" 
d="M151 0v1085h160v-1085h-160zM14.5 1523q76.5 84 214.5 84t216.5 -85t84.5 -241h-107q-8 115 -55.5 172.5t-138.5 57.5t-137 -57t-53 -173h-108q7 158 83.5 242z" />
    <glyph glyph-name="uni020C" unicode="&#x20c;" horiz-adv-x="1439" 
d="M267.5 167q-162.5 186 -162.5 573q0 261 75.5 430t213 249t325.5 80q289 0 451.5 -186t162.5 -573q0 -260 -75.5 -429.5t-212.5 -249.5t-326 -80q-289 0 -451.5 186zM1049 265.5q116 144.5 116 469.5q0 332 -116 478t-330 146q-213 0 -329.5 -144.5t-116.5 -469.5
q0 -332 116 -478t330 -146t330 144.5zM488 1608l-139 284h136l129 -284h-126zM824 1608l-138 284h136l128 -284h-126z" />
    <glyph glyph-name="uni020D" unicode="&#x20d;" horiz-adv-x="1111" 
d="M215.5 118.5q-121.5 137.5 -121.5 422.5t121 423t340 138q220 0 341 -137t121 -423q0 -284 -122 -422.5t-340 -138.5t-339.5 137.5zM777 209.5q76 98.5 76 329.5q0 235 -76 333.5t-222 98.5q-145 0 -221.5 -98t-76.5 -329q0 -234 76 -333.5t222 -99.5t222 98.5zM324 1253
l-151 363h138l139 -363h-126zM660 1253l-150 363h137l139 -363h-126z" />
    <glyph glyph-name="uni020E" unicode="&#x20e;" horiz-adv-x="1439" 
d="M267.5 167q-162.5 186 -162.5 573q0 261 75.5 430t213 249t325.5 80q289 0 451.5 -186t162.5 -573q0 -260 -75.5 -429.5t-212.5 -249.5t-326 -80q-289 0 -451.5 186zM1049 265.5q116 144.5 116 469.5q0 332 -116 478t-330 146q-213 0 -329.5 -144.5t-116.5 -469.5
q0 -332 116 -478t330 -146t330 144.5zM491.5 1816q79.5 67 225.5 67q147 0 228 -67.5t93 -186.5h-109q-12 81 -61.5 120t-150.5 39t-149.5 -39t-59.5 -120h-108q12 120 91.5 187z" />
    <glyph glyph-name="uni020F" unicode="&#x20f;" horiz-adv-x="1111" 
d="M215.5 118.5q-121.5 137.5 -121.5 422.5t121 423t340 138q220 0 341 -137t121 -423q0 -284 -122 -422.5t-340 -138.5t-339.5 137.5zM777 209.5q76 98.5 76 329.5q0 235 -76 333.5t-222 98.5q-145 0 -221.5 -98t-76.5 -329q0 -234 76 -333.5t222 -99.5t222 98.5z
M338.5 1523q76.5 84 214.5 84t216.5 -85t84.5 -241h-107q-8 115 -55.5 172.5t-138.5 57.5t-137 -57t-53 -173h-108q7 158 83.5 242z" />
    <glyph glyph-name="uni0210" unicode="&#x210;" horiz-adv-x="1307" 
d="M1074 0l-460 613q-50 -2 -79 -2q-100 0 -206 8v-619h-160v1456q205 40 395 40q294 0 436 -107t142 -332q1 -171 -91.5 -277t-273.5 -146l479 -634h-182zM433.5 743q43.5 -2 102.5 -2q236 0 344 76t108 238q0 111 -43 179t-134 99.5t-237 31.5q-72 0 -127.5 -5t-117.5 -16
v-593q61 -6 104.5 -8zM399 1608l-139 284h136l129 -284h-126zM735 1608l-138 284h136l128 -284h-126z" />
    <glyph glyph-name="uni0211" unicode="&#x211;" horiz-adv-x="724" 
d="M151 1085h134l13 -145h10q54 75 138.5 115.5t178.5 40.5q44 0 87 -8v-149q-43 7 -94 7q-85 0 -170.5 -39.5t-136.5 -113.5v-793h-160v1085zM192 1253l-151 363h138l139 -363h-126zM528 1253l-150 363h137l139 -363h-126z" />
    <glyph glyph-name="uni0212" unicode="&#x212;" horiz-adv-x="1307" 
d="M1074 0l-460 613q-50 -2 -79 -2q-100 0 -206 8v-619h-160v1456q205 40 395 40q294 0 436 -107t142 -332q1 -171 -91.5 -277t-273.5 -146l479 -634h-182zM433.5 743q43.5 -2 102.5 -2q236 0 344 76t108 238q0 111 -43 179t-134 99.5t-237 31.5q-72 0 -127.5 -5t-117.5 -16
v-593q61 -6 104.5 -8zM402.5 1816q79.5 67 225.5 67q147 0 228 -67.5t93 -186.5h-109q-12 81 -61.5 120t-150.5 39t-149.5 -39t-59.5 -120h-108q12 120 91.5 187z" />
    <glyph glyph-name="uni0213" unicode="&#x213;" horiz-adv-x="724" 
d="M151 1085h134l13 -145h10q54 75 138.5 115.5t178.5 40.5q44 0 87 -8v-149q-43 7 -94 7q-85 0 -170.5 -39.5t-136.5 -113.5v-793h-160v1085zM206.5 1523q76.5 84 214.5 84t216.5 -85t84.5 -241h-107q-8 115 -55.5 172.5t-138.5 57.5t-137 -57t-53 -173h-108
q7 158 83.5 242z" />
    <glyph glyph-name="uni0214" unicode="&#x214;" horiz-adv-x="1417" 
d="M400 43q-121 62 -179.5 189.5t-58.5 327.5v920h162v-938q0 -219 93 -320t293 -101t293 101t93 320v938h159v-920q0 -200 -58 -327.5t-178 -189.5t-309 -62t-310 62zM479 1608l-139 284h136l129 -284h-126zM815 1608l-138 284h136l128 -284h-126z" />
    <glyph glyph-name="uni0215" unicode="&#x215;" horiz-adv-x="1127" 
d="M231.5 73q-92.5 91 -92.5 291v721h160v-713q0 -132 58.5 -189.5t163.5 -57.5q80 0 160.5 36t134.5 108v816h160v-1085h-135l-12 119h-10q-67 -68 -152.5 -102.5t-181.5 -34.5q-161 0 -253.5 91zM327 1253l-151 363h138l139 -363h-126zM663 1253l-150 363h137l139 -363
h-126z" />
    <glyph glyph-name="uni0216" unicode="&#x216;" horiz-adv-x="1417" 
d="M400 43q-121 62 -179.5 189.5t-58.5 327.5v920h162v-938q0 -219 93 -320t293 -101t293 101t93 320v938h159v-920q0 -200 -58 -327.5t-178 -189.5t-309 -62t-310 62zM482.5 1816q79.5 67 225.5 67q147 0 228 -67.5t93 -186.5h-109q-12 81 -61.5 120t-150.5 39t-149.5 -39
t-59.5 -120h-108q12 120 91.5 187z" />
    <glyph glyph-name="uni0217" unicode="&#x217;" horiz-adv-x="1127" 
d="M231.5 73q-92.5 91 -92.5 291v721h160v-713q0 -132 58.5 -189.5t163.5 -57.5q80 0 160.5 36t134.5 108v816h160v-1085h-135l-12 119h-10q-67 -68 -152.5 -102.5t-181.5 -34.5q-161 0 -253.5 91zM341.5 1523q76.5 84 214.5 84t216.5 -85t84.5 -241h-107
q-8 115 -55.5 172.5t-138.5 57.5t-137 -57t-53 -173h-108q7 158 83.5 242z" />
    <glyph glyph-name="Scommaaccent" unicode="&#x218;" horiz-adv-x="1063" 
d="M277 -3.5q-95 15.5 -180 44.5v140q90 -31 184.5 -46t182.5 -15q361 0 361 271q0 75 -29.5 125.5t-93 85t-172.5 62.5l-80 21q-190 49 -283 146.5t-93 256.5q0 128 59.5 220.5t177 141.5t290.5 49q86 0 170 -11.5t153 -33.5v-140q-150 46 -318 46q-187 0 -277.5 -67.5
t-90.5 -194.5q0 -73 26.5 -123t85.5 -84.5t161 -61.5l80 -20q206 -52 302 -150t96 -258q0 -133 -62 -227t-180 -143.5t-285 -49.5q-90 0 -185 15.5zM617.5 -191q27.5 -28 27.5 -82q0 -43 -15.5 -95.5t-41.5 -97.5h-100q34 78 42 140q-46 2 -70.5 24t-24.5 58q0 38 26.5 59.5
t75.5 21.5q53 0 80.5 -28z" />
    <glyph glyph-name="scommaaccent" unicode="&#x219;" horiz-adv-x="900" 
d="M109 25v129q149 -45 301 -45q268 0 268 182q0 74 -38.5 113t-128.5 59l-147 30q-145 31 -210 103t-65 192q0 93 47 164t143.5 110.5t238.5 39.5q131 0 256 -32v-130q-66 18 -126 26t-126 8q-147 0 -213.5 -49.5t-66.5 -132.5q0 -67 37 -108t125 -60l147 -30
q148 -31 214.5 -102t66.5 -193q0 -150 -109 -234t-313 -84q-165 0 -301 44zM532.5 -191q27.5 -28 27.5 -82q0 -43 -15.5 -95.5t-41.5 -97.5h-100q34 78 42 140q-46 2 -70.5 24t-24.5 58q0 38 26.5 59.5t75.5 21.5q53 0 80.5 -28z" />
    <glyph glyph-name="uni021A" unicode="&#x21a;" horiz-adv-x="1175" 
d="M506 0v1338h-492v142h1148v-142h-493v-1338h-163zM665.5 -191q27.5 -28 27.5 -82q0 -43 -15.5 -95.5t-41.5 -97.5h-100q34 78 42 140q-46 2 -70.5 24t-24.5 58q0 38 26.5 59.5t75.5 21.5q53 0 80.5 -28z" />
    <glyph glyph-name="uni021B" unicode="&#x21b;" horiz-adv-x="749" 
d="M733 136v-135q-85 -20 -167 -20q-351 0 -351 360v612h-205v132h205l26 395h134v-395h341v-132h-341v-587q0 -133 54.5 -189.5t170.5 -56.5q57 0 133 16zM551.5 -191q27.5 -28 27.5 -82q0 -43 -15.5 -95.5t-41.5 -97.5h-100q34 78 42 140q-46 2 -70.5 24t-24.5 58
q0 38 26.5 59.5t75.5 21.5q53 0 80.5 -28z" />
    <glyph glyph-name="uni022A" unicode="&#x22a;" horiz-adv-x="1439" 
d="M267.5 167q-162.5 186 -162.5 573q0 261 75.5 430t213 249t325.5 80q289 0 451.5 -186t162.5 -573q0 -260 -75.5 -429.5t-212.5 -249.5t-326 -80q-289 0 -451.5 186zM1049 265.5q116 144.5 116 469.5q0 332 -116 478t-330 146q-213 0 -329.5 -144.5t-116.5 -469.5
q0 -332 116 -478t330 -146t330 144.5zM409 1683.5q-27 24.5 -27 67.5q0 44 27.5 69.5t75.5 25.5t75 -25.5t27 -69.5q0 -43 -27 -67.5t-75 -24.5q-49 0 -76 24.5zM878 1683.5q-27 24.5 -27 67.5q0 44 27 69.5t75 25.5t75.5 -25.5t27.5 -69.5q0 -43 -27 -67.5t-76 -24.5
q-48 0 -75 24.5zM413 1969v109h612v-109h-612z" />
    <glyph glyph-name="uni022B" unicode="&#x22b;" horiz-adv-x="1111" 
d="M215.5 118.5q-121.5 137.5 -121.5 422.5t121 423t340 138q220 0 341 -137t121 -423q0 -284 -122 -422.5t-340 -138.5t-339.5 137.5zM777 209.5q76 98.5 76 329.5q0 235 -76 333.5t-222 98.5q-145 0 -221.5 -98t-76.5 -329q0 -234 76 -333.5t222 -99.5t222 98.5z
M262.5 1348.5q-27.5 26.5 -27.5 72.5t27.5 73t75.5 27q47 0 74.5 -27t27.5 -73t-27.5 -72.5t-74.5 -26.5q-48 0 -75.5 26.5zM697.5 1348.5q-27.5 26.5 -27.5 72.5t27.5 73t74.5 27q48 0 75.5 -27t27.5 -73t-27.5 -72.5t-75.5 -26.5q-47 0 -74.5 26.5zM245 1672v108h620v-108
h-620z" />
    <glyph glyph-name="uni022C" unicode="&#x22c;" horiz-adv-x="1439" 
d="M267.5 167q-162.5 186 -162.5 573q0 261 75.5 430t213 249t325.5 80q289 0 451.5 -186t162.5 -573q0 -260 -75.5 -429.5t-212.5 -249.5t-326 -80q-289 0 -451.5 186zM1049 265.5q116 144.5 116 469.5q0 332 -116 478t-330 146q-213 0 -329.5 -144.5t-116.5 -469.5
q0 -332 116 -478t330 -146t330 144.5zM795.5 1678q-35.5 10 -91.5 30q-45 18 -77 27t-65 9q-53 0 -93 -17t-78 -54v111q63 65 173 65q43 0 80 -10.5t90 -30.5q45 -18 77 -27t64 -9q53 0 93 17t79 54v-110q-32 -33 -74 -49t-100 -16q-42 0 -77.5 10zM413 1969v109h612v-109
h-612z" />
    <glyph glyph-name="uni022D" unicode="&#x22d;" horiz-adv-x="1111" 
d="M215.5 118.5q-121.5 137.5 -121.5 422.5t121 423t340 138q220 0 341 -137t121 -423q0 -284 -122 -422.5t-340 -138.5t-339.5 137.5zM777 209.5q76 98.5 76 329.5q0 235 -76 333.5t-222 98.5q-145 0 -221.5 -98t-76.5 -329q0 -234 76 -333.5t222 -99.5t222 98.5z
M626.5 1355.5q-33.5 10.5 -87.5 33.5q-41 19 -70.5 28.5t-58.5 9.5q-49 0 -88 -18t-77 -58v116q62 67 167 67q38 0 71.5 -10.5t87.5 -33.5q41 -19 70.5 -28.5t58.5 -9.5q48 0 87.5 18.5t77.5 57.5v-116q-64 -67 -167 -67q-38 0 -71.5 10.5zM245 1672v108h620v-108h-620z" />
    <glyph glyph-name="uni0230" unicode="&#x230;" horiz-adv-x="1439" 
d="M267.5 167q-162.5 186 -162.5 573q0 261 75.5 430t213 249t325.5 80q289 0 451.5 -186t162.5 -573q0 -260 -75.5 -429.5t-212.5 -249.5t-326 -80q-289 0 -451.5 186zM1049 265.5q116 144.5 116 469.5q0 332 -116 478t-330 146q-213 0 -329.5 -144.5t-116.5 -469.5
q0 -332 116 -478t330 -146t330 144.5zM637.5 1683q-29.5 24 -29.5 68t29.5 69.5t81.5 25.5t81.5 -25.5t29.5 -69.5t-29.5 -68t-81.5 -24t-81.5 24zM413 1969v109h612v-109h-612z" />
    <glyph glyph-name="uni0231" unicode="&#x231;" horiz-adv-x="1111" 
d="M215.5 118.5q-121.5 137.5 -121.5 422.5t121 423t340 138q220 0 341 -137t121 -423q0 -284 -122 -422.5t-340 -138.5t-339.5 137.5zM777 209.5q76 98.5 76 329.5q0 235 -76 333.5t-222 98.5q-145 0 -221.5 -98t-76.5 -329q0 -234 76 -333.5t222 -99.5t222 98.5z
M472 1346.5q-29 26.5 -29 74.5t29.5 75t82.5 27t82 -27t29 -75t-29 -74.5t-82 -26.5q-54 0 -83 26.5zM245 1673v108h620v-108h-620z" />
    <glyph glyph-name="uni0232" unicode="&#x232;" horiz-adv-x="1175" 
d="M1197 1480l-528 -822v-658h-162v658l-538 822h179l443 -679l438 679h168zM282 1696v109h612v-109h-612z" />
    <glyph glyph-name="uni0233" unicode="&#x233;" horiz-adv-x="1057" 
d="M880 1085h161l-576 -1525h-160l167 440h-47l-409 1085h170l344 -951zM220 1368v108h620v-108h-620z" />
    <glyph glyph-name="uni0237" unicode="&#x237;" horiz-adv-x="463" 
d="M-28 -392q96 130 137.5 259.5t41.5 302.5v915h160v-906q0 -193 -54 -341.5t-178 -301.5z" />
    <glyph glyph-name="uni0259" unicode="&#x259;" horiz-adv-x="1030" 
d="M808.5 970q127.5 -134 127.5 -428q0 -279 -115.5 -419t-323.5 -140q-203 0 -310.5 139.5t-107.5 423.5v50h695q-4 137 -45.5 220t-121.5 120t-204 37q-118 0 -270 -44v131q148 44 289 44q259 0 386.5 -134zM700 190q70 90 74 296h-541q4 -207 70.5 -296.5t195.5 -89.5
q131 0 201 90z" />
    <glyph glyph-name="uni02BB" unicode="&#x2bb;" horiz-adv-x="1058" 
d="M609.5 1460q24.5 -22 24.5 -58q0 -37 -26.5 -59t-75.5 -22q-53 0 -80.5 28t-27.5 82q0 43 15.5 95.5t41.5 97.5h100q-34 -74 -42 -140q46 -2 70.5 -24z" />
    <glyph glyph-name="uni02BC" unicode="&#x2bc;" horiz-adv-x="1058" 
d="M738 1515q0 -44 -15 -96t-41 -98h-100q33 75 41 140q-46 3 -70 25t-24 58q0 37 26.5 58.5t75.5 21.5q107 0 107 -109z" />
    <glyph glyph-name="uni02BE" unicode="&#x2be;" horiz-adv-x="1058" 
d="M529 1322q52 0 84 32.5t32 86.5q0 55 -32 87t-84 32v75q56 0 100.5 -25t69.5 -69.5t25 -99.5t-25 -99t-69.5 -69t-100.5 -25v74z" />
    <glyph glyph-name="uni02BF" unicode="&#x2bf;" horiz-adv-x="1058" 
d="M428.5 1273q-44.5 25 -70 69t-25.5 99t25.5 99.5t70 69.5t100.5 25v-75q-52 0 -84.5 -32t-32.5 -87q0 -54 32.5 -86.5t84.5 -32.5v-74q-56 0 -100.5 25z" />
    <glyph glyph-name="circumflex" unicode="&#x2c6;" horiz-adv-x="1058" 
d="M824 1253h-128l-167 280l-167 -280h-129l224 363h144z" />
    <glyph glyph-name="caron" unicode="&#x2c7;" horiz-adv-x="1058" 
d="M699 1616h129l-227 -363h-144l-227 363h129l170 -281z" />
    <glyph glyph-name="uni02C8" unicode="&#x2c8;" horiz-adv-x="1058" 
d="M483 1218v400h92v-400h-92z" />
    <glyph glyph-name="uni02C9" unicode="&#x2c9;" horiz-adv-x="1058" 
d="M219 1368v108h620v-108h-620z" />
    <glyph glyph-name="uni02CA" unicode="&#x2ca;" horiz-adv-x="1058" 
d="M452 1253l216 363h179l-242 -363h-153z" />
    <glyph glyph-name="uni02CB" unicode="&#x2cb;" horiz-adv-x="1058" 
d="M452 1253l-241 363h179l215 -363h-153z" />
    <glyph glyph-name="uni02CC" unicode="&#x2cc;" horiz-adv-x="1058" 
d="M483 -440v400h92v-400h-92z" />
    <glyph glyph-name="breve" unicode="&#x2d8;" horiz-adv-x="1058" 
d="M314.5 1349q-78.5 85 -85.5 241h108q8 -115 55 -173t138 -58t137.5 58t53.5 173h107q-6 -157 -83.5 -241.5t-214.5 -84.5t-215.5 85z" />
    <glyph glyph-name="dotaccent" unicode="&#x2d9;" horiz-adv-x="1058" 
d="M446 1346.5q-29 26.5 -29 74.5t29.5 75t82.5 27t82 -27t29 -75t-29 -74.5t-82 -26.5q-54 0 -83 26.5z" />
    <glyph glyph-name="ring" unicode="&#x2da;" horiz-adv-x="1058" 
d="M428.5 1273q-44.5 25 -70 69t-25.5 99t25.5 99.5t70 69.5t100.5 25t100.5 -25t69.5 -69.5t25 -99.5t-25 -99t-69.5 -69t-100.5 -25t-100.5 25zM613 1354.5q32 32.5 32 86.5q0 55 -32 87t-84 32t-84.5 -32t-32.5 -87q0 -54 32.5 -86.5t84.5 -32.5t84 32.5z" />
    <glyph glyph-name="ogonek" unicode="&#x2db;" horiz-adv-x="1058" 
d="M272.5 -367q-56.5 49 -56.5 135t57 156t186 132l48 -56q-102 -54 -145.5 -107t-43.5 -116q0 -53 33.5 -83t93.5 -30q71 0 144 40v-81q-34 -18 -75 -28.5t-83 -10.5q-102 0 -158.5 49z" />
    <glyph glyph-name="tilde" unicode="&#x2dc;" horiz-adv-x="1058" 
d="M600.5 1355.5q-33.5 10.5 -87.5 33.5q-41 19 -70.5 28.5t-58.5 9.5q-49 0 -88 -18t-77 -58v116q62 67 167 67q38 0 71.5 -10.5t87.5 -33.5q41 -19 70.5 -28.5t58.5 -9.5q48 0 87.5 18.5t77.5 57.5v-116q-64 -67 -167 -67q-38 0 -71.5 10.5z" />
    <glyph glyph-name="hungarumlaut" unicode="&#x2dd;" horiz-adv-x="1058" 
d="M300 1253l140 363h134l-150 -363h-124zM634 1253l140 363h135l-151 -363h-124z" />
    <glyph glyph-name="gravecomb" unicode="&#x300;" horiz-adv-x="0" 
d="M-603 1253l-241 363h173l216 -363h-148z" />
    <glyph glyph-name="acutecomb" unicode="&#x301;" horiz-adv-x="0" 
d="M-603 1253l216 363h173l-241 -363h-148z" />
    <glyph glyph-name="uni0302" unicode="&#x302;" horiz-adv-x="0" 
d="M-234 1253h-128l-167 280l-167 -280h-129l224 363h144z" />
    <glyph glyph-name="tildecomb" unicode="&#x303;" horiz-adv-x="0" 
d="M-457.5 1355.5q-33.5 10.5 -87.5 33.5q-41 19 -70.5 28.5t-58.5 9.5q-49 0 -88 -18t-77 -58v116q62 67 167 67q38 0 71.5 -10.5t87.5 -33.5q41 -19 70.5 -28.5t58.5 -9.5q48 0 87.5 18.5t77.5 57.5v-116q-64 -67 -167 -67q-38 0 -71.5 10.5z" />
    <glyph glyph-name="uni0304" unicode="&#x304;" horiz-adv-x="0" 
d="M-839 1368v108h620v-108h-620z" />
    <glyph glyph-name="uni0306" unicode="&#x306;" horiz-adv-x="0" 
d="M-743.5 1349q-78.5 85 -85.5 241h108q8 -115 55 -173t138 -58t137.5 58t53.5 173h107q-6 -157 -83.5 -241.5t-214.5 -84.5t-215.5 85z" />
    <glyph glyph-name="uni0307" unicode="&#x307;" horiz-adv-x="0" 
d="M-612 1346.5q-29 26.5 -29 74.5t29.5 75t82.5 27t82 -27t29 -75t-29 -74.5t-82 -26.5q-54 0 -83 26.5z" />
    <glyph glyph-name="uni0308" unicode="&#x308;" horiz-adv-x="0" 
d="M-821.5 1348.5q-27.5 26.5 -27.5 72.5t27.5 73t75.5 27q47 0 74.5 -27t27.5 -73t-27.5 -72.5t-74.5 -26.5q-48 0 -75.5 26.5zM-386.5 1348.5q-27.5 26.5 -27.5 72.5t27.5 73t74.5 27q48 0 75.5 -27t27.5 -73t-27.5 -72.5t-75.5 -26.5q-47 0 -74.5 26.5z" />
    <glyph glyph-name="hookabovecomb" unicode="&#x309;" horiz-adv-x="0" 
d="M-563 1319q14 28 32.5 45t48.5 39q31 22 46 38t15 39q0 34 -28 50.5t-89 16.5q-84 0 -158 -24v80q33 11 77.5 18t86.5 7q210 0 210 -140q0 -32 -11.5 -55t-27.5 -38t-43 -35q-37 -27 -55.5 -49t-20.5 -58h-98q1 38 15 66z" />
    <glyph glyph-name="uni030A" unicode="&#x30a;" horiz-adv-x="0" 
d="M-629.5 1273q-44.5 25 -70 69t-25.5 99t25.5 99.5t70 69.5t100.5 25t100.5 -25t69.5 -69.5t25 -99.5t-25 -99t-69.5 -69t-100.5 -25t-100.5 25zM-445 1354.5q32 32.5 32 86.5q0 55 -32 87t-84 32t-84.5 -32t-32.5 -87q0 -54 32.5 -86.5t84.5 -32.5t84 32.5z" />
    <glyph glyph-name="uni030B" unicode="&#x30b;" horiz-adv-x="0" 
d="M-758 1253l140 363h134l-150 -363h-124zM-424 1253l140 363h135l-151 -363h-124z" />
    <glyph glyph-name="uni030C" unicode="&#x30c;" horiz-adv-x="0" 
d="M-359 1616h129l-227 -363h-144l-227 363h129l170 -281z" />
    <glyph glyph-name="uni030F" unicode="&#x30f;" horiz-adv-x="0" 
d="M-760 1253l-151 363h138l139 -363h-126zM-424 1253l-150 363h137l139 -363h-126z" />
    <glyph glyph-name="uni0311" unicode="&#x311;" horiz-adv-x="0" 
d="M-745.5 1523q76.5 84 214.5 84t216.5 -85t84.5 -241h-107q-8 115 -55.5 172.5t-138.5 57.5t-137 -57t-53 -173h-108q7 158 83.5 242z" />
    <glyph glyph-name="uni0312" unicode="&#x312;" horiz-adv-x="0" 
d="M-448.5 1460q24.5 -22 24.5 -58q0 -37 -26.5 -59t-75.5 -22q-53 0 -80.5 28t-27.5 82q0 43 15.5 95.5t41.5 97.5h100q-34 -74 -42 -140q46 -2 70.5 -24z" />
    <glyph glyph-name="uni031B" unicode="&#x31b;" horiz-adv-x="0" 
d="M-581 1480h57q92 0 142 39.5t50 123.5q0 36 -5.5 68t-17.5 73h116q13 -37 18.5 -71t5.5 -76q0 -123 -75.5 -189t-206.5 -66h-84v98z" />
    <glyph glyph-name="dotbelowcomb" unicode="&#x323;" horiz-adv-x="0" 
d="M-604 -333.5q-28 26.5 -28 71.5t28 72t75 27t74.5 -27t27.5 -72t-27.5 -71.5t-74.5 -26.5t-75 26.5z" />
    <glyph glyph-name="uni0324" unicode="&#x324;" horiz-adv-x="0" 
d="M-821.5 -335.5q-27.5 26.5 -27.5 72.5t27.5 73t75.5 27q47 0 74.5 -27t27.5 -73t-27.5 -72.5t-74.5 -26.5q-48 0 -75.5 26.5zM-386.5 -335.5q-27.5 26.5 -27.5 72.5t27.5 73t74.5 27q48 0 75.5 -27t27.5 -73t-27.5 -72.5t-75.5 -26.5q-47 0 -74.5 26.5z" />
    <glyph glyph-name="uni0326" unicode="&#x326;" horiz-adv-x="0" 
d="M-451.5 -191q27.5 -28 27.5 -82q0 -43 -15.5 -95.5t-41.5 -97.5h-100q34 78 42 140q-46 2 -70.5 24t-24.5 58q0 38 26.5 59.5t75.5 21.5q53 0 80.5 -28z" />
    <glyph glyph-name="uni0327" unicode="&#x327;" horiz-adv-x="0" 
d="M-362.5 -153q39.5 -40 39.5 -106q0 -74 -53 -115.5t-152 -41.5q-45 0 -90.5 9.5t-78.5 25.5v81q75 -37 166 -37q57 0 84.5 20.5t27.5 62.5q0 86 -114 86h-37v188h92v-124q76 -9 115.5 -49z" />
    <glyph glyph-name="uni0328" unicode="&#x328;" horiz-adv-x="0" 
d="M-785.5 -367q-56.5 49 -56.5 135t57 156t186 132l48 -56q-102 -54 -145.5 -107t-43.5 -116q0 -53 33.5 -83t93.5 -30q71 0 144 40v-81q-34 -18 -75 -28.5t-83 -10.5q-102 0 -158.5 49z" />
    <glyph glyph-name="uni032E" unicode="&#x32e;" horiz-adv-x="0" 
d="M-746.5 -349.5q-79.5 71.5 -82.5 194.5h108q9 -170 193 -170q183 0 191 170h107q-2 -124 -80 -195t-218 -71q-139 0 -218.5 71.5z" />
    <glyph glyph-name="uni0331" unicode="&#x331;" horiz-adv-x="0" 
d="M-815 -315v107h571v-107h-571z" />
    <glyph glyph-name="uni0394" unicode="&#x394;" horiz-adv-x="1348" 
d="M788 1480l531 -1480h-1291l531 1480h229zM672 1363l-436 -1226h873z" />
    <glyph glyph-name="uni03A9" unicode="&#x3a9;" horiz-adv-x="1439" 
d="M1253 414.5q-80 -166.5 -235 -279.5h315v-135h-511v116q177 126 260 286.5t83 384.5q0 289 -114.5 430.5t-331.5 141.5t-331.5 -141.5t-114.5 -430.5q0 -224 83.5 -384t260.5 -287v-116h-512v135h315q-155 113 -235 279.5t-80 381.5q0 229 73.5 386t211 237t329.5 80
t330 -79.5t211 -237t73 -386.5q0 -215 -80 -381.5z" />
    <glyph glyph-name="uni03BC" unicode="&#x3bc;" horiz-adv-x="1127" 
d="M976 1085v-1085h-135l-12 119h-10q-61 -67 -141 -102t-167 -35q-139 0 -212 79v-501h-160v1525h160v-713q0 -132 58.5 -189.5t163.5 -57.5q80 0 160.5 36t134.5 108v816h160z" />
    <glyph glyph-name="pi" unicode="&#x3c0;" horiz-adv-x="1317" 
d="M1300 134v-136q-79 -17 -147 -17q-153 0 -233.5 80.5t-81.5 254.5l-3 637h-460v-954h-160v954h-205v132h1193v-132h-205v-611q0 -83 20 -131.5t61.5 -69.5t108.5 -21q50 0 112 14z" />
    <glyph glyph-name="uni1E08" unicode="&#x1e08;" horiz-adv-x="1151" 
d="M979 1892l-204 -284h-147l178 284h173zM509.5 1297q-114.5 -61 -174 -197t-59.5 -359q0 -229 60 -365.5t172 -195t279 -58.5q82 0 159.5 13t164.5 43v-142q-156 -55 -336 -55h-22v-83q85 -7 131.5 -46.5t46.5 -108.5q0 -77 -57.5 -118t-163.5 -41q-50 0 -100.5 9.5
t-92.5 27.5v81q94 -39 187 -39q130 0 130 84q0 85 -132 85h-41v155q-268 28 -412 208t-144 542q0 391 177 576.5t509 185.5q162 0 320 -43v-142q-153 44 -314 44q-173 0 -287.5 -61z" />
    <glyph glyph-name="uni1E09" unicode="&#x1e09;" horiz-adv-x="875" 
d="M828 1616l-241 -363h-148l216 363h173zM422.5 924q-81.5 -41 -122 -133t-40.5 -245q0 -155 37.5 -249.5t111.5 -137t188 -42.5q105 0 240 45v-136q-127 -45 -263 -45h-6v-85q76 -9 115.5 -49t39.5 -106q0 -74 -53 -115.5t-152 -41.5q-45 0 -90.5 9.5t-78.5 25.5v81
q75 -37 166 -37q57 0 84.5 20.5t27.5 62.5q0 86 -114 86h-37v155q-188 26 -285 162t-97 393q0 289 131.5 424.5t388.5 135.5q121 0 223 -28v-136q-107 27 -205 27q-128 0 -209.5 -41z" />
    <glyph glyph-name="uni1E0C" unicode="&#x1e0c;" horiz-adv-x="1400" 
d="M169 9v1447q92 18 193 28.5t194 10.5q368 0 553 -186.5t185 -568.5q0 -387 -192.5 -569.5t-581.5 -182.5q-166 0 -351 21zM873 190q127 63 190.5 198.5t63.5 351.5q0 320 -139 468t-427 148q-105 0 -230 -19v-1197q100 -13 221 -13q194 0 321 63zM557.5 -325.5
q-29.5 24.5 -29.5 68.5t29.5 69t81.5 25t81.5 -25t29.5 -69t-29.5 -68.5t-81.5 -24.5t-81.5 24.5z" />
    <glyph glyph-name="uni1E0D" unicode="&#x1e0d;" horiz-adv-x="1129" 
d="M301 36q-96 55 -151.5 175.5t-55.5 308.5q0 291 138.5 436.5t409.5 145.5q78 0 176 -15v529h160v-1616h-137l-11 118h-10q-51 -63 -128 -100t-171 -37q-124 0 -220 55zM703 152.5q69 33.5 115 100.5v699q-38 8 -86 13.5t-93 5.5q-193 0 -287.5 -103.5t-94.5 -332.5
q0 -227 78.5 -321.5t222.5 -94.5q76 0 145 33.5zM491 -333.5q-28 26.5 -28 71.5t28 72t75 27t74.5 -27t27.5 -72t-27.5 -71.5t-74.5 -26.5t-75 26.5z" />
    <glyph glyph-name="uni1E0E" unicode="&#x1e0e;" horiz-adv-x="1400" 
d="M169 9v1447q92 18 193 28.5t194 10.5q368 0 553 -186.5t185 -568.5q0 -387 -192.5 -569.5t-581.5 -182.5q-166 0 -351 21zM873 190q127 63 190.5 198.5t63.5 351.5q0 320 -139 468t-427 148q-105 0 -230 -19v-1197q100 -13 221 -13q194 0 321 63zM333 -309v108h612v-108
h-612z" />
    <glyph glyph-name="uni1E0F" unicode="&#x1e0f;" horiz-adv-x="1129" 
d="M301 36q-96 55 -151.5 175.5t-55.5 308.5q0 291 138.5 436.5t409.5 145.5q78 0 176 -15v529h160v-1616h-137l-11 118h-10q-51 -63 -128 -100t-171 -37q-124 0 -220 55zM703 152.5q69 33.5 115 100.5v699q-38 8 -86 13.5t-93 5.5q-193 0 -287.5 -103.5t-94.5 -332.5
q0 -227 78.5 -321.5t222.5 -94.5q76 0 145 33.5zM280 -315v107h571v-107h-571z" />
    <glyph glyph-name="uni1E14" unicode="&#x1e14;" horiz-adv-x="1166" 
d="M330 138h764v-138h-925v1480h915v-138h-754v-514h657v-137h-657v-553zM570 1911l-205 232h185l178 -232h-158zM343 1696v109h612v-109h-612z" />
    <glyph glyph-name="uni1E15" unicode="&#x1e15;" horiz-adv-x="1030" 
d="M951 489h-695q4 -137 45.5 -220t121.5 -120t204 -37q118 0 270 44v-131q-148 -44 -289 -44q-259 0 -386.5 134t-127.5 428q0 279 115.5 419t323.5 140q203 0 310.5 -139.5t107.5 -423.5v-50zM330 895q-70 -90 -74 -296h541q-4 207 -70.5 296.5t-195.5 89.5
q-131 0 -201 -90zM221 1368v108h620v-108h-620zM458 1618l-205 284h173l178 -284h-146z" />
    <glyph glyph-name="uni1E16" unicode="&#x1e16;" horiz-adv-x="1166" 
d="M330 138h764v-138h-925v1480h915v-138h-754v-514h657v-137h-657v-553zM570 1911l177 232h186l-204 -232h-159zM343 1696v109h612v-109h-612z" />
    <glyph glyph-name="uni1E17" unicode="&#x1e17;" horiz-adv-x="1030" 
d="M951 489h-695q4 -137 45.5 -220t121.5 -120t204 -37q118 0 270 44v-131q-148 -44 -289 -44q-259 0 -386.5 134t-127.5 428q0 279 115.5 419t323.5 140q203 0 310.5 -139.5t107.5 -423.5v-50zM330 895q-70 -90 -74 -296h541q-4 207 -70.5 296.5t-195.5 89.5
q-131 0 -201 -90zM221 1368v108h620v-108h-620zM457 1618l178 284h173l-204 -284h-147z" />
    <glyph glyph-name="uni1E1C" unicode="&#x1e1c;" horiz-adv-x="1166" 
d="M423 1684.5q-81 67.5 -93 186.5h108q12 -81 61.5 -120t150.5 -39t150 39t59 120h109q-12 -120 -91.5 -187t-226.5 -67q-146 0 -227 67.5zM689 0v-102q85 -7 131.5 -46.5t46.5 -108.5q0 -77 -57.5 -118t-163.5 -41q-50 0 -100.5 9.5t-92.5 27.5v81q94 -39 187 -39
q130 0 130 84q0 85 -132 85h-41v168h-428v1480h915v-138h-754v-514h657v-137h-657v-553h764v-138h-405z" />
    <glyph glyph-name="uni1E1D" unicode="&#x1e1d;" horiz-adv-x="1030" 
d="M316.5 1349q-78.5 85 -85.5 241h108q8 -115 55 -173t138 -58t137.5 58t53.5 173h107q-6 -157 -83.5 -241.5t-214.5 -84.5t-215.5 85zM951 489h-695q4 -137 45.5 -220t121.5 -120t204 -37q118 0 270 44v-131q-148 -44 -289 -44h-26v-85q76 -9 115.5 -49t39.5 -106
q0 -74 -53 -115.5t-152 -41.5q-45 0 -90.5 9.5t-78.5 25.5v81q75 -37 166 -37q57 0 84.5 20.5t27.5 62.5q0 86 -114 86h-37v157q-199 27 -297.5 161t-98.5 393q0 279 115.5 419t323.5 140q203 0 310.5 -139.5t107.5 -423.5v-50zM330 895q-70 -90 -74 -296h541
q-4 207 -70.5 296.5t-195.5 89.5q-131 0 -201 -90z" />
    <glyph glyph-name="uni1E20" unicode="&#x1e20;" horiz-adv-x="1347" 
d="M1196 720v-704q-93 -16 -171 -22.5t-161 -6.5q-380 0 -569 182t-190 569q0 390 190 575.5t535 185.5q165 0 332 -44v-142q-86 24 -164 34.5t-158 10.5q-277 0 -421 -145t-144 -476q0 -215 64.5 -350t192.5 -197.5t323 -62.5q101 0 187 12v581h154zM438 1696v109h612v-109
h-612z" />
    <glyph glyph-name="uni1E21" unicode="&#x1e21;" horiz-adv-x="1129" 
d="M319 -447.5q-85 12.5 -156 36.5v134q163 -51 311 -51q120 0 195 33t112 107t37 198v105h-10q-51 -60 -128 -94.5t-172 -34.5q-118 0 -211 54.5t-148 174t-55 306.5q0 290 138.5 435t411.5 146q84 0 172.5 -13t161.5 -36v-1018q0 -176 -55 -285t-164 -159.5t-277 -50.5
q-78 0 -163 12.5zM702 154.5q70 31.5 116 93.5v701q-90 22 -187 22q-187 0 -280.5 -104t-93.5 -331t78.5 -320t220.5 -93q76 0 146 31.5zM274 1368v108h620v-108h-620z" />
    <glyph glyph-name="uni1E24" unicode="&#x1e24;" horiz-adv-x="1444" 
d="M169 0v1480h162v-647h782v647h162v-1480h-162v686h-782v-686h-162zM640.5 -325.5q-29.5 24.5 -29.5 68.5t29.5 69t81.5 25t81.5 -25t29.5 -69t-29.5 -68.5t-81.5 -24.5t-81.5 24.5z" />
    <glyph glyph-name="uni1E25" unicode="&#x1e25;" horiz-adv-x="1137" 
d="M151 1616h160v-652h10q65 68 150 103t184 35q159 0 250.5 -91.5t91.5 -292.5v-718h-160v711q0 133 -58.5 189.5t-168.5 56.5q-83 0 -163.5 -35t-135.5 -108v-814h-160v1616zM500 -333.5q-28 26.5 -28 71.5t28 72t75 27t74.5 -27t27.5 -72t-27.5 -71.5t-74.5 -26.5
t-75 26.5z" />
    <glyph glyph-name="uni1E2A" unicode="&#x1e2a;" horiz-adv-x="1444" 
d="M169 0v1480h162v-647h782v647h162v-1480h-162v686h-782v-686h-162zM491 -343.5q-82 69.5 -88 190.5h108q7 -82 58 -124t154 -42q104 0 154 42t55 124h109q-6 -122 -86.5 -191t-231.5 -69q-150 0 -232 69.5z" />
    <glyph glyph-name="uni1E2B" unicode="&#x1e2b;" horiz-adv-x="1137" 
d="M151 1616h160v-652h10q65 68 150 103t184 35q159 0 250.5 -91.5t91.5 -292.5v-718h-160v711q0 133 -58.5 189.5t-168.5 56.5q-83 0 -163.5 -35t-135.5 -108v-814h-160v1616zM357.5 -349.5q-79.5 71.5 -82.5 194.5h108q9 -170 193 -170q183 0 191 170h107
q-2 -124 -80 -195t-218 -71q-139 0 -218.5 71.5z" />
    <glyph glyph-name="uni1E2E" unicode="&#x1e2e;" horiz-adv-x="500" 
d="M169 0v1480h162v-1480h-162zM171 1911l177 232h186l-204 -232h-159zM-60 1683.5q-27 24.5 -27 67.5q0 44 27.5 69.5t75.5 25.5t75 -25.5t27 -69.5q0 -43 -27 -67.5t-75 -24.5q-49 0 -76 24.5zM409 1683.5q-27 24.5 -27 67.5q0 44 27 69.5t75 25.5t75.5 -25.5t27.5 -69.5
q0 -43 -27 -67.5t-76 -24.5q-48 0 -75 24.5z" />
    <glyph glyph-name="uni1E2F" unicode="&#x1e2f;" horiz-adv-x="463" 
d="M151 0v1085h160v-1085h-160zM-61.5 1348.5q-27.5 26.5 -27.5 72.5t27.5 73t75.5 27q47 0 74.5 -27t27.5 -73t-27.5 -72.5t-74.5 -26.5q-48 0 -75.5 26.5zM373.5 1348.5q-27.5 26.5 -27.5 72.5t27.5 73t74.5 27q48 0 75.5 -27t27.5 -73t-27.5 -72.5t-75.5 -26.5
q-47 0 -74.5 26.5zM192 1707l178 284h173l-204 -284h-147z" />
    <glyph glyph-name="uni1E36" unicode="&#x1e36;" horiz-adv-x="1071" 
d="M169 0v1480h162v-1338h728v-142h-890zM533.5 -325.5q-29.5 24.5 -29.5 68.5t29.5 69t81.5 25t81.5 -25t29.5 -69t-29.5 -68.5t-81.5 -24.5t-81.5 24.5z" />
    <glyph glyph-name="uni1E37" unicode="&#x1e37;" horiz-adv-x="462" 
d="M151 0v1616h160v-1616h-160zM156 -333.5q-28 26.5 -28 71.5t28 72t75 27t74.5 -27t27.5 -72t-27.5 -71.5t-74.5 -26.5t-75 26.5z" />
    <glyph glyph-name="uni1E3A" unicode="&#x1e3a;" horiz-adv-x="1071" 
d="M169 0v1480h162v-1338h728v-142h-890zM309 -309v108h612v-108h-612z" />
    <glyph glyph-name="uni1E3B" unicode="&#x1e3b;" horiz-adv-x="462" 
d="M151 0v1616h160v-1616h-160zM-55 -315v107h571v-107h-571z" />
    <glyph glyph-name="uni1E42" unicode="&#x1e42;" horiz-adv-x="1760" 
d="M1394 1480h193v-1480h-153v1239l-481 -1034h-146l-481 1022v-1227h-153v1480h193l517 -1111zM805.5 -325.5q-29.5 24.5 -29.5 68.5t29.5 69t81.5 25t81.5 -25t29.5 -69t-29.5 -68.5t-81.5 -24.5t-81.5 24.5z" />
    <glyph glyph-name="uni1E43" unicode="&#x1e43;" horiz-adv-x="1694" 
d="M1467.5 1010.5q87.5 -91.5 87.5 -292.5v-718h-160v711q0 132 -54 190t-151 58q-70 0 -140.5 -33.5t-120.5 -105.5q6 -45 6 -98v-722h-158v711q0 133 -52 190.5t-148 57.5q-73 0 -145 -37t-121 -112v-810h-160v1085h135l11 -123h11q62 69 142 104.5t172 35.5
q197 0 271 -156q71 81 158 118.5t177 37.5q152 0 239.5 -91.5zM782 -333.5q-28 26.5 -28 71.5t28 72t75 27t74.5 -27t27.5 -72t-27.5 -71.5t-74.5 -26.5t-75 26.5z" />
    <glyph glyph-name="uni1E44" unicode="&#x1e44;" horiz-adv-x="1469" 
d="M1146 1480h154v-1480h-167l-810 1232v-1232h-154v1480h167l810 -1232v1232zM653.5 1683q-29.5 24 -29.5 68t29.5 69.5t81.5 25.5t81.5 -25.5t29.5 -69.5t-29.5 -68t-81.5 -24t-81.5 24z" />
    <glyph glyph-name="uni1E45" unicode="&#x1e45;" horiz-adv-x="1137" 
d="M151 1085h135l11 -123h11q67 68 154.5 104t186.5 36q163 0 255.5 -91.5t92.5 -293.5v-717h-160v710q0 133 -58.5 191t-168.5 58q-81 0 -162 -35t-137 -109v-815h-160v1085zM492 1346.5q-29 26.5 -29 74.5t29.5 75t82.5 27t82 -27t29 -75t-29 -74.5t-82 -26.5
q-54 0 -83 26.5z" />
    <glyph glyph-name="uni1E46" unicode="&#x1e46;" horiz-adv-x="1469" 
d="M1146 1480h154v-1480h-167l-810 1232v-1232h-154v1480h167l810 -1232v1232zM653.5 -325.5q-29.5 24.5 -29.5 68.5t29.5 69t81.5 25t81.5 -25t29.5 -69t-29.5 -68.5t-81.5 -24.5t-81.5 24.5z" />
    <glyph glyph-name="uni1E47" unicode="&#x1e47;" horiz-adv-x="1137" 
d="M151 1085h135l11 -123h11q67 68 154.5 104t186.5 36q163 0 255.5 -91.5t92.5 -293.5v-717h-160v710q0 133 -58.5 191t-168.5 58q-81 0 -162 -35t-137 -109v-815h-160v1085zM500 -333.5q-28 26.5 -28 71.5t28 72t75 27t74.5 -27t27.5 -72t-27.5 -71.5t-74.5 -26.5
t-75 26.5z" />
    <glyph glyph-name="uni1E48" unicode="&#x1e48;" horiz-adv-x="1469" 
d="M1146 1480h154v-1480h-167l-810 1232v-1232h-154v1480h167l810 -1232v1232zM429 -309v108h612v-108h-612z" />
    <glyph glyph-name="uni1E49" unicode="&#x1e49;" horiz-adv-x="1137" 
d="M151 1085h135l11 -123h11q67 68 154.5 104t186.5 36q163 0 255.5 -91.5t92.5 -293.5v-717h-160v710q0 133 -58.5 191t-168.5 58q-81 0 -162 -35t-137 -109v-815h-160v1085zM289 -315v107h571v-107h-571z" />
    <glyph glyph-name="uni1E4C" unicode="&#x1e4c;" horiz-adv-x="1439" 
d="M267.5 167q-162.5 186 -162.5 573q0 261 75.5 430t213 249t325.5 80q289 0 451.5 -186t162.5 -573q0 -260 -75.5 -429.5t-212.5 -249.5t-326 -80q-289 0 -451.5 186zM1049 265.5q116 144.5 116 469.5q0 332 -116 478t-330 146q-213 0 -329.5 -144.5t-116.5 -469.5
q0 -332 116 -478t330 -146t330 144.5zM640 1911l177 232h186l-204 -232h-159zM795.5 1678q-35.5 10 -91.5 30q-45 18 -77 27t-65 9q-53 0 -93 -17t-78 -54v111q63 65 173 65q43 0 80 -10.5t90 -30.5q45 -18 77 -27t64 -9q53 0 93 17t79 54v-110q-32 -33 -74 -49t-100 -16
q-42 0 -77.5 10z" />
    <glyph glyph-name="uni1E4D" unicode="&#x1e4d;" horiz-adv-x="1111" 
d="M215.5 118.5q-121.5 137.5 -121.5 422.5t121 423t340 138q220 0 341 -137t121 -423q0 -284 -122 -422.5t-340 -138.5t-339.5 137.5zM777 209.5q76 98.5 76 329.5q0 235 -76 333.5t-222 98.5q-145 0 -221.5 -98t-76.5 -329q0 -234 76 -333.5t222 -99.5t222 98.5z
M626.5 1355.5q-33.5 10.5 -87.5 33.5q-41 19 -70.5 28.5t-58.5 9.5q-49 0 -88 -18t-77 -58v116q62 67 167 67q38 0 71.5 -10.5t87.5 -33.5q41 -19 70.5 -28.5t58.5 -9.5q48 0 87.5 18.5t77.5 57.5v-116q-64 -67 -167 -67q-38 0 -71.5 10.5zM516 1707l178 284h173l-204 -284
h-147z" />
    <glyph glyph-name="uni1E4E" unicode="&#x1e4e;" horiz-adv-x="1439" 
d="M267.5 167q-162.5 186 -162.5 573q0 261 75.5 430t213 249t325.5 80q289 0 451.5 -186t162.5 -573q0 -260 -75.5 -429.5t-212.5 -249.5t-326 -80q-289 0 -451.5 186zM1049 265.5q116 144.5 116 469.5q0 332 -116 478t-330 146q-213 0 -329.5 -144.5t-116.5 -469.5
q0 -332 116 -478t330 -146t330 144.5zM795.5 1678q-35.5 10 -91.5 30q-45 18 -77 27t-65 9q-53 0 -93 -17t-78 -54v111q63 65 173 65q43 0 80 -10.5t90 -30.5q45 -18 77 -27t64 -9q53 0 93 17t79 54v-110q-32 -33 -74 -49t-100 -16q-42 0 -77.5 10zM409 1956.5
q-27 24.5 -27 67.5q0 44 27.5 69.5t75.5 25.5t75 -25.5t27 -69.5q0 -43 -27 -67.5t-75 -24.5q-49 0 -76 24.5zM878 1956.5q-27 24.5 -27 67.5q0 44 27 69.5t75 25.5t75.5 -25.5t27.5 -69.5q0 -43 -27 -67.5t-76 -24.5q-48 0 -75 24.5z" />
    <glyph glyph-name="uni1E4F" unicode="&#x1e4f;" horiz-adv-x="1111" 
d="M215.5 118.5q-121.5 137.5 -121.5 422.5t121 423t340 138q220 0 341 -137t121 -423q0 -284 -122 -422.5t-340 -138.5t-339.5 137.5zM777 209.5q76 98.5 76 329.5q0 235 -76 333.5t-222 98.5q-145 0 -221.5 -98t-76.5 -329q0 -234 76 -333.5t222 -99.5t222 98.5z
M626.5 1355.5q-33.5 10.5 -87.5 33.5q-41 19 -70.5 28.5t-58.5 9.5q-49 0 -88 -18t-77 -58v116q62 67 167 67q38 0 71.5 -10.5t87.5 -33.5q41 -19 70.5 -28.5t58.5 -9.5q48 0 87.5 18.5t77.5 57.5v-116q-64 -67 -167 -67q-38 0 -71.5 10.5zM262.5 1652.5
q-27.5 26.5 -27.5 72.5t27.5 73t75.5 27q47 0 74.5 -27t27.5 -73t-27.5 -72.5t-74.5 -26.5q-48 0 -75.5 26.5zM697.5 1652.5q-27.5 26.5 -27.5 72.5t27.5 73t74.5 27q48 0 75.5 -27t27.5 -73t-27.5 -72.5t-75.5 -26.5q-47 0 -74.5 26.5z" />
    <glyph glyph-name="uni1E50" unicode="&#x1e50;" horiz-adv-x="1439" 
d="M267.5 167q-162.5 186 -162.5 573q0 261 75.5 430t213 249t325.5 80q289 0 451.5 -186t162.5 -573q0 -260 -75.5 -429.5t-212.5 -249.5t-326 -80q-289 0 -451.5 186zM1049 265.5q116 144.5 116 469.5q0 332 -116 478t-330 146q-213 0 -329.5 -144.5t-116.5 -469.5
q0 -332 116 -478t330 -146t330 144.5zM640 1911l-205 232h185l178 -232h-158zM413 1696v109h612v-109h-612z" />
    <glyph glyph-name="uni1E51" unicode="&#x1e51;" horiz-adv-x="1111" 
d="M215.5 118.5q-121.5 137.5 -121.5 422.5t121 423t340 138q220 0 341 -137t121 -423q0 -284 -122 -422.5t-340 -138.5t-339.5 137.5zM777 209.5q76 98.5 76 329.5q0 235 -76 333.5t-222 98.5q-145 0 -221.5 -98t-76.5 -329q0 -234 76 -333.5t222 -99.5t222 98.5zM245 1368
v108h620v-108h-620zM482 1618l-205 284h173l178 -284h-146z" />
    <glyph glyph-name="uni1E52" unicode="&#x1e52;" horiz-adv-x="1439" 
d="M267.5 167q-162.5 186 -162.5 573q0 261 75.5 430t213 249t325.5 80q289 0 451.5 -186t162.5 -573q0 -260 -75.5 -429.5t-212.5 -249.5t-326 -80q-289 0 -451.5 186zM1049 265.5q116 144.5 116 469.5q0 332 -116 478t-330 146q-213 0 -329.5 -144.5t-116.5 -469.5
q0 -332 116 -478t330 -146t330 144.5zM640 1911l177 232h186l-204 -232h-159zM413 1696v109h612v-109h-612z" />
    <glyph glyph-name="uni1E53" unicode="&#x1e53;" horiz-adv-x="1111" 
d="M215.5 118.5q-121.5 137.5 -121.5 422.5t121 423t340 138q220 0 341 -137t121 -423q0 -284 -122 -422.5t-340 -138.5t-339.5 137.5zM777 209.5q76 98.5 76 329.5q0 235 -76 333.5t-222 98.5q-145 0 -221.5 -98t-76.5 -329q0 -234 76 -333.5t222 -99.5t222 98.5zM245 1368
v108h620v-108h-620zM481 1618l178 284h173l-204 -284h-147z" />
    <glyph glyph-name="uni1E5A" unicode="&#x1e5a;" horiz-adv-x="1307" 
d="M1074 0l-460 613q-50 -2 -79 -2q-100 0 -206 8v-619h-160v1456q205 40 395 40q294 0 436 -107t142 -332q1 -171 -91.5 -277t-273.5 -146l479 -634h-182zM433.5 743q43.5 -2 102.5 -2q236 0 344 76t108 238q0 111 -43 179t-134 99.5t-237 31.5q-72 0 -127.5 -5t-117.5 -16
v-593q61 -6 104.5 -8zM601.5 -325.5q-29.5 24.5 -29.5 68.5t29.5 69t81.5 25t81.5 -25t29.5 -69t-29.5 -68.5t-81.5 -24.5t-81.5 24.5z" />
    <glyph glyph-name="uni1E5B" unicode="&#x1e5b;" horiz-adv-x="724" 
d="M151 1085h134l13 -145h10q54 75 138.5 115.5t178.5 40.5q44 0 87 -8v-149q-43 7 -94 7q-85 0 -170.5 -39.5t-136.5 -113.5v-793h-160v1085zM156 -333.5q-28 26.5 -28 71.5t28 72t75 27t74.5 -27t27.5 -72t-27.5 -71.5t-74.5 -26.5t-75 26.5z" />
    <glyph glyph-name="uni1E5E" unicode="&#x1e5e;" horiz-adv-x="1307" 
d="M1074 0l-460 613q-50 -2 -79 -2q-100 0 -206 8v-619h-160v1456q205 40 395 40q294 0 436 -107t142 -332q1 -171 -91.5 -277t-273.5 -146l479 -634h-182zM433.5 743q43.5 -2 102.5 -2q236 0 344 76t108 238q0 111 -43 179t-134 99.5t-237 31.5q-72 0 -127.5 -5t-117.5 -16
v-593q61 -6 104.5 -8zM377 -309v108h612v-108h-612z" />
    <glyph glyph-name="uni1E5F" unicode="&#x1e5f;" horiz-adv-x="724" 
d="M151 1085h134l13 -145h10q54 75 138.5 115.5t178.5 40.5q44 0 87 -8v-149q-43 7 -94 7q-85 0 -170.5 -39.5t-136.5 -113.5v-793h-160v1085zM-55 -315v107h571v-107h-571z" />
    <glyph glyph-name="uni1E60" unicode="&#x1e60;" horiz-adv-x="1063" 
d="M277 -3.5q-95 15.5 -180 44.5v140q90 -31 184.5 -46t182.5 -15q361 0 361 271q0 75 -29.5 125.5t-93 85t-172.5 62.5l-80 21q-190 49 -283 146.5t-93 256.5q0 128 59.5 220.5t177 141.5t290.5 49q86 0 170 -11.5t153 -33.5v-140q-150 46 -318 46q-187 0 -277.5 -67.5
t-90.5 -194.5q0 -73 26.5 -123t85.5 -84.5t161 -61.5l80 -20q206 -52 302 -150t96 -258q0 -133 -62 -227t-180 -143.5t-285 -49.5q-90 0 -185 15.5zM458.5 1683q-29.5 24 -29.5 68t29.5 69.5t81.5 25.5t81.5 -25.5t29.5 -69.5t-29.5 -68t-81.5 -24t-81.5 24z" />
    <glyph glyph-name="uni1E61" unicode="&#x1e61;" horiz-adv-x="900" 
d="M109 25v129q149 -45 301 -45q268 0 268 182q0 74 -38.5 113t-128.5 59l-147 30q-145 31 -210 103t-65 192q0 93 47 164t143.5 110.5t238.5 39.5q131 0 256 -32v-130q-66 18 -126 26t-126 8q-147 0 -213.5 -49.5t-66.5 -132.5q0 -67 37 -108t125 -60l147 -30
q148 -31 214.5 -102t66.5 -193q0 -150 -109 -234t-313 -84q-165 0 -301 44zM372 1346.5q-29 26.5 -29 74.5t29.5 75t82.5 27t82 -27t29 -75t-29 -74.5t-82 -26.5q-54 0 -83 26.5z" />
    <glyph glyph-name="uni1E62" unicode="&#x1e62;" horiz-adv-x="1063" 
d="M277 -3.5q-95 15.5 -180 44.5v140q90 -31 184.5 -46t182.5 -15q361 0 361 271q0 75 -29.5 125.5t-93 85t-172.5 62.5l-80 21q-190 49 -283 146.5t-93 256.5q0 128 59.5 220.5t177 141.5t290.5 49q86 0 170 -11.5t153 -33.5v-140q-150 46 -318 46q-187 0 -277.5 -67.5
t-90.5 -194.5q0 -73 26.5 -123t85.5 -84.5t161 -61.5l80 -20q206 -52 302 -150t96 -258q0 -133 -62 -227t-180 -143.5t-285 -49.5q-90 0 -185 15.5zM458.5 -325.5q-29.5 24.5 -29.5 68.5t29.5 69t81.5 25t81.5 -25t29.5 -69t-29.5 -68.5t-81.5 -24.5t-81.5 24.5z" />
    <glyph glyph-name="uni1E63" unicode="&#x1e63;" horiz-adv-x="900" 
d="M109 25v129q149 -45 301 -45q268 0 268 182q0 74 -38.5 113t-128.5 59l-147 30q-145 31 -210 103t-65 192q0 93 47 164t143.5 110.5t238.5 39.5q131 0 256 -32v-130q-66 18 -126 26t-126 8q-147 0 -213.5 -49.5t-66.5 -132.5q0 -67 37 -108t125 -60l147 -30
q148 -31 214.5 -102t66.5 -193q0 -150 -109 -234t-313 -84q-165 0 -301 44zM380 -333.5q-28 26.5 -28 71.5t28 72t75 27t74.5 -27t27.5 -72t-27.5 -71.5t-74.5 -26.5t-75 26.5z" />
    <glyph glyph-name="uni1E64" unicode="&#x1e64;" horiz-adv-x="1063" 
d="M277 -3.5q-95 15.5 -180 44.5v140q90 -31 184.5 -46t182.5 -15q361 0 361 271q0 75 -29.5 125.5t-93 85t-172.5 62.5l-80 21q-190 49 -283 146.5t-93 256.5q0 128 59.5 220.5t177 141.5t290.5 49q86 0 170 -11.5t153 -33.5v-140q-150 46 -318 46q-187 0 -277.5 -67.5
t-90.5 -194.5q0 -73 26.5 -123t85.5 -84.5t161 -61.5l80 -20q206 -52 302 -150t96 -258q0 -133 -62 -227t-180 -143.5t-285 -49.5q-90 0 -185 15.5zM360 1874q-26 22 -26 61t26 62t72 23t72 -23t26 -62t-26 -61t-72 -22t-72 22zM466 1608l178 284h173l-204 -284h-147z" />
    <glyph glyph-name="uni1E65" unicode="&#x1e65;" horiz-adv-x="900" 
d="M109 25v129q149 -45 301 -45q268 0 268 182q0 74 -38.5 113t-128.5 59l-147 30q-145 31 -210 103t-65 192q0 93 47 164t143.5 110.5t238.5 39.5q131 0 256 -32v-130q-66 18 -126 26t-126 8q-147 0 -213.5 -49.5t-66.5 -132.5q0 -67 37 -108t125 -60l147 -30
q148 -31 214.5 -102t66.5 -193q0 -150 -109 -234t-313 -84q-165 0 -301 44zM297 1598q-26 22 -26 61t26 62t72 23q45 0 71 -23t26 -62t-25.5 -61t-71.5 -22t-72 22zM381 1253l216 363h173l-241 -363h-148z" />
    <glyph glyph-name="uni1E66" unicode="&#x1e66;" horiz-adv-x="1063" 
d="M277 -3.5q-95 15.5 -180 44.5v140q90 -31 184.5 -46t182.5 -15q361 0 361 271q0 75 -29.5 125.5t-93 85t-172.5 62.5l-80 21q-190 49 -283 146.5t-93 256.5q0 128 59.5 220.5t177 141.5t290.5 49q86 0 170 -11.5t153 -33.5v-140q-150 46 -318 46q-187 0 -277.5 -67.5
t-90.5 -194.5q0 -73 26.5 -123t85.5 -84.5t161 -61.5l80 -20q206 -52 302 -150t96 -258q0 -133 -62 -227t-180 -143.5t-285 -49.5q-90 0 -185 15.5zM468 1924q-26 22 -26 61t26 62t72 23t72 -23t26 -62t-26 -61t-72 -22t-72 22zM719 1892h140l-245 -284h-148l-245 284h140
l179 -214z" />
    <glyph glyph-name="uni1E67" unicode="&#x1e67;" horiz-adv-x="900" 
d="M109 25v129q149 -45 301 -45q268 0 268 182q0 74 -38.5 113t-128.5 59l-147 30q-145 31 -210 103t-65 192q0 93 47 164t143.5 110.5t238.5 39.5q131 0 256 -32v-130q-66 18 -126 26t-126 8q-147 0 -213.5 -49.5t-66.5 -132.5q0 -67 37 -108t125 -60l147 -30
q148 -31 214.5 -102t66.5 -193q0 -150 -109 -234t-313 -84q-165 0 -301 44zM383 1647q-26 22 -26 61t26 62t72 23t72 -23t26 -62t-26 -61t-72 -22t-72 22zM625 1616h129l-227 -363h-144l-227 363h129l170 -281z" />
    <glyph glyph-name="uni1E68" unicode="&#x1e68;" horiz-adv-x="1063" 
d="M277 -3.5q-95 15.5 -180 44.5v140q90 -31 184.5 -46t182.5 -15q361 0 361 271q0 75 -29.5 125.5t-93 85t-172.5 62.5l-80 21q-190 49 -283 146.5t-93 256.5q0 128 59.5 220.5t177 141.5t290.5 49q86 0 170 -11.5t153 -33.5v-140q-150 46 -318 46q-187 0 -277.5 -67.5
t-90.5 -194.5q0 -73 26.5 -123t85.5 -84.5t161 -61.5l80 -20q206 -52 302 -150t96 -258q0 -133 -62 -227t-180 -143.5t-285 -49.5q-90 0 -185 15.5zM458.5 -325.5q-29.5 24.5 -29.5 68.5t29.5 69t81.5 25t81.5 -25t29.5 -69t-29.5 -68.5t-81.5 -24.5t-81.5 24.5zM458.5 1683
q-29.5 24 -29.5 68t29.5 69.5t81.5 25.5t81.5 -25.5t29.5 -69.5t-29.5 -68t-81.5 -24t-81.5 24z" />
    <glyph glyph-name="uni1E69" unicode="&#x1e69;" horiz-adv-x="900" 
d="M109 25v129q149 -45 301 -45q268 0 268 182q0 74 -38.5 113t-128.5 59l-147 30q-145 31 -210 103t-65 192q0 93 47 164t143.5 110.5t238.5 39.5q131 0 256 -32v-130q-66 18 -126 26t-126 8q-147 0 -213.5 -49.5t-66.5 -132.5q0 -67 37 -108t125 -60l147 -30
q148 -31 214.5 -102t66.5 -193q0 -150 -109 -234t-313 -84q-165 0 -301 44zM380 -333.5q-28 26.5 -28 71.5t28 72t75 27t74.5 -27t27.5 -72t-27.5 -71.5t-74.5 -26.5t-75 26.5zM372 1346.5q-29 26.5 -29 74.5t29.5 75t82.5 27t82 -27t29 -75t-29 -74.5t-82 -26.5
q-54 0 -83 26.5z" />
    <glyph glyph-name="uni1E6C" unicode="&#x1e6c;" horiz-adv-x="1175" 
d="M506 0v1338h-492v142h1148v-142h-493v-1338h-163zM506.5 -325.5q-29.5 24.5 -29.5 68.5t29.5 69t81.5 25t81.5 -25t29.5 -69t-29.5 -68.5t-81.5 -24.5t-81.5 24.5z" />
    <glyph glyph-name="uni1E6D" unicode="&#x1e6d;" horiz-adv-x="749" 
d="M733 136v-135q-85 -20 -167 -20q-351 0 -351 360v612h-205v132h205l26 395h134v-395h341v-132h-341v-587q0 -133 54.5 -189.5t170.5 -56.5q57 0 133 16zM399 -333.5q-28 26.5 -28 71.5t28 72t75 27t74.5 -27t27.5 -72t-27.5 -71.5t-74.5 -26.5t-75 26.5z" />
    <glyph glyph-name="uni1E6E" unicode="&#x1e6e;" horiz-adv-x="1175" 
d="M506 0v1338h-492v142h1148v-142h-493v-1338h-163zM282 -309v108h612v-108h-612z" />
    <glyph glyph-name="uni1E6F" unicode="&#x1e6f;" horiz-adv-x="749" 
d="M733 136v-135q-85 -20 -167 -20q-351 0 -351 360v612h-205v132h205l26 395h134v-395h341v-132h-341v-587q0 -133 54.5 -189.5t170.5 -56.5q57 0 133 16zM188 -315v107h571v-107h-571z" />
    <glyph glyph-name="uni1E78" unicode="&#x1e78;" horiz-adv-x="1417" 
d="M400 43q-121 62 -179.5 189.5t-58.5 327.5v920h162v-938q0 -219 93 -320t293 -101t293 101t93 320v938h159v-920q0 -200 -58 -327.5t-178 -189.5t-309 -62t-310 62zM631 1911l177 232h186l-204 -232h-159zM786.5 1678q-35.5 10 -91.5 30q-45 18 -77 27t-65 9
q-53 0 -93 -17t-78 -54v111q63 65 173 65q43 0 80 -10.5t90 -30.5q45 -18 77 -27t64 -9q53 0 93 17t79 54v-110q-32 -33 -74 -49t-100 -16q-42 0 -77.5 10z" />
    <glyph glyph-name="uni1E79" unicode="&#x1e79;" horiz-adv-x="1127" 
d="M231.5 73q-92.5 91 -92.5 291v721h160v-713q0 -132 58.5 -189.5t163.5 -57.5q80 0 160.5 36t134.5 108v816h160v-1085h-135l-12 119h-10q-67 -68 -152.5 -102.5t-181.5 -34.5q-161 0 -253.5 91zM629.5 1355.5q-33.5 10.5 -87.5 33.5q-41 19 -70.5 28.5t-58.5 9.5
q-49 0 -88 -18t-77 -58v116q62 67 167 67q38 0 71.5 -10.5t87.5 -33.5q41 -19 70.5 -28.5t58.5 -9.5q48 0 87.5 18.5t77.5 57.5v-116q-64 -67 -167 -67q-38 0 -71.5 10.5zM519 1707l178 284h173l-204 -284h-147z" />
    <glyph glyph-name="uni1E7A" unicode="&#x1e7a;" horiz-adv-x="1417" 
d="M400 43q-121 62 -179.5 189.5t-58.5 327.5v920h162v-938q0 -219 93 -320t293 -101t293 101t93 320v938h159v-920q0 -200 -58 -327.5t-178 -189.5t-309 -62t-310 62zM404 1696v109h612v-109h-612zM400 1956.5q-27 24.5 -27 67.5q0 44 27.5 69.5t75.5 25.5t75 -25.5
t27 -69.5q0 -43 -27 -67.5t-75 -24.5q-49 0 -76 24.5zM869 1956.5q-27 24.5 -27 67.5q0 44 27 69.5t75 25.5t75.5 -25.5t27.5 -69.5q0 -43 -27 -67.5t-76 -24.5q-48 0 -75 24.5z" />
    <glyph glyph-name="uni1E7B" unicode="&#x1e7b;" horiz-adv-x="1127" 
d="M231.5 73q-92.5 91 -92.5 291v721h160v-713q0 -132 58.5 -189.5t163.5 -57.5q80 0 160.5 36t134.5 108v816h160v-1085h-135l-12 119h-10q-67 -68 -152.5 -102.5t-181.5 -34.5q-161 0 -253.5 91zM248 1368v108h620v-108h-620zM265.5 1652.5q-27.5 26.5 -27.5 72.5t27.5 73
t75.5 27q47 0 74.5 -27t27.5 -73t-27.5 -72.5t-74.5 -26.5q-48 0 -75.5 26.5zM700.5 1652.5q-27.5 26.5 -27.5 72.5t27.5 73t74.5 27q48 0 75.5 -27t27.5 -73t-27.5 -72.5t-75.5 -26.5q-47 0 -74.5 26.5z" />
    <glyph glyph-name="Wgrave" unicode="&#x1e80;" horiz-adv-x="2114" 
d="M1902 1480h156l-416 -1480h-213l-370 1303l-375 -1303h-212l-417 1480h166l366 -1331l378 1331h191l375 -1335zM985 1608l-205 284h173l178 -284h-146z" />
    <glyph glyph-name="wgrave" unicode="&#x1e81;" horiz-adv-x="1691" 
d="M1480 1085h151l-316 -1085h-189l-279 927l-281 -927h-188l-318 1085h157l263 -919l275 919h188l274 -914zM773 1253l-241 363h173l216 -363h-148z" />
    <glyph glyph-name="Wacute" unicode="&#x1e82;" horiz-adv-x="2114" 
d="M1902 1480h156l-416 -1480h-213l-370 1303l-375 -1303h-212l-417 1480h166l366 -1331l378 1331h191l375 -1335zM984 1608l178 284h173l-204 -284h-147z" />
    <glyph glyph-name="wacute" unicode="&#x1e83;" horiz-adv-x="1691" 
d="M1480 1085h151l-316 -1085h-189l-279 927l-281 -927h-188l-318 1085h157l263 -919l275 919h188l274 -914zM773 1253l216 363h173l-241 -363h-148z" />
    <glyph glyph-name="Wdieresis" unicode="&#x1e84;" horiz-adv-x="2114" 
d="M1902 1480h156l-416 -1480h-213l-370 1303l-375 -1303h-212l-417 1480h166l366 -1331l378 1331h191l375 -1335zM748 1683.5q-27 24.5 -27 67.5q0 44 27.5 69.5t75.5 25.5t75 -25.5t27 -69.5q0 -43 -27 -67.5t-75 -24.5q-49 0 -76 24.5zM1217 1683.5q-27 24.5 -27 67.5
q0 44 27 69.5t75 25.5t75.5 -25.5t27.5 -69.5q0 -43 -27 -67.5t-76 -24.5q-48 0 -75 24.5z" />
    <glyph glyph-name="wdieresis" unicode="&#x1e85;" horiz-adv-x="1691" 
d="M1480 1085h151l-316 -1085h-189l-279 927l-281 -927h-188l-318 1085h157l263 -919l275 919h188l274 -914zM554.5 1348.5q-27.5 26.5 -27.5 72.5t27.5 73t75.5 27q47 0 74.5 -27t27.5 -73t-27.5 -72.5t-74.5 -26.5q-48 0 -75.5 26.5zM989.5 1348.5q-27.5 26.5 -27.5 72.5
t27.5 73t74.5 27q48 0 75.5 -27t27.5 -73t-27.5 -72.5t-75.5 -26.5q-47 0 -74.5 26.5z" />
    <glyph glyph-name="uni1E8E" unicode="&#x1e8e;" horiz-adv-x="1175" 
d="M1197 1480l-528 -822v-658h-162v658l-538 822h179l443 -679l438 679h168zM506.5 1683q-29.5 24 -29.5 68t29.5 69.5t81.5 25.5t81.5 -25.5t29.5 -69.5t-29.5 -68t-81.5 -24t-81.5 24z" />
    <glyph glyph-name="uni1E8F" unicode="&#x1e8f;" horiz-adv-x="1057" 
d="M880 1085h161l-576 -1525h-160l167 440h-47l-409 1085h170l344 -951zM447 1346.5q-29 26.5 -29 74.5t29.5 75t82.5 27t82 -27t29 -75t-29 -74.5t-82 -26.5q-54 0 -83 26.5z" />
    <glyph glyph-name="uni1E92" unicode="&#x1e92;" horiz-adv-x="1153" 
d="M275 140h817v-140h-1031v91l805 1249h-793v140h1007v-91zM494.5 -325.5q-29.5 24.5 -29.5 68.5t29.5 69t81.5 25t81.5 -25t29.5 -69t-29.5 -68.5t-81.5 -24.5t-81.5 24.5z" />
    <glyph glyph-name="uni1E93" unicode="&#x1e93;" horiz-adv-x="918" 
d="M264 133h600v-133h-802v99l589 854h-577v132h778v-99zM388 -333.5q-28 26.5 -28 71.5t28 72t75 27t74.5 -27t27.5 -72t-27.5 -71.5t-74.5 -26.5t-75 26.5z" />
    <glyph glyph-name="uni1E97" unicode="&#x1e97;" horiz-adv-x="749" 
d="M733 136v-135q-85 -20 -167 -20q-351 0 -351 360v612h-205v132h205l26 395h134v-395h341v-132h-341v-587q0 -133 54.5 -189.5t170.5 -56.5q57 0 133 16zM2.5 1638.5q-27.5 26.5 -27.5 72.5t27.5 73t75.5 27q47 0 74.5 -27t27.5 -73t-27.5 -72.5t-74.5 -26.5
q-48 0 -75.5 26.5zM437.5 1638.5q-27.5 26.5 -27.5 72.5t27.5 73t74.5 27q48 0 75.5 -27t27.5 -73t-27.5 -72.5t-75.5 -26.5q-47 0 -74.5 26.5z" />
    <glyph glyph-name="uni1E9E" unicode="&#x1e9e;" horiz-adv-x="1695" 
d="M1526 659.5q95 -97.5 95 -258.5q0 -133 -61 -227t-178.5 -143.5t-283.5 -49.5q-86 0 -180 15t-177 44v140q89 -30 182.5 -45t175.5 -15q359 0 359 271q0 75 -29 125.5t-91 85t-169 62.5l-79 21q-188 49 -280 146.5t-92 256.5q0 163 91 263q-46 10 -105 10
q-193 0 -283 -97t-90 -304v-960h-162v938q0 285 131 423t404 138q151 0 259 -45q118 45 279 45q82 0 164.5 -11.5t150.5 -32.5v-140q-145 45 -310 45q-186 0 -276 -67.5t-90 -194.5q0 -73 26 -123t84 -85t158 -61l79 -20q203 -52 298 -149.5z" />
    <glyph glyph-name="uni1EA0" unicode="&#x1ea0;" horiz-adv-x="1348" 
d="M1154 0l-169 479h-625l-169 -479h-163l531 1480h229l531 -1480h-165zM408 616h528l-264 746zM593.5 -325.5q-29.5 24.5 -29.5 68.5t29.5 69t81.5 25t81.5 -25t29.5 -69t-29.5 -68.5t-81.5 -24.5t-81.5 24.5z" />
    <glyph glyph-name="uni1EA1" unicode="&#x1ea1;" horiz-adv-x="1029" 
d="M707 1065q91 -37 137 -123t46 -231v-711h-134l-12 121h-11q-52 -66 -134.5 -102.5t-178.5 -36.5q-101 0 -175 35.5t-113.5 102.5t-39.5 158q0 144 94 222.5t299 98.5l248 27v93q0 97 -30.5 152t-91 77.5t-158.5 22.5q-67 0 -143.5 -12t-149.5 -37v132q67 23 152 35.5
t162 12.5q142 0 233 -37zM608 138q71 32 125 100v280l-237 -26q-127 -13 -184.5 -62t-57.5 -137q0 -92 52 -139.5t154 -47.5q77 0 148 32zM446 -333.5q-28 26.5 -28 71.5t28 72t75 27t74.5 -27t27.5 -72t-27.5 -71.5t-74.5 -26.5t-75 26.5z" />
    <glyph glyph-name="uni1EA2" unicode="&#x1ea2;" horiz-adv-x="1348" 
d="M1154 0l-169 479h-625l-169 -479h-163l531 1480h229l531 -1480h-165zM408 616h528l-264 746zM652.5 1672.5q26.5 22.5 73.5 43.5q33 14 49 26t16 31q0 23 -26 35t-90 12q-101 0 -196 -32v79q40 15 94 23.5t111 8.5q104 0 155.5 -31t51.5 -86q0 -28 -13 -47t-30.5 -30
t-48.5 -27q-37 -18 -55 -32t-21 -38h-99q2 42 28.5 64.5z" />
    <glyph glyph-name="uni1EA3" unicode="&#x1ea3;" horiz-adv-x="1029" 
d="M707 1065q91 -37 137 -123t46 -231v-711h-134l-12 121h-11q-52 -66 -134.5 -102.5t-178.5 -36.5q-101 0 -175 35.5t-113.5 102.5t-39.5 158q0 144 94 222.5t299 98.5l248 27v93q0 97 -30.5 152t-91 77.5t-158.5 22.5q-67 0 -143.5 -12t-149.5 -37v132q67 23 152 35.5
t162 12.5q142 0 233 -37zM608 138q71 32 125 100v280l-237 -26q-127 -13 -184.5 -62t-57.5 -137q0 -92 52 -139.5t154 -47.5q77 0 148 32zM477 1319q14 28 32.5 45t48.5 39q31 22 46 38t15 39q0 34 -28 50.5t-89 16.5q-84 0 -158 -24v80q33 11 77.5 18t86.5 7
q210 0 210 -140q0 -32 -11.5 -55t-27.5 -38t-43 -35q-37 -27 -55.5 -49t-20.5 -58h-98q1 38 15 66z" />
    <glyph glyph-name="uni1EA4" unicode="&#x1ea4;" horiz-adv-x="1348" 
d="M1154 0l-169 479h-625l-169 -479h-163l531 1480h229l531 -1480h-165zM408 616h528l-264 746zM1057 2064h130l-181 -263h-104zM600 1880h148l245 -272h-140l-179 206l-179 -206h-140z" />
    <glyph glyph-name="uni1EA5" unicode="&#x1ea5;" horiz-adv-x="1029" 
d="M707 1065q91 -37 137 -123t46 -231v-711h-134l-12 121h-11q-52 -66 -134.5 -102.5t-178.5 -36.5q-101 0 -175 35.5t-113.5 102.5t-39.5 158q0 144 94 222.5t299 98.5l248 27v93q0 97 -30.5 152t-91 77.5t-158.5 22.5q-67 0 -143.5 -12t-149.5 -37v132q67 23 152 35.5
t162 12.5q142 0 233 -37zM608 138q71 32 125 100v280l-237 -26q-127 -13 -184.5 -62t-57.5 -137q0 -92 52 -139.5t154 -47.5q77 0 148 32zM900 1868h150l-205 -271h-123zM439 1616h144l223 -363h-128l-167 280l-167 -280h-129z" />
    <glyph glyph-name="uni1EA6" unicode="&#x1ea6;" horiz-adv-x="1348" 
d="M1154 0l-169 479h-625l-169 -479h-163l531 1480h229l531 -1480h-165zM408 616h528l-264 746zM1031 1801h-104l-181 263h129zM600 1880h148l245 -272h-140l-179 206l-179 -206h-140z" />
    <glyph glyph-name="uni1EA7" unicode="&#x1ea7;" horiz-adv-x="1029" 
d="M707 1065q91 -37 137 -123t46 -231v-711h-134l-12 121h-11q-52 -66 -134.5 -102.5t-178.5 -36.5q-101 0 -175 35.5t-113.5 102.5t-39.5 158q0 144 94 222.5t299 98.5l248 27v93q0 97 -30.5 152t-91 77.5t-158.5 22.5q-67 0 -143.5 -12t-149.5 -37v132q67 23 152 35.5
t162 12.5q142 0 233 -37zM608 138q71 32 125 100v280l-237 -26q-127 -13 -184.5 -62t-57.5 -137q0 -92 52 -139.5t154 -47.5q77 0 148 32zM865 1597h-122l-205 271h149zM439 1616h144l223 -363h-128l-167 280l-167 -280h-129z" />
    <glyph glyph-name="uni1EA8" unicode="&#x1ea8;" horiz-adv-x="1348" 
d="M1154 0l-169 479h-625l-169 -479h-163l531 1480h229l531 -1480h-165zM408 616h528l-264 746zM1117.5 2050q51.5 -30 51.5 -82q0 -26 -13 -44.5t-31 -29.5t-48 -26q-37 -17 -55 -30.5t-21 -36.5h-99q1 29 16 48.5t34.5 30.5t51.5 25q34 14 49.5 25.5t15.5 29.5
q0 23 -26.5 34.5t-90.5 11.5q-101 0 -195 -31v73q41 15 95 23.5t109 8.5q105 0 156.5 -30zM600 1880h148l245 -272h-140l-179 206l-179 -206h-140z" />
    <glyph glyph-name="uni1EA9" unicode="&#x1ea9;" horiz-adv-x="1029" 
d="M707 1065q91 -37 137 -123t46 -231v-711h-134l-12 121h-11q-52 -66 -134.5 -102.5t-178.5 -36.5q-101 0 -175 35.5t-113.5 102.5t-39.5 158q0 144 94 222.5t299 98.5l248 27v93q0 97 -30.5 152t-91 77.5t-158.5 22.5q-67 0 -143.5 -12t-149.5 -37v132q67 23 152 35.5
t162 12.5q142 0 233 -37zM608 138q71 32 125 100v280l-237 -26q-127 -13 -184.5 -62t-57.5 -137q0 -92 52 -139.5t154 -47.5q77 0 148 32zM927 1845.5q50 -29.5 50 -81.5q0 -37 -22.5 -57t-65.5 -40q-37 -17 -55.5 -31t-21.5 -39h-95q1 29 16 48.5t33.5 30.5t50.5 26
q32 13 47.5 24t15.5 29q0 23 -25.5 35t-88.5 12q-98 0 -192 -31v72q39 15 92.5 23.5t108.5 8.5q102 0 152 -29.5zM439 1616h144l223 -363h-128l-167 280l-167 -280h-129z" />
    <glyph glyph-name="uni1EAA" unicode="&#x1eaa;" horiz-adv-x="1348" 
d="M1154 0l-169 479h-625l-169 -479h-163l531 1480h229l531 -1480h-165zM408 616h528l-264 746zM909.5 2027.5q40.5 16.5 83.5 52.5v-94q-35 -32 -78 -46.5t-96 -14.5q-39 0 -75.5 10t-86.5 29q-48 17 -74.5 24.5t-54.5 7.5q-49 0 -89.5 -16.5t-83.5 -53.5v94q36 32 78.5 47
t95.5 15q39 0 75.5 -10t86.5 -29q48 -17 74.5 -24.5t54.5 -7.5q49 0 89.5 16.5zM600 1880h148l245 -272h-140l-179 206l-179 -206h-140z" />
    <glyph glyph-name="uni1EAB" unicode="&#x1eab;" horiz-adv-x="1029" 
d="M707 1065q91 -37 137 -123t46 -231v-711h-134l-12 121h-11q-52 -66 -134.5 -102.5t-178.5 -36.5q-101 0 -175 35.5t-113.5 102.5t-39.5 158q0 144 94 222.5t299 98.5l248 27v93q0 97 -30.5 152t-91 77.5t-158.5 22.5q-67 0 -143.5 -12t-149.5 -37v132q67 23 152 35.5
t162 12.5q142 0 233 -37zM608 138q71 32 125 100v280l-237 -26q-127 -13 -184.5 -62t-57.5 -137q0 -92 52 -139.5t154 -47.5q77 0 148 32zM749.5 1767.5q39.5 16.5 77.5 51.5v-102q-62 -62 -169 -62q-40 0 -75.5 10t-86.5 29q-49 18 -76.5 26t-57.5 8q-50 0 -89.5 -16.5
t-77.5 -51.5v102q62 62 169 62q40 0 75.5 -10t86.5 -29q49 -18 76.5 -26t57.5 -8q50 0 89.5 16.5zM437 1596h148l228 -343h-132l-170 269l-171 -269h-132z" />
    <glyph glyph-name="uni1EAC" unicode="&#x1eac;" horiz-adv-x="1348" 
d="M1154 0l-169 479h-625l-169 -479h-163l531 1480h229l531 -1480h-165zM408 616h528l-264 746zM593.5 -325.5q-29.5 24.5 -29.5 68.5t29.5 69t81.5 25t81.5 -25t29.5 -69t-29.5 -68.5t-81.5 -24.5t-81.5 24.5zM993 1608h-140l-179 214l-179 -214h-140l245 284h148z" />
    <glyph glyph-name="uni1EAD" unicode="&#x1ead;" horiz-adv-x="1029" 
d="M707 1065q91 -37 137 -123t46 -231v-711h-134l-12 121h-11q-52 -66 -134.5 -102.5t-178.5 -36.5q-101 0 -175 35.5t-113.5 102.5t-39.5 158q0 144 94 222.5t299 98.5l248 27v93q0 97 -30.5 152t-91 77.5t-158.5 22.5q-67 0 -143.5 -12t-149.5 -37v132q67 23 152 35.5
t162 12.5q142 0 233 -37zM608 138q71 32 125 100v280l-237 -26q-127 -13 -184.5 -62t-57.5 -137q0 -92 52 -139.5t154 -47.5q77 0 148 32zM446 -333.5q-28 26.5 -28 71.5t28 72t75 27t74.5 -27t27.5 -72t-27.5 -71.5t-74.5 -26.5t-75 26.5zM806 1253h-128l-167 280
l-167 -280h-129l224 363h144z" />
    <glyph glyph-name="uni1EAE" unicode="&#x1eae;" horiz-adv-x="1348" 
d="M1154 0l-169 479h-625l-169 -479h-163l531 1480h229l531 -1480h-165zM408 616h528l-264 746zM622 1841l155 248h130l-181 -248h-104zM452 1681q-79 64 -91 178h99q12 -79 61 -117t154 -38q104 0 152.5 38t62.5 117h97q-12 -114 -90.5 -178t-221.5 -64q-144 0 -223 64z
" />
    <glyph glyph-name="uni1EAF" unicode="&#x1eaf;" horiz-adv-x="1029" 
d="M707 1065q91 -37 137 -123t46 -231v-711h-134l-12 121h-11q-52 -66 -134.5 -102.5t-178.5 -36.5q-101 0 -175 35.5t-113.5 102.5t-39.5 158q0 144 94 222.5t299 98.5l248 27v93q0 97 -30.5 152t-91 77.5t-158.5 22.5q-67 0 -143.5 -12t-149.5 -37v132q67 23 152 35.5
t162 12.5q142 0 233 -37zM608 138q71 32 125 100v280l-237 -26q-127 -13 -184.5 -62t-57.5 -137q0 -92 52 -139.5t154 -47.5q77 0 148 32zM449 1597l178 271h150l-205 -271h-123zM294.5 1347.5q-78.5 82.5 -87.5 230.5h108q9 -109 57 -164.5t140 -55.5q93 0 140 55.5
t55 164.5h108q-9 -149 -86.5 -231t-216.5 -82t-217.5 82.5z" />
    <glyph glyph-name="uni1EB0" unicode="&#x1eb0;" horiz-adv-x="1348" 
d="M1154 0l-169 479h-625l-169 -479h-163l531 1480h229l531 -1480h-165zM408 616h528l-264 746zM622 1841l-181 248h129l156 -248h-104zM451 1681q-78 64 -90 178h97q13 -79 62 -117t153 -38q105 0 153.5 38t60.5 117h100q-12 -113 -91.5 -177.5t-222.5 -64.5
q-144 0 -222 64z" />
    <glyph glyph-name="uni1EB1" unicode="&#x1eb1;" horiz-adv-x="1029" 
d="M707 1065q91 -37 137 -123t46 -231v-711h-134l-12 121h-11q-52 -66 -134.5 -102.5t-178.5 -36.5q-101 0 -175 35.5t-113.5 102.5t-39.5 158q0 144 94 222.5t299 98.5l248 27v93q0 97 -30.5 152t-91 77.5t-158.5 22.5q-67 0 -143.5 -12t-149.5 -37v132q67 23 152 35.5
t162 12.5q142 0 233 -37zM608 138q71 32 125 100v280l-237 -26q-127 -13 -184.5 -62t-57.5 -137q0 -92 52 -139.5t154 -47.5q77 0 148 32zM450 1597l-205 271h150l178 -271h-123zM294.5 1347.5q-78.5 82.5 -87.5 230.5h108q9 -109 57 -164.5t140 -55.5q93 0 140 55.5
t55 164.5h108q-9 -149 -86.5 -231t-216.5 -82t-217.5 82.5z" />
    <glyph glyph-name="uni1EB2" unicode="&#x1eb2;" horiz-adv-x="1348" 
d="M1154 0l-169 479h-625l-169 -479h-163l531 1480h229l531 -1480h-165zM408 616h528l-264 746zM640 1889.5q15 19.5 34.5 30.5t51.5 25q34 14 49.5 25.5t15.5 29.5q0 22 -26.5 34t-89.5 12q-100 0 -196 -31v73q41 15 95 23.5t110 8.5q104 0 155.5 -30t51.5 -82
q0 -26 -13 -44.5t-31 -29.5t-48 -26q-37 -17 -55 -30.5t-21 -36.5h-99q1 29 16 48.5zM451 1681q-78 64 -90 178h99q12 -79 60 -117t152 -38q105 0 154.5 38t63.5 117h97q-12 -113 -91.5 -177.5t-223.5 -64.5q-143 0 -221 64z" />
    <glyph glyph-name="uni1EB3" unicode="&#x1eb3;" horiz-adv-x="1029" 
d="M707 1065q91 -37 137 -123t46 -231v-711h-134l-12 121h-11q-52 -66 -134.5 -102.5t-178.5 -36.5q-101 0 -175 35.5t-113.5 102.5t-39.5 158q0 144 94 222.5t299 98.5l248 27v93q0 97 -30.5 152t-91 77.5t-158.5 22.5q-67 0 -143.5 -12t-149.5 -37v132q67 23 152 35.5
t162 12.5q142 0 233 -37zM608 138q71 32 125 100v280l-237 -26q-127 -13 -184.5 -62t-57.5 -137q0 -92 52 -139.5t154 -47.5q77 0 148 32zM477 1644.5q15 19.5 34 30.5t51 25q34 15 50 26t16 29q0 23 -26.5 35t-89.5 12q-97 0 -196 -32v73q41 15 95 23.5t110 8.5
q104 0 155.5 -30t51.5 -82q0 -27 -13 -45.5t-31 -29t-49 -25.5q-35 -16 -53.5 -29.5t-21.5 -36.5h-99q1 28 16 47.5zM294.5 1347.5q-78.5 82.5 -87.5 230.5h108q9 -109 57 -164.5t140 -55.5q93 0 140 55.5t55 164.5h108q-9 -149 -86.5 -231t-216.5 -82t-217.5 82.5z" />
    <glyph glyph-name="uni1EB4" unicode="&#x1eb4;" horiz-adv-x="1348" 
d="M1154 0l-169 479h-625l-169 -479h-163l531 1480h229l531 -1480h-165zM408 616h528l-264 746zM741.5 1935q-34.5 10 -84.5 29q-45 17 -71.5 24.5t-52.5 7.5q-49 0 -89.5 -16.5t-82.5 -53.5v94q37 32 78.5 47t94.5 15q37 0 71.5 -9.5t84.5 -28.5q42 -17 70 -25t55 -8
q48 0 88.5 16.5t83.5 52.5v-94q-36 -32 -78 -46.5t-95 -14.5q-38 0 -72.5 10zM451 1681q-78 64 -90 178h99q12 -79 60 -117t152 -38q105 0 154 38.5t61 116.5h100q-12 -113 -91.5 -177.5t-223.5 -64.5q-143 0 -221 64z" />
    <glyph glyph-name="uni1EB5" unicode="&#x1eb5;" horiz-adv-x="1029" 
d="M707 1065q91 -37 137 -123t46 -231v-711h-134l-12 121h-11q-52 -66 -134.5 -102.5t-178.5 -36.5q-101 0 -175 35.5t-113.5 102.5t-39.5 158q0 144 94 222.5t299 98.5l248 27v93q0 97 -30.5 152t-91 77.5t-158.5 22.5q-67 0 -143.5 -12t-149.5 -37v132q67 23 152 35.5
t162 12.5q142 0 233 -37zM608 138q71 32 125 100v280l-237 -26q-127 -13 -184.5 -62t-57.5 -137q0 -92 52 -139.5t154 -47.5q77 0 148 32zM582.5 1665q-36.5 10 -86.5 29q-48 18 -77 26t-59 8q-50 0 -90 -16.5t-78 -51.5v102q64 62 170 62q41 0 77.5 -10t86.5 -29
q48 -18 77 -26t59 -8q50 0 90 16.5t78 51.5v-102q-64 -62 -170 -62q-41 0 -77.5 10zM294.5 1347.5q-78.5 82.5 -87.5 230.5h108q9 -109 57 -164.5t140 -55.5q93 0 140 55.5t55 164.5h108q-9 -149 -86.5 -231t-216.5 -82t-217.5 82.5z" />
    <glyph glyph-name="uni1EB6" unicode="&#x1eb6;" horiz-adv-x="1348" 
d="M1154 0l-169 479h-625l-169 -479h-163l531 1480h229l531 -1480h-165zM408 616h528l-264 746zM593.5 -325.5q-29.5 24.5 -29.5 68.5t29.5 69t81.5 25t81.5 -25t29.5 -69t-29.5 -68.5t-81.5 -24.5t-81.5 24.5zM448 1684.5q-81 67.5 -93 186.5h108q12 -81 61.5 -120
t150.5 -39t150 39t59 120h109q-12 -120 -91.5 -187t-226.5 -67q-146 0 -227 67.5z" />
    <glyph glyph-name="uni1EB7" unicode="&#x1eb7;" horiz-adv-x="1029" 
d="M707 1065q91 -37 137 -123t46 -231v-711h-134l-12 121h-11q-52 -66 -134.5 -102.5t-178.5 -36.5q-101 0 -175 35.5t-113.5 102.5t-39.5 158q0 144 94 222.5t299 98.5l248 27v93q0 97 -30.5 152t-91 77.5t-158.5 22.5q-67 0 -143.5 -12t-149.5 -37v132q67 23 152 35.5
t162 12.5q142 0 233 -37zM608 138q71 32 125 100v280l-237 -26q-127 -13 -184.5 -62t-57.5 -137q0 -92 52 -139.5t154 -47.5q77 0 148 32zM446 -333.5q-28 26.5 -28 71.5t28 72t75 27t74.5 -27t27.5 -72t-27.5 -71.5t-74.5 -26.5t-75 26.5zM296.5 1349q-78.5 85 -85.5 241
h108q8 -115 55 -173t138 -58t137.5 58t53.5 173h107q-6 -157 -83.5 -241.5t-214.5 -84.5t-215.5 85z" />
    <glyph glyph-name="uni1EB8" unicode="&#x1eb8;" horiz-adv-x="1166" 
d="M330 138h764v-138h-925v1480h915v-138h-754v-514h657v-137h-657v-553zM568.5 -325.5q-29.5 24.5 -29.5 68.5t29.5 69t81.5 25t81.5 -25t29.5 -69t-29.5 -68.5t-81.5 -24.5t-81.5 24.5z" />
    <glyph glyph-name="uni1EB9" unicode="&#x1eb9;" horiz-adv-x="1030" 
d="M951 489h-695q4 -137 45.5 -220t121.5 -120t204 -37q118 0 270 44v-131q-148 -44 -289 -44q-259 0 -386.5 134t-127.5 428q0 279 115.5 419t323.5 140q203 0 310.5 -139.5t107.5 -423.5v-50zM330 895q-70 -90 -74 -296h541q-4 207 -70.5 296.5t-195.5 89.5
q-131 0 -201 -90zM456 -333.5q-28 26.5 -28 71.5t28 72t75 27t74.5 -27t27.5 -72t-27.5 -71.5t-74.5 -26.5t-75 26.5z" />
    <glyph glyph-name="uni1EBA" unicode="&#x1eba;" horiz-adv-x="1166" 
d="M330 138h764v-138h-925v1480h915v-138h-754v-514h657v-137h-657v-553zM627.5 1672.5q26.5 22.5 73.5 43.5q33 14 49 26t16 31q0 23 -26 35t-90 12q-101 0 -196 -32v79q40 15 94 23.5t111 8.5q104 0 155.5 -31t51.5 -86q0 -28 -13 -47t-30.5 -30t-48.5 -27
q-37 -18 -55 -32t-21 -38h-99q2 42 28.5 64.5z" />
    <glyph glyph-name="uni1EBB" unicode="&#x1ebb;" horiz-adv-x="1030" 
d="M951 489h-695q4 -137 45.5 -220t121.5 -120t204 -37q118 0 270 44v-131q-148 -44 -289 -44q-259 0 -386.5 134t-127.5 428q0 279 115.5 419t323.5 140q203 0 310.5 -139.5t107.5 -423.5v-50zM330 895q-70 -90 -74 -296h541q-4 207 -70.5 296.5t-195.5 89.5
q-131 0 -201 -90zM497 1319q14 28 32.5 45t48.5 39q31 22 46 38t15 39q0 34 -28 50.5t-89 16.5q-84 0 -158 -24v80q33 11 77.5 18t86.5 7q210 0 210 -140q0 -32 -11.5 -55t-27.5 -38t-43 -35q-37 -27 -55.5 -49t-20.5 -58h-98q1 38 15 66z" />
    <glyph glyph-name="uni1EBC" unicode="&#x1ebc;" horiz-adv-x="1166" 
d="M330 138h764v-138h-925v1480h915v-138h-754v-514h657v-137h-657v-553zM725.5 1678q-35.5 10 -91.5 30q-45 18 -77 27t-65 9q-53 0 -93 -17t-78 -54v111q63 65 173 65q43 0 80 -10.5t90 -30.5q45 -18 77 -27t64 -9q53 0 93 17t79 54v-110q-32 -33 -74 -49t-100 -16
q-42 0 -77.5 10z" />
    <glyph glyph-name="uni1EBD" unicode="&#x1ebd;" horiz-adv-x="1030" 
d="M951 489h-695q4 -137 45.5 -220t121.5 -120t204 -37q118 0 270 44v-131q-148 -44 -289 -44q-259 0 -386.5 134t-127.5 428q0 279 115.5 419t323.5 140q203 0 310.5 -139.5t107.5 -423.5v-50zM330 895q-70 -90 -74 -296h541q-4 207 -70.5 296.5t-195.5 89.5
q-131 0 -201 -90zM602.5 1355.5q-33.5 10.5 -87.5 33.5q-41 19 -70.5 28.5t-58.5 9.5q-49 0 -88 -18t-77 -58v116q62 67 167 67q38 0 71.5 -10.5t87.5 -33.5q41 -19 70.5 -28.5t58.5 -9.5q48 0 87.5 18.5t77.5 57.5v-116q-64 -67 -167 -67q-38 0 -71.5 10.5z" />
    <glyph glyph-name="uni1EBE" unicode="&#x1ebe;" horiz-adv-x="1166" 
d="M330 138h764v-138h-925v1480h915v-138h-754v-514h657v-137h-657v-553zM1032 2064h130l-181 -263h-104zM575 1880h148l245 -272h-140l-179 206l-179 -206h-140z" />
    <glyph glyph-name="uni1EBF" unicode="&#x1ebf;" horiz-adv-x="1030" 
d="M951 489h-695q4 -137 45.5 -220t121.5 -120t204 -37q118 0 270 44v-131q-148 -44 -289 -44q-259 0 -386.5 134t-127.5 428q0 279 115.5 419t323.5 140q203 0 310.5 -139.5t107.5 -423.5v-50zM330 895q-70 -90 -74 -296h541q-4 207 -70.5 296.5t-195.5 89.5
q-131 0 -201 -90zM920 1868h150l-205 -271h-123zM459 1616h144l223 -363h-128l-167 280l-167 -280h-129z" />
    <glyph glyph-name="uni1EC0" unicode="&#x1ec0;" horiz-adv-x="1166" 
d="M330 138h764v-138h-925v1480h915v-138h-754v-514h657v-137h-657v-553zM1006 1801h-104l-181 263h129zM575 1880h148l245 -272h-140l-179 206l-179 -206h-140z" />
    <glyph glyph-name="uni1EC1" unicode="&#x1ec1;" horiz-adv-x="1030" 
d="M951 489h-695q4 -137 45.5 -220t121.5 -120t204 -37q118 0 270 44v-131q-148 -44 -289 -44q-259 0 -386.5 134t-127.5 428q0 279 115.5 419t323.5 140q203 0 310.5 -139.5t107.5 -423.5v-50zM330 895q-70 -90 -74 -296h541q-4 207 -70.5 296.5t-195.5 89.5
q-131 0 -201 -90zM885 1597h-122l-205 271h149zM459 1616h144l223 -363h-128l-167 280l-167 -280h-129z" />
    <glyph glyph-name="uni1EC2" unicode="&#x1ec2;" horiz-adv-x="1166" 
d="M330 138h764v-138h-925v1480h915v-138h-754v-514h657v-137h-657v-553zM1092.5 2050q51.5 -30 51.5 -82q0 -26 -13 -44.5t-31 -29.5t-48 -26q-37 -17 -55 -30.5t-21 -36.5h-99q1 29 16 48.5t34.5 30.5t51.5 25q34 14 49.5 25.5t15.5 29.5q0 23 -26.5 34.5t-90.5 11.5
q-101 0 -195 -31v73q41 15 95 23.5t109 8.5q105 0 156.5 -30zM575 1880h148l245 -272h-140l-179 206l-179 -206h-140z" />
    <glyph glyph-name="uni1EC3" unicode="&#x1ec3;" horiz-adv-x="1030" 
d="M951 489h-695q4 -137 45.5 -220t121.5 -120t204 -37q118 0 270 44v-131q-148 -44 -289 -44q-259 0 -386.5 134t-127.5 428q0 279 115.5 419t323.5 140q203 0 310.5 -139.5t107.5 -423.5v-50zM330 895q-70 -90 -74 -296h541q-4 207 -70.5 296.5t-195.5 89.5
q-131 0 -201 -90zM947 1845.5q50 -29.5 50 -81.5q0 -37 -22.5 -57t-65.5 -40q-37 -17 -55.5 -31t-21.5 -39h-95q1 29 16 48.5t33.5 30.5t50.5 26q32 13 47.5 24t15.5 29q0 23 -25.5 35t-88.5 12q-98 0 -192 -31v72q39 15 92.5 23.5t108.5 8.5q102 0 152 -29.5zM459 1616h144
l223 -363h-128l-167 280l-167 -280h-129z" />
    <glyph glyph-name="uni1EC4" unicode="&#x1ec4;" horiz-adv-x="1166" 
d="M330 138h764v-138h-925v1480h915v-138h-754v-514h657v-137h-657v-553zM884.5 2027.5q40.5 16.5 83.5 52.5v-94q-35 -32 -78 -46.5t-96 -14.5q-39 0 -75.5 10t-86.5 29q-48 17 -74.5 24.5t-54.5 7.5q-49 0 -89.5 -16.5t-83.5 -53.5v94q36 32 78.5 47t95.5 15
q39 0 75.5 -10t86.5 -29q48 -17 74.5 -24.5t54.5 -7.5q49 0 89.5 16.5zM575 1880h148l245 -272h-140l-179 206l-179 -206h-140z" />
    <glyph glyph-name="uni1EC5" unicode="&#x1ec5;" horiz-adv-x="1030" 
d="M951 489h-695q4 -137 45.5 -220t121.5 -120t204 -37q118 0 270 44v-131q-148 -44 -289 -44q-259 0 -386.5 134t-127.5 428q0 279 115.5 419t323.5 140q203 0 310.5 -139.5t107.5 -423.5v-50zM330 895q-70 -90 -74 -296h541q-4 207 -70.5 296.5t-195.5 89.5
q-131 0 -201 -90zM769.5 1767.5q39.5 16.5 77.5 51.5v-102q-62 -62 -169 -62q-40 0 -75.5 10t-86.5 29q-49 18 -76.5 26t-57.5 8q-50 0 -89.5 -16.5t-77.5 -51.5v102q62 62 169 62q40 0 75.5 -10t86.5 -29q49 -18 76.5 -26t57.5 -8q50 0 89.5 16.5zM457 1596h148l228 -343
h-132l-170 269l-171 -269h-132z" />
    <glyph glyph-name="uni1EC6" unicode="&#x1ec6;" horiz-adv-x="1166" 
d="M330 138h764v-138h-925v1480h915v-138h-754v-514h657v-137h-657v-553zM568.5 -325.5q-29.5 24.5 -29.5 68.5t29.5 69t81.5 25t81.5 -25t29.5 -69t-29.5 -68.5t-81.5 -24.5t-81.5 24.5zM968 1608h-140l-179 214l-179 -214h-140l245 284h148z" />
    <glyph glyph-name="uni1EC7" unicode="&#x1ec7;" horiz-adv-x="1030" 
d="M951 489h-695q4 -137 45.5 -220t121.5 -120t204 -37q118 0 270 44v-131q-148 -44 -289 -44q-259 0 -386.5 134t-127.5 428q0 279 115.5 419t323.5 140q203 0 310.5 -139.5t107.5 -423.5v-50zM330 895q-70 -90 -74 -296h541q-4 207 -70.5 296.5t-195.5 89.5
q-131 0 -201 -90zM456 -333.5q-28 26.5 -28 71.5t28 72t75 27t74.5 -27t27.5 -72t-27.5 -71.5t-74.5 -26.5t-75 26.5zM826 1253h-128l-167 280l-167 -280h-129l224 363h144z" />
    <glyph glyph-name="uni1EC8" unicode="&#x1ec8;" horiz-adv-x="500" 
d="M169 0v1480h162v-1480h-162zM228.5 1672.5q26.5 22.5 73.5 43.5q33 14 49 26t16 31q0 23 -26 35t-90 12q-101 0 -196 -32v79q40 15 94 23.5t111 8.5q104 0 155.5 -31t51.5 -86q0 -28 -13 -47t-30.5 -30t-48.5 -27q-37 -18 -55 -32t-21 -38h-99q2 42 28.5 64.5z" />
    <glyph glyph-name="uni1EC9" unicode="&#x1ec9;" horiz-adv-x="463" 
d="M151 0v1085h160v-1085h-160zM197 1319q14 28 32.5 45t48.5 39q31 22 46 38t15 39q0 34 -28 50.5t-89 16.5q-84 0 -158 -24v80q33 11 77.5 18t86.5 7q210 0 210 -140q0 -32 -11.5 -55t-27.5 -38t-43 -35q-37 -27 -55.5 -49t-20.5 -58h-98q1 38 15 66z" />
    <glyph glyph-name="uni1ECA" unicode="&#x1eca;" horiz-adv-x="500" 
d="M169 0v1480h162v-1480h-162zM168.5 -325.5q-29.5 24.5 -29.5 68.5t29.5 69t81.5 25t81.5 -25t29.5 -69t-29.5 -68.5t-81.5 -24.5t-81.5 24.5z" />
    <glyph glyph-name="uni1ECB" unicode="&#x1ecb;" horiz-adv-x="463" 
d="M151 0v1085h160v-1085h-160zM148 1346.5q-29 26.5 -29 74.5t29.5 75t82.5 27t82 -27t29 -75t-29 -74.5t-82 -26.5q-54 0 -83 26.5zM156 -333.5q-28 26.5 -28 71.5t28 72t75 27t74.5 -27t27.5 -72t-27.5 -71.5t-74.5 -26.5t-75 26.5z" />
    <glyph glyph-name="uni1ECC" unicode="&#x1ecc;" horiz-adv-x="1439" 
d="M267.5 167q-162.5 186 -162.5 573q0 261 75.5 430t213 249t325.5 80q289 0 451.5 -186t162.5 -573q0 -260 -75.5 -429.5t-212.5 -249.5t-326 -80q-289 0 -451.5 186zM1049 265.5q116 144.5 116 469.5q0 332 -116 478t-330 146q-213 0 -329.5 -144.5t-116.5 -469.5
q0 -332 116 -478t330 -146t330 144.5zM637.5 -325.5q-29.5 24.5 -29.5 68.5t29.5 69t81.5 25t81.5 -25t29.5 -69t-29.5 -68.5t-81.5 -24.5t-81.5 24.5z" />
    <glyph glyph-name="uni1ECD" unicode="&#x1ecd;" horiz-adv-x="1111" 
d="M215.5 118.5q-121.5 137.5 -121.5 422.5t121 423t340 138q220 0 341 -137t121 -423q0 -284 -122 -422.5t-340 -138.5t-339.5 137.5zM777 209.5q76 98.5 76 329.5q0 235 -76 333.5t-222 98.5q-145 0 -221.5 -98t-76.5 -329q0 -234 76 -333.5t222 -99.5t222 98.5z
M480 -333.5q-28 26.5 -28 71.5t28 72t75 27t74.5 -27t27.5 -72t-27.5 -71.5t-74.5 -26.5t-75 26.5z" />
    <glyph glyph-name="uni1ECE" unicode="&#x1ece;" horiz-adv-x="1439" 
d="M267.5 167q-162.5 186 -162.5 573q0 261 75.5 430t213 249t325.5 80q289 0 451.5 -186t162.5 -573q0 -260 -75.5 -429.5t-212.5 -249.5t-326 -80q-289 0 -451.5 186zM1049 265.5q116 144.5 116 469.5q0 332 -116 478t-330 146q-213 0 -329.5 -144.5t-116.5 -469.5
q0 -332 116 -478t330 -146t330 144.5zM697.5 1672.5q26.5 22.5 73.5 43.5q33 14 49 26t16 31q0 23 -26 35t-90 12q-101 0 -196 -32v79q40 15 94 23.5t111 8.5q104 0 155.5 -31t51.5 -86q0 -28 -13 -47t-30.5 -30t-48.5 -27q-37 -18 -55 -32t-21 -38h-99q2 42 28.5 64.5z" />
    <glyph glyph-name="uni1ECF" unicode="&#x1ecf;" horiz-adv-x="1111" 
d="M215.5 118.5q-121.5 137.5 -121.5 422.5t121 423t340 138q220 0 341 -137t121 -423q0 -284 -122 -422.5t-340 -138.5t-339.5 137.5zM777 209.5q76 98.5 76 329.5q0 235 -76 333.5t-222 98.5q-145 0 -221.5 -98t-76.5 -329q0 -234 76 -333.5t222 -99.5t222 98.5zM521 1319
q14 28 32.5 45t48.5 39q31 22 46 38t15 39q0 34 -28 50.5t-89 16.5q-84 0 -158 -24v80q33 11 77.5 18t86.5 7q210 0 210 -140q0 -32 -11.5 -55t-27.5 -38t-43 -35q-37 -27 -55.5 -49t-20.5 -58h-98q1 38 15 66z" />
    <glyph glyph-name="uni1ED0" unicode="&#x1ed0;" horiz-adv-x="1439" 
d="M267.5 167q-162.5 186 -162.5 573q0 261 75.5 430t213 249t325.5 80q289 0 451.5 -186t162.5 -573q0 -260 -75.5 -429.5t-212.5 -249.5t-326 -80q-289 0 -451.5 186zM1049 265.5q116 144.5 116 469.5q0 332 -116 478t-330 146q-213 0 -329.5 -144.5t-116.5 -469.5
q0 -332 116 -478t330 -146t330 144.5zM1102 2064h130l-181 -263h-104zM645 1880h148l245 -272h-140l-179 206l-179 -206h-140z" />
    <glyph glyph-name="uni1ED1" unicode="&#x1ed1;" horiz-adv-x="1111" 
d="M215.5 118.5q-121.5 137.5 -121.5 422.5t121 423t340 138q220 0 341 -137t121 -423q0 -284 -122 -422.5t-340 -138.5t-339.5 137.5zM777 209.5q76 98.5 76 329.5q0 235 -76 333.5t-222 98.5q-145 0 -221.5 -98t-76.5 -329q0 -234 76 -333.5t222 -99.5t222 98.5zM944 1868
h150l-205 -271h-123zM483 1616h144l223 -363h-128l-167 280l-167 -280h-129z" />
    <glyph glyph-name="uni1ED2" unicode="&#x1ed2;" horiz-adv-x="1439" 
d="M267.5 167q-162.5 186 -162.5 573q0 261 75.5 430t213 249t325.5 80q289 0 451.5 -186t162.5 -573q0 -260 -75.5 -429.5t-212.5 -249.5t-326 -80q-289 0 -451.5 186zM1049 265.5q116 144.5 116 469.5q0 332 -116 478t-330 146q-213 0 -329.5 -144.5t-116.5 -469.5
q0 -332 116 -478t330 -146t330 144.5zM1076 1801h-104l-181 263h129zM645 1880h148l245 -272h-140l-179 206l-179 -206h-140z" />
    <glyph glyph-name="uni1ED3" unicode="&#x1ed3;" horiz-adv-x="1111" 
d="M215.5 118.5q-121.5 137.5 -121.5 422.5t121 423t340 138q220 0 341 -137t121 -423q0 -284 -122 -422.5t-340 -138.5t-339.5 137.5zM777 209.5q76 98.5 76 329.5q0 235 -76 333.5t-222 98.5q-145 0 -221.5 -98t-76.5 -329q0 -234 76 -333.5t222 -99.5t222 98.5zM909 1597
h-122l-205 271h149zM483 1616h144l223 -363h-128l-167 280l-167 -280h-129z" />
    <glyph glyph-name="uni1ED4" unicode="&#x1ed4;" horiz-adv-x="1439" 
d="M267.5 167q-162.5 186 -162.5 573q0 261 75.5 430t213 249t325.5 80q289 0 451.5 -186t162.5 -573q0 -260 -75.5 -429.5t-212.5 -249.5t-326 -80q-289 0 -451.5 186zM1049 265.5q116 144.5 116 469.5q0 332 -116 478t-330 146q-213 0 -329.5 -144.5t-116.5 -469.5
q0 -332 116 -478t330 -146t330 144.5zM1162.5 2050q51.5 -30 51.5 -82q0 -26 -13 -44.5t-31 -29.5t-48 -26q-37 -17 -55 -30.5t-21 -36.5h-99q1 29 16 48.5t34.5 30.5t51.5 25q34 14 49.5 25.5t15.5 29.5q0 23 -26.5 34.5t-90.5 11.5q-101 0 -195 -31v73q41 15 95 23.5
t109 8.5q105 0 156.5 -30zM645 1880h148l245 -272h-140l-179 206l-179 -206h-140z" />
    <glyph glyph-name="uni1ED5" unicode="&#x1ed5;" horiz-adv-x="1111" 
d="M215.5 118.5q-121.5 137.5 -121.5 422.5t121 423t340 138q220 0 341 -137t121 -423q0 -284 -122 -422.5t-340 -138.5t-339.5 137.5zM777 209.5q76 98.5 76 329.5q0 235 -76 333.5t-222 98.5q-145 0 -221.5 -98t-76.5 -329q0 -234 76 -333.5t222 -99.5t222 98.5z
M971 1845.5q50 -29.5 50 -81.5q0 -37 -22.5 -57t-65.5 -40q-37 -17 -55.5 -31t-21.5 -39h-95q1 29 16 48.5t33.5 30.5t50.5 26q32 13 47.5 24t15.5 29q0 23 -25.5 35t-88.5 12q-98 0 -192 -31v72q39 15 92.5 23.5t108.5 8.5q102 0 152 -29.5zM483 1616h144l223 -363h-128
l-167 280l-167 -280h-129z" />
    <glyph glyph-name="uni1ED6" unicode="&#x1ed6;" horiz-adv-x="1439" 
d="M267.5 167q-162.5 186 -162.5 573q0 261 75.5 430t213 249t325.5 80q289 0 451.5 -186t162.5 -573q0 -260 -75.5 -429.5t-212.5 -249.5t-326 -80q-289 0 -451.5 186zM1049 265.5q116 144.5 116 469.5q0 332 -116 478t-330 146q-213 0 -329.5 -144.5t-116.5 -469.5
q0 -332 116 -478t330 -146t330 144.5zM954.5 2027.5q40.5 16.5 83.5 52.5v-94q-35 -32 -78 -46.5t-96 -14.5q-39 0 -75.5 10t-86.5 29q-48 17 -74.5 24.5t-54.5 7.5q-49 0 -89.5 -16.5t-83.5 -53.5v94q36 32 78.5 47t95.5 15q39 0 75.5 -10t86.5 -29q48 -17 74.5 -24.5
t54.5 -7.5q49 0 89.5 16.5zM645 1880h148l245 -272h-140l-179 206l-179 -206h-140z" />
    <glyph glyph-name="uni1ED7" unicode="&#x1ed7;" horiz-adv-x="1111" 
d="M215.5 118.5q-121.5 137.5 -121.5 422.5t121 423t340 138q220 0 341 -137t121 -423q0 -284 -122 -422.5t-340 -138.5t-339.5 137.5zM777 209.5q76 98.5 76 329.5q0 235 -76 333.5t-222 98.5q-145 0 -221.5 -98t-76.5 -329q0 -234 76 -333.5t222 -99.5t222 98.5z
M793.5 1767.5q39.5 16.5 77.5 51.5v-102q-62 -62 -169 -62q-40 0 -75.5 10t-86.5 29q-49 18 -76.5 26t-57.5 8q-50 0 -89.5 -16.5t-77.5 -51.5v102q62 62 169 62q40 0 75.5 -10t86.5 -29q49 -18 76.5 -26t57.5 -8q50 0 89.5 16.5zM481 1596h148l228 -343h-132l-170 269
l-171 -269h-132z" />
    <glyph glyph-name="uni1ED8" unicode="&#x1ed8;" horiz-adv-x="1439" 
d="M267.5 167q-162.5 186 -162.5 573q0 261 75.5 430t213 249t325.5 80q289 0 451.5 -186t162.5 -573q0 -260 -75.5 -429.5t-212.5 -249.5t-326 -80q-289 0 -451.5 186zM1049 265.5q116 144.5 116 469.5q0 332 -116 478t-330 146q-213 0 -329.5 -144.5t-116.5 -469.5
q0 -332 116 -478t330 -146t330 144.5zM637.5 -325.5q-29.5 24.5 -29.5 68.5t29.5 69t81.5 25t81.5 -25t29.5 -69t-29.5 -68.5t-81.5 -24.5t-81.5 24.5zM1038 1608h-140l-179 214l-179 -214h-140l245 284h148z" />
    <glyph glyph-name="uni1ED9" unicode="&#x1ed9;" horiz-adv-x="1111" 
d="M215.5 118.5q-121.5 137.5 -121.5 422.5t121 423t340 138q220 0 341 -137t121 -423q0 -284 -122 -422.5t-340 -138.5t-339.5 137.5zM777 209.5q76 98.5 76 329.5q0 235 -76 333.5t-222 98.5q-145 0 -221.5 -98t-76.5 -329q0 -234 76 -333.5t222 -99.5t222 98.5z
M480 -333.5q-28 26.5 -28 71.5t28 72t75 27t74.5 -27t27.5 -72t-27.5 -71.5t-74.5 -26.5t-75 26.5zM850 1253h-128l-167 280l-167 -280h-129l224 363h144z" />
    <glyph glyph-name="uni1EDA" unicode="&#x1eda;" horiz-adv-x="1439" 
d="M1274 1132q59 -159 59 -392q0 -389 -162 -574t-452 -185q-289 0 -451.5 186t-162.5 573q0 261 75.5 430t213 249t325.5 80q58 0 154 -12q9 -1 55 -6t94 -5q194 0 194 159q0 36 -5.5 69t-16.5 72h121q12 -37 17.5 -71t5.5 -77q0 -109 -62 -172.5t-173 -75.5
q112 -89 171 -248zM1049 265.5q116 144.5 116 469.5q0 332 -116 478t-330 146q-213 0 -329.5 -144.5t-116.5 -469.5q0 -332 116 -478t330 -146t330 144.5zM645 1608l178 284h173l-204 -284h-147z" />
    <glyph glyph-name="uni1EDB" unicode="&#x1edb;" horiz-adv-x="1111" 
d="M859 1616l-236 -363h-145l211 363h170zM1017 542q0 -284 -122 -422.5t-340 -138.5t-339.5 137.5t-121.5 422.5t121.5 423t342.5 138q45 0 111 -6q50 -4 68 -4q192 0 192 163q0 36 -5.5 69t-16.5 72h116q12 -37 17.5 -71t5.5 -76q0 -100 -50 -162.5t-140 -82.5
q161 -137 161 -462zM777 209.5q76 98.5 76 329.5q0 235 -76 333.5t-222 98.5q-145 0 -221.5 -98t-76.5 -329q0 -234 76 -333.5t222 -99.5t222 98.5z" />
    <glyph glyph-name="uni1EDC" unicode="&#x1edc;" horiz-adv-x="1439" 
d="M1274 1132q59 -159 59 -392q0 -389 -162 -574t-452 -185q-289 0 -451.5 186t-162.5 573q0 261 75.5 430t213 249t325.5 80q58 0 154 -12q9 -1 55 -6t94 -5q194 0 194 159q0 36 -5.5 69t-16.5 72h121q12 -37 17.5 -71t5.5 -77q0 -109 -62 -172.5t-173 -75.5
q112 -89 171 -248zM1049 265.5q116 144.5 116 469.5q0 332 -116 478t-330 146q-213 0 -329.5 -144.5t-116.5 -469.5q0 -332 116 -478t330 -146t330 144.5zM646 1608l-205 284h173l178 -284h-146z" />
    <glyph glyph-name="uni1EDD" unicode="&#x1edd;" horiz-adv-x="1111" 
d="M1017 542q0 -284 -122 -422.5t-340 -138.5t-339.5 137.5t-121.5 422.5t121.5 423t342.5 138q45 0 111 -6q50 -4 68 -4q192 0 192 163q0 36 -5.5 69t-16.5 72h116q12 -37 17.5 -71t5.5 -76q0 -100 -50 -162.5t-140 -82.5q161 -137 161 -462zM777 209.5q76 98.5 76 329.5
q0 235 -76 333.5t-222 98.5q-145 0 -221.5 -98t-76.5 -329q0 -234 76 -333.5t222 -99.5t222 98.5zM476 1253l-241 363h173l216 -363h-148z" />
    <glyph glyph-name="uni1EDE" unicode="&#x1ede;" horiz-adv-x="1439" 
d="M1274 1132q59 -159 59 -392q0 -389 -162 -574t-452 -185q-289 0 -451.5 186t-162.5 573q0 261 75.5 430t213 249t325.5 80q58 0 154 -12q9 -1 55 -6t94 -5q194 0 194 159q0 36 -5.5 69t-16.5 72h121q12 -37 17.5 -71t5.5 -77q0 -109 -62 -172.5t-173 -75.5
q112 -89 171 -248zM1049 265.5q116 144.5 116 469.5q0 332 -116 478t-330 146q-213 0 -329.5 -144.5t-116.5 -469.5q0 -332 116 -478t330 -146t330 144.5zM697.5 1672.5q26.5 22.5 73.5 43.5q33 14 49 26t16 31q0 23 -26 35t-90 12q-101 0 -196 -32v79q40 15 94 23.5
t111 8.5q104 0 155.5 -31t51.5 -86q0 -28 -13 -47t-30.5 -30t-48.5 -27q-37 -18 -55 -32t-21 -38h-99q2 42 28.5 64.5z" />
    <glyph glyph-name="uni1EDF" unicode="&#x1edf;" horiz-adv-x="1111" 
d="M1017 542q0 -284 -122 -422.5t-340 -138.5t-339.5 137.5t-121.5 422.5t121.5 423t342.5 138q45 0 111 -6q50 -4 68 -4q192 0 192 163q0 36 -5.5 69t-16.5 72h116q12 -37 17.5 -71t5.5 -76q0 -100 -50 -162.5t-140 -82.5q161 -137 161 -462zM777 209.5q76 98.5 76 329.5
q0 235 -76 333.5t-222 98.5q-145 0 -221.5 -98t-76.5 -329q0 -234 76 -333.5t222 -99.5t222 98.5zM516 1319q14 28 32.5 45t48.5 39q31 22 46 38t15 39q0 34 -28 50.5t-89 16.5q-84 0 -158 -24v80q33 11 77.5 18t86.5 7q210 0 210 -140q0 -32 -11.5 -55t-27.5 -38t-43 -35
q-37 -27 -55.5 -49t-20.5 -58h-98q1 38 15 66z" />
    <glyph glyph-name="uni1EE0" unicode="&#x1ee0;" horiz-adv-x="1439" 
d="M792.5 1678.5q-37.5 10.5 -88.5 30.5q-44 17 -75 26t-63 9q-52 0 -91.5 -17t-77.5 -54v111q62 65 170 65q42 0 78.5 -10.5t88.5 -30.5q50 -19 78.5 -27.5t60.5 -8.5q52 0 91.5 17t77.5 54v-110q-62 -65 -170 -65q-42 0 -79.5 10.5zM1274 1132q59 -159 59 -392
q0 -389 -162 -574t-452 -185q-289 0 -451.5 186t-162.5 573q0 261 75.5 430t213 249t325.5 80q58 0 154 -12q9 -1 55 -6t94 -5q194 0 194 159q0 36 -5.5 69t-16.5 72h121q12 -37 17.5 -71t5.5 -77q0 -109 -62 -172.5t-173 -75.5q112 -89 171 -248zM1049 265.5
q116 144.5 116 469.5q0 332 -116 478t-330 146q-213 0 -329.5 -144.5t-116.5 -469.5q0 -332 116 -478t330 -146t330 144.5z" />
    <glyph glyph-name="uni1EE1" unicode="&#x1ee1;" horiz-adv-x="1111" 
d="M318.5 1408.5q-38.5 -18.5 -75.5 -57.5v116q62 67 162 67q38 0 72 -11t83 -33q41 -19 69 -28.5t56 -9.5q47 0 85.5 18.5t75.5 57.5v-116q-62 -67 -162 -67q-38 0 -72 11t-83 33q-41 19 -69 28.5t-57 9.5q-46 0 -84.5 -18.5zM1017 542q0 -284 -122 -422.5t-340 -138.5
t-339.5 137.5t-121.5 422.5t121.5 423t342.5 138q45 0 111 -6q50 -4 68 -4q192 0 192 163q0 36 -5.5 69t-16.5 72h116q12 -37 17.5 -71t5.5 -76q0 -100 -50 -162.5t-140 -82.5q161 -137 161 -462zM777 209.5q76 98.5 76 329.5q0 235 -76 333.5t-222 98.5q-145 0 -221.5 -98
t-76.5 -329q0 -234 76 -333.5t222 -99.5t222 98.5z" />
    <glyph glyph-name="uni1EE2" unicode="&#x1ee2;" horiz-adv-x="1439" 
d="M1274 1132q59 -159 59 -392q0 -389 -162 -574t-452 -185q-289 0 -451.5 186t-162.5 573q0 261 75.5 430t213 249t325.5 80q58 0 154 -12q9 -1 55 -6t94 -5q194 0 194 159q0 36 -5.5 69t-16.5 72h121q12 -37 17.5 -71t5.5 -77q0 -109 -62 -172.5t-173 -75.5
q112 -89 171 -248zM1049 265.5q116 144.5 116 469.5q0 332 -116 478t-330 146q-213 0 -329.5 -144.5t-116.5 -469.5q0 -332 116 -478t330 -146t330 144.5zM637.5 -325.5q-29.5 24.5 -29.5 68.5t29.5 69t81.5 25t81.5 -25t29.5 -69t-29.5 -68.5t-81.5 -24.5t-81.5 24.5z" />
    <glyph glyph-name="uni1EE3" unicode="&#x1ee3;" horiz-adv-x="1111" 
d="M1017 542q0 -284 -122 -422.5t-340 -138.5t-339.5 137.5t-121.5 422.5t121.5 423t342.5 138q45 0 111 -6q50 -4 68 -4q192 0 192 163q0 36 -5.5 69t-16.5 72h116q12 -37 17.5 -71t5.5 -76q0 -100 -50 -162.5t-140 -82.5q161 -137 161 -462zM777 209.5q76 98.5 76 329.5
q0 235 -76 333.5t-222 98.5q-145 0 -221.5 -98t-76.5 -329q0 -234 76 -333.5t222 -99.5t222 98.5zM478 -333.5q-28 26.5 -28 71.5t28 72t75 27t74.5 -27t27.5 -72t-27.5 -71.5t-74.5 -26.5t-75 26.5z" />
    <glyph glyph-name="uni1EE4" unicode="&#x1ee4;" horiz-adv-x="1417" 
d="M400 43q-121 62 -179.5 189.5t-58.5 327.5v920h162v-938q0 -219 93 -320t293 -101t293 101t93 320v938h159v-920q0 -200 -58 -327.5t-178 -189.5t-309 -62t-310 62zM628.5 -325.5q-29.5 24.5 -29.5 68.5t29.5 69t81.5 25t81.5 -25t29.5 -69t-29.5 -68.5t-81.5 -24.5
t-81.5 24.5z" />
    <glyph glyph-name="uni1EE5" unicode="&#x1ee5;" horiz-adv-x="1127" 
d="M231.5 73q-92.5 91 -92.5 291v721h160v-713q0 -132 58.5 -189.5t163.5 -57.5q80 0 160.5 36t134.5 108v816h160v-1085h-135l-12 119h-10q-67 -68 -152.5 -102.5t-181.5 -34.5q-161 0 -253.5 91zM483 -333.5q-28 26.5 -28 71.5t28 72t75 27t74.5 -27t27.5 -72t-27.5 -71.5
t-74.5 -26.5t-75 26.5z" />
    <glyph glyph-name="uni1EE6" unicode="&#x1ee6;" horiz-adv-x="1417" 
d="M400 43q-121 62 -179.5 189.5t-58.5 327.5v920h162v-938q0 -219 93 -320t293 -101t293 101t93 320v938h159v-920q0 -200 -58 -327.5t-178 -189.5t-309 -62t-310 62zM688.5 1672.5q26.5 22.5 73.5 43.5q33 14 49 26t16 31q0 23 -26 35t-90 12q-101 0 -196 -32v79
q40 15 94 23.5t111 8.5q104 0 155.5 -31t51.5 -86q0 -28 -13 -47t-30.5 -30t-48.5 -27q-37 -18 -55 -32t-21 -38h-99q2 42 28.5 64.5z" />
    <glyph glyph-name="uni1EE7" unicode="&#x1ee7;" horiz-adv-x="1127" 
d="M231.5 73q-92.5 91 -92.5 291v721h160v-713q0 -132 58.5 -189.5t163.5 -57.5q80 0 160.5 36t134.5 108v816h160v-1085h-135l-12 119h-10q-67 -68 -152.5 -102.5t-181.5 -34.5q-161 0 -253.5 91zM524 1319q14 28 32.5 45t48.5 39q31 22 46 38t15 39q0 34 -28 50.5
t-89 16.5q-84 0 -158 -24v80q33 11 77.5 18t86.5 7q210 0 210 -140q0 -32 -11.5 -55t-27.5 -38t-43 -35q-37 -27 -55.5 -49t-20.5 -58h-98q1 38 15 66z" />
    <glyph glyph-name="uni1EE8" unicode="&#x1ee8;" horiz-adv-x="1418" 
d="M400 43q-121 62 -179.5 189.5t-58.5 327.5v920h162v-938q0 -219 93 -320t293 -101t293 101t93 320v938h60q95 0 144.5 37t49.5 118q0 36 -5.5 69t-16.5 72h121q13 -36 18 -70t5 -78q0 -103 -57.5 -163.5t-159.5 -72.5v-832q0 -200 -58 -327.5t-178 -189.5t-309 -62
t-310 62zM635 1608l178 284h173l-204 -284h-147z" />
    <glyph glyph-name="uni1EE9" unicode="&#x1ee9;" horiz-adv-x="1152" 
d="M1134.5 1072q-56.5 -64 -158.5 -80v-992h-135l-12 119h-10q-67 -68 -152.5 -102.5t-181.5 -34.5q-161 0 -253.5 91t-92.5 291v721h160v-713q0 -132 58.5 -189.5t163.5 -57.5q80 0 160.5 36t134.5 108v816h66q92 0 142 39.5t50 123.5q0 36 -5.5 68t-17.5 73h116
q13 -37 18.5 -71t5.5 -76q0 -106 -56.5 -170zM484 1253l216 363h173l-241 -363h-148z" />
    <glyph glyph-name="uni1EEA" unicode="&#x1eea;" horiz-adv-x="1418" 
d="M400 43q-121 62 -179.5 189.5t-58.5 327.5v920h162v-938q0 -219 93 -320t293 -101t293 101t93 320v938h60q95 0 144.5 37t49.5 118q0 36 -5.5 69t-16.5 72h121q13 -36 18 -70t5 -78q0 -103 -57.5 -163.5t-159.5 -72.5v-832q0 -200 -58 -327.5t-178 -189.5t-309 -62
t-310 62zM636 1608l-205 284h173l178 -284h-146z" />
    <glyph glyph-name="uni1EEB" unicode="&#x1eeb;" horiz-adv-x="1152" 
d="M1134.5 1072q-56.5 -64 -158.5 -80v-992h-135l-12 119h-10q-67 -68 -152.5 -102.5t-181.5 -34.5q-161 0 -253.5 91t-92.5 291v721h160v-713q0 -132 58.5 -189.5t163.5 -57.5q80 0 160.5 36t134.5 108v816h66q92 0 142 39.5t50 123.5q0 36 -5.5 68t-17.5 73h116
q13 -37 18.5 -71t5.5 -76q0 -106 -56.5 -170zM484 1253l-241 363h173l216 -363h-148z" />
    <glyph glyph-name="uni1EEC" unicode="&#x1eec;" horiz-adv-x="1418" 
d="M400 43q-121 62 -179.5 189.5t-58.5 327.5v920h162v-938q0 -219 93 -320t293 -101t293 101t93 320v938h60q95 0 144.5 37t49.5 118q0 36 -5.5 69t-16.5 72h121q13 -36 18 -70t5 -78q0 -103 -57.5 -163.5t-159.5 -72.5v-832q0 -200 -58 -327.5t-178 -189.5t-309 -62
t-310 62zM687.5 1672.5q26.5 22.5 73.5 43.5q33 14 49 26t16 31q0 23 -26 35t-90 12q-101 0 -196 -32v79q40 15 94 23.5t111 8.5q104 0 155.5 -31t51.5 -86q0 -28 -13 -47t-30.5 -30t-48.5 -27q-37 -18 -55 -32t-21 -38h-99q2 42 28.5 64.5z" />
    <glyph glyph-name="uni1EED" unicode="&#x1eed;" horiz-adv-x="1152" 
d="M1134.5 1072q-56.5 -64 -158.5 -80v-992h-135l-12 119h-10q-67 -68 -152.5 -102.5t-181.5 -34.5q-161 0 -253.5 91t-92.5 291v721h160v-713q0 -132 58.5 -189.5t163.5 -57.5q80 0 160.5 36t134.5 108v816h66q92 0 142 39.5t50 123.5q0 36 -5.5 68t-17.5 73h116
q13 -37 18.5 -71t5.5 -76q0 -106 -56.5 -170zM524 1319q14 28 32.5 45t48.5 39q31 22 46 38t15 39q0 34 -28 50.5t-89 16.5q-84 0 -158 -24v80q33 11 77.5 18t86.5 7q210 0 210 -140q0 -32 -11.5 -55t-27.5 -38t-43 -35q-37 -27 -55.5 -49t-20.5 -58h-98q1 38 15 66z" />
    </font>
</defs>
</svg>
